<?xml version="1.0" encoding="UTF-8"?>
<svg width="819px" height="590px" viewBox="0 0 819 590" version="1.1" xmlns="http://www.w3.org/2000/svg" xmlns:xlink="http://www.w3.org/1999/xlink">
    <!-- Generator: Sketch 47.1 (45422) - http://www.bohemiancoding.com/sketch -->
    <title>Group</title>
    <desc>Created with Sketch.</desc>
    <defs>
        <linearGradient x1="50%" y1="0%" x2="50%" y2="100%" id="linearGradient-1">
            <stop stop-color="#677AEE" offset="0%"></stop>
            <stop stop-color="#20A9F5" offset="100%"></stop>
        </linearGradient>
    </defs>
    <g id="Page-1" stroke="none" stroke-width="1" fill="none" fill-rule="evenodd">
        <g id="Group" transform="translate(-1.000000, 0.000000)">
            <path d="M600.25,285.625 C600.25,141.68625 483.56375,25 339.625,25 C195.68625,25 79,141.68625 79,285.625 C79,429.5625 195.68625,546.25 339.625,546.25 C483.56375,546.25 600.25,429.5625 600.25,285.625" id="path476" stroke="#000000" stroke-width="8" stroke-dasharray="20,15" fill-rule="nonzero" transform="translate(339.625000, 285.625000) scale(-1, 1) rotate(-180.000000) translate(-339.625000, -285.625000) "></path>
            <path d="M231,373 L231,439.56125 L252.11125,439.56125 C256.73375,439.56125 258.73375,436.22625 258.73375,431.6025 L258.73375,373 L231,373" id="path518" fill="#A7A9AC" fill-rule="nonzero" transform="translate(244.866875, 406.280625) scale(-1, 1) rotate(-180.000000) translate(-244.866875, -406.280625) "></path>
            <path d="M231,373 L231,439.56125 L252.11125,439.56125 C256.73375,439.56125 258.73375,436.22625 258.73375,431.6025 L258.73375,373 L231,373 L231,373 Z" id="path520" stroke="#231F20" stroke-width="7.39567518" stroke-linejoin="round" transform="translate(244.866875, 406.280625) scale(-1, 1) rotate(-180.000000) translate(-244.866875, -406.280625) "></path>
            <path d="M185.13,300 L197.57375,300 C199.885,300 201.3375,301.02 201.3375,303.33 L201.3375,331.9625 C201.3375,334.27375 199.885,336.97875 197.57375,336.97875 L185.13,336.97875 C182.8175,336.97875 181,334.27375 181,331.9625 L181,303.33 C181,301.02 182.8175,300 185.13,300" id="path526" fill="#939598" fill-rule="nonzero" transform="translate(191.168750, 318.489375) scale(-1, 1) rotate(-180.000000) translate(-191.168750, -318.489375) "></path>
            <path d="M157.925,284.46125 C157.925,278.67875 153.245,274 147.4625,274 C141.68,274 137,278.67875 137,284.46125 C137,290.2425 141.68,294.9225 147.4625,294.9225 C153.245,294.9225 157.925,290.2425 157.925,284.46125" id="path534" fill="#FFFFFF" fill-rule="nonzero" transform="translate(147.462500, 284.461250) scale(-1, 1) rotate(-180.000000) translate(-147.462500, -284.461250) "></path>
            <path d="M538.3625,225 C536.5225,226.1325 534.73375,227.34125 533,228.62" id="path540" stroke="#231F20" stroke-width="7.39567518" stroke-linejoin="round" transform="translate(535.681250, 226.810000) scale(-1, 1) rotate(-180.000000) translate(-535.681250, -226.810000) "></path>
            <path d="M572.47875,89.34875 C559.175,103.24625 551,122.09125 551,142.85375 C551,185.60375 585.6475,220.24125 628.3875,220.24125 C671.12875,220.24125 705.77625,185.60375 705.77625,142.85375 C705.77625,119.84125 695.7325,99.175 679.7875,85" id="path542" stroke="#231F20" stroke-width="7.39567518" stroke-linejoin="round" stroke-dasharray="13.36387515068054,13.36387515068054" transform="translate(628.388125, 152.620625) scale(-1, 1) rotate(-180.000000) translate(-628.388125, -152.620625) "></path>
            <path d="M624.3425,227.64875 C622.615,226.36 620.8325,225.1425 619,224" id="path544" stroke="#231F20" stroke-width="7.39567518" stroke-linejoin="round" transform="translate(621.671250, 225.824375) scale(-1, 1) rotate(-180.000000) translate(-621.671250, -225.824375) "></path>
            <polygon id="path546" fill="#D1D3D4" fill-rule="nonzero" transform="translate(426.693875, 531.129375) scale(-1, 1) rotate(-180.000000) translate(-426.693875, -531.129375) " points="374 496 479.38775 496 479.38775 566.25875 374 566.25875"></polygon>
            <path d="M668.96375,385.1075 C668.96375,399.73125 658.10125,412.90625 642.83875,412.90625 L207.40625,412.90625 C192.14,412.90625 179,399.73125 179,385.1075 L179,167 L668.96375,167 L668.96375,385.1075" id="path548" fill="#E6E7E8" fill-rule="nonzero" transform="translate(423.981875, 289.953125) scale(-1, 1) rotate(-180.000000) translate(-423.981875, -289.953125) "></path>
            <path d="M179,496.20125 L179,437.875 C179,423.25125 192.14,413 207.40625,413 L642.83875,413 C658.10125,413 668.96375,423.25125 668.96375,437.875 L668.96375,496.20125 L179,496.20125" id="path550" fill="#F1F2F2" fill-rule="nonzero" transform="translate(423.981875, 454.600625) scale(-1, 1) rotate(-180.000000) translate(-423.981875, -454.600625) "></path>
            <path d="M179,496.20125 L179,437.875 C179,423.25125 192.14,413 207.40625,413 L642.83875,413 C658.10125,413 668.96375,423.25125 668.96375,437.875 L668.96375,496.20125 L179,496.20125 Z" id="path552" stroke="#231F20" stroke-width="7.39567518" stroke-linejoin="round" transform="translate(423.981875, 454.600625) scale(-1, 1) rotate(-180.000000) translate(-423.981875, -454.600625) "></path>
            <path d="M443.17125,455.085 C443.17125,445.6525 435.52375,438 426.085,438 C416.64625,438 409,445.6525 409,455.085 C409,464.52375 416.64625,472.17125 426.085,472.17125 C435.52375,472.17125 443.17125,464.52375 443.17125,455.085" id="path554" fill="#BCBEC0" fill-rule="nonzero" transform="translate(426.085625, 455.085625) scale(-1, 1) rotate(-180.000000) translate(-426.085625, -455.085625) "></path>
            <polygon id="path556" fill="#F1F2F2" fill-rule="nonzero" transform="translate(424.183125, 576.245125) scale(-1, 1) rotate(-180.000000) translate(-424.183125, -576.245125) " points="353 567 495.36625 567 495.36625 585.49025 353 585.49025"></polygon>
            <polygon id="path558" stroke="#231F20" stroke-width="7.39567518" stroke-linejoin="round" transform="translate(424.183125, 576.245125) scale(-1, 1) rotate(-180.000000) translate(-424.183125, -576.245125) " points="353 567 495.36625 567 495.36625 585.49025 353 585.49025"></polygon>
            <polygon id="path560" fill="url(#linearGradient-1)" fill-rule="nonzero" transform="translate(425.474375, 305.161875) scale(-1, 1) rotate(-180.000000) translate(-425.474375, -305.161875) " points="211 197 639.94875 197 639.94875 413.32375 211 413.32375"></polygon>
            <polygon id="path562" stroke="#231F20" stroke-width="7.39567518" stroke-linejoin="round" transform="translate(425.474375, 305.161875) scale(-1, 1) rotate(-180.000000) translate(-425.474375, -305.161875) " points="211 197 639.94875 197 639.94875 413.32375 211 413.32375"></polygon>
            <path d="M684.6275,193.49 C684.6275,224.1775 659.5825,249.065 628.88625,249.065 C598.19125,249.065 573,224.1775 573,193.49 C573,169.065 588.15125,148.34 610.33875,140.87875 L610.33875,103 L647.3175,103 L647.3175,140.87875 C667.655,148.34 684.6275,169.065 684.6275,193.49" id="path622" fill="#6BCB93" fill-rule="nonzero" transform="translate(628.813750, 176.032500) scale(-1, 1) rotate(-180.000000) translate(-628.813750, -176.032500) "></path>
            <polygon id="path624" fill="#BCBEC0" fill-rule="nonzero" transform="translate(628.489250, 261.018063) scale(-1, 1) rotate(-180.000000) translate(-628.489250, -261.018063) " points="610 249 646.9785 249 646.9785 273.036125 610 273.036125 610 249"></polygon>
            <polygon id="path626" stroke="#231F20" stroke-width="7.39567518" stroke-linejoin="round" transform="translate(628.489250, 261.018063) scale(-1, 1) rotate(-180.000000) translate(-628.489250, -261.018063) " points="610 249 646.9785 249 646.9785 273.036125 610 273.036125 610 249"></polygon>
            <path d="M604.279216,168.25 C604.279216,168.25 585.456716,155.1 592.630466,130" id="path632" stroke="#231F20" stroke-width="7.39567518" stroke-linejoin="round" transform="translate(597.639608, 149.125000) scale(-1, 1) rotate(-180.000000) translate(-597.639608, -149.125000) "></path>
            <path d="M723.5,543 C726.1425,543 727.1575,543.82375 727.1575,546.46625 L727.1575,556.03625 C727.1575,558.68125 726.1425,563.3375 723.5,563.3375 L570,563.3375 L570,543 L723.5,543" id="path640" fill="#FFFFFF" fill-rule="nonzero" transform="translate(648.578750, 553.168750) scale(-1, 1) rotate(-180.000000) translate(-648.578750, -553.168750) "></path>
            <path d="M727.1575,561.67625 L727.1575,552.10625 C727.1575,549.46375 726.1425,548.64 723.5,548.64 L570,548.64 L570,537.7525 C570,535.10875 572.51625,532 575.15875,532 L745.82875,532 C748.47125,532 751.19375,535.10875 751.19375,537.7525 L751.19375,576.03 C751.19375,578.67625 748.47125,580.07125 745.82875,580.07125 L575.15875,580.07125 C572.51625,580.07125 570,578.67625 570,576.03 L570,568.9775 L723.5,568.9775 C726.1425,568.9775 727.1575,564.32125 727.1575,561.67625" id="path642" fill="#E7ECED" fill-rule="nonzero" transform="translate(660.596875, 556.035625) scale(-1, 1) rotate(-180.000000) translate(-660.596875, -556.035625) "></path>
            <path d="M727.1575,561.67625 L727.1575,552.10625 C727.1575,549.46375 726.1425,548.64 723.5,548.64 L570,548.64 L570,537.7525 C570,535.10875 572.51625,532 575.15875,532 L745.82875,532 C748.47125,532 751.19375,535.10875 751.19375,537.7525 L751.19375,576.03 C751.19375,578.67625 748.47125,580.07125 745.82875,580.07125 L575.15875,580.07125 C572.51625,580.07125 570,578.67625 570,576.03 L570,568.9775 L723.5,568.9775 C726.1425,568.9775 727.1575,564.32125 727.1575,561.67625 L727.1575,561.67625 Z" id="path644" stroke="#231F20" stroke-width="7.39567518" stroke-linejoin="round" transform="translate(660.596875, 556.035625) scale(-1, 1) rotate(-180.000000) translate(-660.596875, -556.035625) "></path>
            <path d="M583.73875,516.49 C581.09625,516.49 578,515.31 578,512.6675 L578,503.0975 C578,500.45375 581.09625,498 583.73875,498 L735.15875,498 L735.15875,516.49 L583.73875,516.49" id="path652" fill="#E6E7E8" fill-rule="nonzero" transform="translate(656.579375, 507.245000) scale(-1, 1) rotate(-180.000000) translate(-656.579375, -507.245000) "></path>
            <path d="M577.18625,503.88875 L577.18625,513.45875 C577.18625,516.10125 580.2825,517.28125 582.925,517.28125 L734.345,517.28125 L734.345,527.815 C734.345,530.45625 733.90625,532.0725 731.265,532.0725 L560.59375,532.0725 C557.95125,532.0725 555,530.45625 555,527.815 L555,489.5325 C555,486.88875 557.95125,484 560.59375,484 L731.265,484 C733.90625,484 734.345,486.88875 734.345,489.5325 L734.345,498.79125 L582.925,498.79125 C580.2825,498.79125 577.18625,501.245 577.18625,503.88875" id="path654" fill="#6BCB93" fill-rule="nonzero" transform="translate(644.672500, 508.036250) scale(-1, 1) rotate(-180.000000) translate(-644.672500, -508.036250) "></path>
            <path d="M577.18625,503.88875 L577.18625,513.45875 C577.18625,516.10125 580.2825,517.28125 582.925,517.28125 L734.345,517.28125 L734.345,527.815 C734.345,530.45625 733.90625,532.0725 731.265,532.0725 L560.59375,532.0725 C557.95125,532.0725 555,530.45625 555,527.815 L555,489.5325 C555,486.88875 557.95125,484 560.59375,484 L731.265,484 C733.90625,484 734.345,486.88875 734.345,489.5325 L734.345,498.79125 L582.925,498.79125 C580.2825,498.79125 577.18625,501.245 577.18625,503.88875 L577.18625,503.88875 Z" id="path656" stroke="#231F20" stroke-width="7.39567518" stroke-linejoin="round" transform="translate(644.672500, 508.036250) scale(-1, 1) rotate(-180.000000) translate(-644.672500, -508.036250) "></path>
            <path d="M276.38125,573.8425 C276.38125,576.81375 273.9725,579.2225 271.00125,579.2225 L78.38,579.2225 C75.40875,579.2225 73,576.81375 73,573.8425 L73,538.38 C73,535.40875 75.40875,533 78.38,533 L271.00125,533 C273.9725,533 276.38125,535.40875 276.38125,538.38 L276.38125,573.8425" id="path676" fill="#FFFFFF" fill-rule="nonzero" transform="translate(174.690625, 556.111250) scale(-1, 1) rotate(-180.000000) translate(-174.690625, -556.111250) "></path>
            <path d="M276.38125,573.8425 C276.38125,576.81375 273.9725,579.2225 271.00125,579.2225 L78.38,579.2225 C75.40875,579.2225 73,576.81375 73,573.8425 L73,538.38 C73,535.40875 75.40875,533 78.38,533 L271.00125,533 C273.9725,533 276.38125,535.40875 276.38125,538.38 L276.38125,573.8425 Z" id="path678" stroke="#231F20" stroke-width="7.39567518" stroke-linejoin="round" transform="translate(174.690625, 556.111250) scale(-1, 1) rotate(-180.000000) translate(-174.690625, -556.111250) "></path>
            <path d="M109.60875,555.805 C109.60875,549.28625 104.3225,544 97.805,544 C91.285,544 86,549.28625 86,555.805 C86,562.3225 91.285,567.61 97.805,567.61 C104.3225,567.61 109.60875,562.3225 109.60875,555.805" id="path680" fill="#E7ECED" fill-rule="nonzero" transform="translate(97.804375, 555.805000) scale(-1, 1) rotate(-180.000000) translate(-97.804375, -555.805000) "></path>
            <polygon id="path682" fill="#D1D3D4" fill-rule="nonzero" transform="translate(109.845000, 557.244375) scale(-1, 1) rotate(-180.000000) translate(-109.845000, -557.244375) " points="59 548 160.69 548 160.69 566.48875 59 566.48875"></polygon>
            <path d="M298.38125,527.84375 C298.38125,530.81375 295.9725,533.2225 293.00125,533.2225 L100.38,533.2225 C97.40875,533.2225 95,530.81375 95,527.84375 L95,492.37875 C95,489.40875 97.40875,487 100.38,487 L293.00125,487 C295.9725,487 298.38125,489.40875 298.38125,492.37875 L298.38125,527.84375" id="path688" fill="#3B9ADA" fill-rule="nonzero" transform="translate(196.690625, 510.111250) scale(-1, 1) rotate(-180.000000) translate(-196.690625, -510.111250) "></path>
            <path d="M298.38125,527.84375 C298.38125,530.81375 295.9725,533.2225 293.00125,533.2225 L100.38,533.2225 C97.40875,533.2225 95,530.81375 95,527.84375 L95,492.37875 C95,489.40875 97.40875,487 100.38,487 L293.00125,487 C295.9725,487 298.38125,489.40875 298.38125,492.37875 L298.38125,527.84375" id="path690" fill="#9B9B9B" fill-rule="nonzero" transform="translate(196.690625, 510.111250) scale(-1, 1) rotate(-180.000000) translate(-196.690625, -510.111250) "></path>
            <path d="M298.38125,527.84375 C298.38125,530.81375 295.9725,533.2225 293.00125,533.2225 L100.38,533.2225 C97.40875,533.2225 95,530.81375 95,527.84375 L95,492.37875 C95,489.40875 97.40875,487 100.38,487 L293.00125,487 C295.9725,487 298.38125,489.40875 298.38125,492.37875 L298.38125,527.84375 Z" id="path692" stroke="#231F20" stroke-width="7.39567518" stroke-linejoin="round" transform="translate(196.690625, 510.111250) scale(-1, 1) rotate(-180.000000) translate(-196.690625, -510.111250) "></path>
            <polygon id="path696" fill="#FFFFFF" fill-rule="nonzero" transform="translate(132.959937, 509.093750) scale(-1, 1) rotate(-180.000000) translate(-132.959937, -509.093750) " points="108 498 157.919875 498 157.919875 520.1875 108 520.1875"></polygon>
            <polygon id="path698" fill="#FFFFFF" fill-rule="nonzero" transform="translate(155.996125, 509.093750) scale(-1, 1) rotate(-180.000000) translate(-155.996125, -509.093750) " points="107 498 204.99225 498 204.99225 520.1875 107 520.1875"></polygon>
            <path d="M68,445.0675 C68,442.095 70.29625,439 73.2675,439 L265.1375,439 C268.10875,439 271.38125,442.095 271.38125,445.0675 L271.38125,480.93125 C271.38125,483.9 268.10875,487.0725 265.1375,487.0725 L73.2675,487.0725 C70.29625,487.0725 68,483.9 68,480.93125 L68,445.0675" id="path704" fill="#FFCB31" fill-rule="nonzero" transform="translate(169.690625, 463.036250) scale(-1, 1) rotate(-180.000000) translate(-169.690625, -463.036250) "></path>
            <path d="M68,445.0675 C68,442.095 70.29625,439 73.2675,439 L265.1375,439 C268.10875,439 271.38125,442.095 271.38125,445.0675 L271.38125,480.93125 C271.38125,483.9 268.10875,487.0725 265.1375,487.0725 L73.2675,487.0725 C70.29625,487.0725 68,483.9 68,480.93125 L68,445.0675" id="path706" fill="#6BCB93" fill-rule="nonzero" transform="translate(169.690625, 463.036250) scale(-1, 1) rotate(-180.000000) translate(-169.690625, -463.036250) "></path>
            <path d="M68,445.0675 C68,442.095 70.29625,439 73.2675,439 L265.1375,439 C268.10875,439 271.38125,442.095 271.38125,445.0675 L271.38125,480.93125 C271.38125,483.9 268.10875,487.0725 265.1375,487.0725 L73.2675,487.0725 C70.29625,487.0725 68,483.9 68,480.93125 L68,445.0675 Z" id="path708" stroke="#231F20" stroke-width="7.39567518" stroke-linejoin="round" transform="translate(169.690625, 463.036250) scale(-1, 1) rotate(-180.000000) translate(-169.690625, -463.036250) "></path>
            <polygon id="path710" fill="#FFFFFF" fill-rule="nonzero" transform="translate(117.280750, 462.169438) scale(-1, 1) rotate(-180.000000) translate(-117.280750, -462.169438) " points="84 452 150.5615 452 150.5615 472.338875 84 472.338875 84 452"></polygon>
            <polygon id="path720" fill="#D1D3D4" fill-rule="nonzero" transform="translate(160.848631, 376.093250) scale(-1, 1) rotate(-180.000000) translate(-160.848631, -376.093250) " points="159 365 162.697263 365 162.697263 387.1865 159 387.1865"></polygon>
            <polygon id="path724" fill="#BCBEC0" fill-rule="nonzero" transform="translate(145.942625, 377.168937) scale(-1, 1) rotate(-180.000000) translate(-145.942625, -377.168937) " points="133 367 158.88525 367 158.88525 387.337875 133 387.337875"></polygon>
            <polygon id="path726" stroke="#231F20" stroke-width="7.39567518" stroke-linejoin="round" transform="translate(145.942625, 377.168937) scale(-1, 1) rotate(-180.000000) translate(-145.942625, -377.168937) " points="133 367 158.88525 367 158.88525 387.337875 133 387.337875"></polygon>
            <polyline id="path728" fill="#F1F2F2" fill-rule="nonzero" transform="translate(312.430625, 376.295625) scale(-1, 1) rotate(-180.000000) translate(-312.430625, -376.295625) " points="324.86125 376.29625 300 386.59125 300 366 324.86125 376.29625"></polyline>
            <polyline id="path734" stroke="#231F20" stroke-width="7.39567518" stroke-linejoin="round" stroke-dasharray="12.94237494468689,12.94237494468689" transform="translate(315.787500, 129.900000) scale(-1, 1) rotate(-180.000000) translate(-315.787500, -129.900000) " points="252 92 252 167.8 379.575 167.8"></polyline>
            <path d="M819.51125,202.25375 C819.51125,193.83 812.68,187 804.25625,187 C795.83125,187 789,193.83 789,202.25375 C789,210.68 795.83125,217.51125 804.25625,217.51125 C812.68,217.51125 819.51125,210.68 819.51125,202.25375" id="path742" fill="#F1F2F2" fill-rule="nonzero" transform="translate(804.255625, 202.255625) scale(-1, 1) rotate(-180.000000) translate(-804.255625, -202.255625) "></path>
            <path d="M31.5,380.255 C31.5,371.83 24.67,365 16.245,365 C7.82,365 0.99,371.83 0.99,380.255 C0.99,388.68125 7.82,395.51125 16.245,395.51125 C24.67,395.51125 31.5,388.68125 31.5,380.255" id="path744" fill="#F1F2F2" fill-rule="nonzero" transform="translate(16.245000, 380.255625) scale(-1, 1) rotate(-180.000000) translate(-16.245000, -380.255625) "></path>
            <path d="M469.51125,15.2625 C469.51125,6.8375 462.68,0 454.25625,0 C445.83125,0 439,6.8375 439,15.2625 C439,23.6875 445.83125,30.5125 454.25625,30.5125 C462.68,30.5125 469.51125,23.6875 469.51125,15.2625" id="path746" fill="#F1F2F2" fill-rule="nonzero" transform="translate(454.255625, 15.256250) scale(-1, 1) rotate(-180.000000) translate(-454.255625, -15.256250) "></path>
            <path d="M382.51125,91.25 C382.51125,82.825 375.68125,76 367.25625,76 C358.83125,76 352,82.825 352,91.25 C352,99.675 358.83125,106.5125 367.25625,106.5125 C375.68125,106.5125 382.51125,99.675 382.51125,91.25" id="path748" fill="#F1F2F2" fill-rule="nonzero" transform="translate(367.255625, 91.256250) scale(-1, 1) rotate(-180.000000) translate(-367.255625, -91.256250) "></path>
            <path d="M273.59125,102.7875 C273.59125,93.5125 266.07125,86 256.79625,86 C247.52,86 240,93.5125 240,102.7875 C240,112.0625 247.52,119.5875 256.79625,119.5875 C266.07125,119.5875 273.59125,112.0625 273.59125,102.7875" id="path754" fill="#F1F2F2" fill-rule="nonzero" transform="translate(256.795625, 102.793750) scale(-1, 1) rotate(-180.000000) translate(-256.795625, -102.793750) "></path>
            <path d="M549.56625,268 L545.12375,268 L545.12375,279.11125 C545.12375,280.33875 546.1175,281.33375 547.345,281.33375 L558.45625,281.33375 L558.45625,276.88875 L549.56625,276.88875 L549.56625,268" id="path488" fill="#231F20" fill-rule="nonzero" transform="translate(551.790000, 274.666875) rotate(-180.000000) translate(-551.790000, -274.666875) "></path>
            <path d="M555.45875,268.4825 L493.245,324.2675 L464.13875,324.2675 C463.5675,324.2675 463.02,324.4875 462.60625,324.88125 L424.5425,361.1225 L427.6075,364.34125 L465.0275,328.7125 L494.095,328.7125 C494.6425,328.7125 495.17,328.51125 495.57875,328.145 L558.42625,271.7925 L555.45875,268.4825" id="path490" fill="#231F20" fill-rule="nonzero" transform="translate(491.484375, 316.411875) rotate(-180.000000) translate(-491.484375, -316.411875) "></path>
            <path d="M529.56625,228 L525.12375,228 L525.12375,239.11125 C525.12375,240.33875 526.1175,241.33375 527.345,241.33375 L538.45625,241.33375 L538.45625,236.88875 L529.56625,236.88875 L529.56625,228" id="path488" fill="#231F20" fill-rule="nonzero" transform="translate(531.790000, 234.666875) rotate(-180.000000) translate(-531.790000, -234.666875) "></path>
            <path d="M535.45875,228.4825 L473.245,284.2675 L444.13875,284.2675 C443.5675,284.2675 443.02,284.4875 442.60625,284.88125 L404.5425,321.1225 L407.6075,324.34125 L445.0275,288.7125 L474.095,288.7125 C474.6425,288.7125 475.17,288.51125 475.57875,288.145 L538.42625,231.7925 L535.45875,228.4825" id="path490" fill="#231F20" fill-rule="nonzero" transform="translate(471.484375, 276.411875) rotate(-180.000000) translate(-471.484375, -276.411875) "></path>
            <polygon id="path658" fill="#6BCB93" fill-rule="nonzero" transform="translate(580.333750, 359.860500) scale(-1, 1) rotate(-180.000000) translate(-580.333750, -359.860500) " points="572 339.0275 588.6675 339.0275 588.6675 380.6935 572 380.6935"></polygon>
            <polygon id="path660" fill="#6BCB93" fill-rule="nonzero" transform="translate(602.333000, 367.221812) scale(-1, 1) rotate(-180.000000) translate(-602.333000, -367.221812) " points="594 354.0275 610.666 354.0275 610.666 380.416125 594 380.416125"></polygon>
            <polygon id="path662" fill="#6BCB93" fill-rule="nonzero" transform="translate(556.333250, 349.277500) scale(-1, 1) rotate(-180.000000) translate(-556.333250, -349.277500) " points="548 318.0275 564.6665 318.0275 564.6665 380.5275 548 380.5275"></polygon>
            <path d="M558.086327,313.0275 L558.000077,325.525 C557.995077,326.12375 558.232577,326.69875 558.658827,327.12125 C559.086327,327.54125 559.651327,327.775 560.261327,327.7625 L572.625077,327.5425 L572.546327,323.09875 L562.458827,323.27875 L562.530077,313.05875 L558.086327,313.0275" id="path664" fill="#231F20" fill-rule="nonzero" transform="translate(565.312539, 320.395238) scale(-1, 1) rotate(-180.000000) translate(-565.312539, -320.395238) "></path>
            <polyline id="path666" fill="#231F20" fill-rule="nonzero" transform="translate(580.342500, 334.370625) scale(-1, 1) rotate(-180.000000) translate(-580.342500, -334.370625) " points="598.54 313.0275 559 352.57 562.145 355.71375 601.685 316.17 598.54 313.0275"></polyline>
            <path d="M311.775493,311.015044 L306.719243,305.958794 L298.316743,314.360044 C296.635493,316.043794 294.016743,317.453794 292.537993,315.973794 L285.115493,308.551294 L290.842993,302.821294 C292.529243,301.137544 291.977993,299.860044 290.499243,298.381294 L282.466743,290.348794 C280.987993,288.870044 279.565493,288.176294 277.881743,289.861294 L272.151743,295.590044 L265.766743,289.201294 C264.286743,287.722544 264.660493,284.068794 266.344243,282.387544 L274.745493,273.986294 L270.725493,269.966294 C269.246743,268.487544 268.926743,265.978794 270.610493,264.293794 L279.757993,255.146294 C281.442993,253.462544 283.936743,253.796294 285.415493,255.273794 L289.435493,259.295044 L296.834243,251.896294 C298.517993,250.213794 301.445493,250.565044 302.924243,252.045044 L309.311743,258.431294 L305.322993,262.418794 C303.640493,264.101294 302.591743,267.266294 304.070493,268.746294 L312.102993,276.777544 C313.581743,278.256294 316.601743,277.063794 318.285493,275.380044 L322.274243,271.392544 L329.696743,278.816294 C331.175493,280.296294 330.491743,282.186294 328.807993,283.871294 L321.410493,291.268794 L326.466743,296.325044 C327.944243,297.803794 328.106743,300.126294 326.421743,301.810044 L317.275493,310.957544 C315.589243,312.641294 313.252993,312.495044 311.775493,311.015044" id="path614" fill="#6BCB93" fill-rule="nonzero" transform="translate(297.676008, 283.686815) scale(-1, 1) rotate(-180.000000) translate(-297.676008, -283.686815) "></path>
            <path d="M316.993331,345.100549 L322.130831,339.964299 L313.524581,331.358049 C311.840831,329.675549 309.887081,326.674299 311.365831,325.193049 L319.183331,317.375549 L325.378331,323.570549 C327.062081,325.255549 327.559581,324.713049 329.038331,323.234299 L337.070831,315.203049 C338.549581,313.723049 339.829581,312.488049 338.144581,310.804299 L331.949581,304.609299 L338.138331,298.421799 C339.615831,296.943049 343.267081,298.248049 344.952081,299.931799 L353.557081,308.536799 L358.044581,304.050549 C359.523331,302.571799 362.303331,301.570549 363.988331,303.255549 L373.135831,312.403049 C374.818331,314.085549 374.254581,317.303049 372.775831,318.781799 L368.288331,323.269299 L375.440831,330.423049 C377.124581,332.105549 376.935831,334.263049 375.457081,335.741799 L369.269581,341.928049 L365.585831,338.243049 C363.903331,336.561799 360.154581,335.330549 358.677081,336.808049 L350.644581,344.840549 C349.165831,346.319299 351.135831,349.329299 352.817081,351.011799 L356.502081,354.695549 L348.685831,362.513049 C347.205831,363.991799 345.698331,363.533049 344.014581,361.849299 L336.860831,354.695549 L331.724581,359.830549 C330.247081,361.310549 327.677081,361.226799 325.994581,359.543049 L316.847081,350.395549 C315.164581,348.711799 315.515831,346.579299 316.993331,345.100549" id="path616" fill="#D1D3D4" fill-rule="nonzero" transform="translate(343.739137, 330.590678) scale(-1, 1) rotate(-180.000000) translate(-343.739137, -330.590678) "></path>
            <path d="M303.916294,276.777375 L303.842544,287.289875 C303.838794,287.888625 304.076294,288.463625 304.502544,288.884875 C304.927544,289.306125 305.498794,289.556125 306.103794,289.527375 L316.505044,289.342375 L316.427544,284.899875 L308.302544,285.043625 L308.360044,276.808625 L303.916294,276.777375" id="path618" fill="#231F20" fill-rule="nonzero" transform="translate(310.173772, 283.153494) scale(-1, 1) rotate(-180.000000) translate(-310.173772, -283.153494) "></path>
            <polyline id="path620" fill="#231F20" fill-rule="nonzero" transform="translate(322.045625, 295.979875) scale(-1, 1) rotate(-180.000000) translate(-322.045625, -295.979875) " points="337.105 277.777375 303.8425 311.039875 306.98625 314.182375 340.24875 280.919875 337.105 277.777375"></polyline>
            <path d="M332.2825,321.777375 L332.24375,321.778625 L321.8425,321.962375 L321.92125,326.406125 L330.045,326.262375 L329.98875,334.497375 L334.43125,334.528625 L334.505,324.016125 C334.50875,323.416125 334.27125,322.841125 333.845,322.419875 C333.42875,322.008625 332.8675,321.777375 332.2825,321.777375" id="path622" fill="#231F20" fill-rule="nonzero" transform="translate(328.173772, 328.153000) scale(-1, 1) rotate(-180.000000) translate(-328.173772, -328.153000) "></path>
            <polyline id="path624" fill="#231F20" fill-rule="nonzero" transform="translate(315.045625, 315.980500) scale(-1, 1) rotate(-180.000000) translate(-315.045625, -315.980500) " points="330.105 297.777375 296.8425 331.041125 299.98625 334.183625 333.24875 300.919875 330.105 297.777375"></polyline>
            <path d="M299.985,240.777375 L296.8425,243.919875 L313.5675,260.646125 C313.98625,261.063625 314.55,261.297375 315.14,261.297375 L354.945,261.297375 L354.945,256.852375 L316.06125,256.852375 L299.985,240.777375" id="path626" fill="#231F20" fill-rule="nonzero" transform="translate(325.893750, 251.037375) scale(-1, 1) rotate(-180.000000) translate(-325.893750, -251.037375) "></path>
            <polygon id="path628" fill="#231F20" fill-rule="nonzero" transform="translate(335.287562, 228.999056) scale(-1, 1) rotate(-180.000000) translate(-335.287562, -228.999056) " points="315.8425 226.777375 354.732625 226.777375 354.732625 231.220738 315.8425 231.220738"></polygon>
            <path d="M328.725,352.777375 L277.8425,352.777375 L277.8425,357.222375 L327.815,357.222375 L341.79875,370.984875 L344.915,367.818625 L330.2825,353.416125 C329.8675,353.007375 329.3075,352.777375 328.725,352.777375" id="path630" fill="#231F20" fill-rule="nonzero" transform="translate(311.378750, 361.881125) scale(-1, 1) rotate(-180.000000) translate(-311.378750, -361.881125) "></path>
            <polygon id="path632" fill="#231F20" fill-rule="nonzero" transform="translate(299.370812, 354.999788) scale(-1, 1) rotate(-180.000000) translate(-299.370812, -354.999788) " points="277.8425 352.777375 320.899125 352.777375 320.899125 357.2222 277.8425 357.2222 277.8425 352.777375"></polygon>
            <polygon id="path634" fill="#D1D3D4" fill-rule="nonzero" transform="translate(374.259500, 235.888688) scale(-1, 1) rotate(-180.000000) translate(-374.259500, -235.888688) " points="363.8425 224.777375 384.6765 224.777375 384.6765 247 363.8425 247"></polygon>
            <polygon id="path722" fill="#A7A9AC" fill-rule="nonzero" transform="translate(231.410000, 376.093250) scale(-1, 1) rotate(-180.000000) translate(-231.410000, -376.093250) " points="163 365 299.82 365 299.82 387.1865 163 387.1865 163 365"></polygon>
            <polygon id="path730" stroke="#231F20" stroke-width="7.39567518" stroke-linejoin="round" transform="translate(312.430625, 376.295625) scale(-1, 1) rotate(-180.000000) translate(-312.430625, -376.295625) " points="324.86125 376.29625 300 386.59125 300 366 324.86125 376.29625"></polygon>
            <polygon id="path636" fill="#D1D3D4" fill-rule="nonzero" transform="translate(261.259500, 361.888688) scale(-1, 1) rotate(-180.000000) translate(-261.259500, -361.888688) " points="250.8425 350.777375 271.6765 350.777375 271.6765 373 250.8425 373"></polygon>
        </g>
    </g>
</svg>