<?xml version="1.0" encoding="UTF-8"?>
<svg width="932px" height="651px" viewBox="0 0 932 651" version="1.1" xmlns="http://www.w3.org/2000/svg" xmlns:xlink="http://www.w3.org/1999/xlink">
    <!-- Generator: Sketch 47.1 (45422) - http://www.bohemiancoding.com/sketch -->
    <title>Group 7</title>
    <desc>Created with Sketch.</desc>
    <defs>
        <linearGradient x1="50%" y1="0%" x2="50%" y2="100%" id="linearGradient-1">
            <stop stop-color="#677AEE" offset="0%"></stop>
            <stop stop-color="#20A9F5" offset="100%"></stop>
        </linearGradient>
    </defs>
    <g id="Page-1" stroke="none" stroke-width="1" fill="none" fill-rule="evenodd">
        <g id="Group-7" fill-rule="nonzero">
            <polygon id="path654" fill="#BCBEC0" transform="translate(159.500000, 470.000000) scale(-1, 1) rotate(-180.000000) translate(-159.500000, -470.000000) " points="145 384 174 384 174 556 145 556"></polygon>
            <polygon id="path656" fill="#BCBEC0" transform="translate(169.500000, 541.500000) scale(-1, 1) rotate(-180.000000) translate(-169.500000, -541.500000) " points="38 527 301 527 301 556 38 556 38 527"></polygon>
            <path d="M65.3078507,541 L47,541 L47,549 L65.3078507,549 L65.3078507,541 Z M101.923552,541 L83.6157015,541 L83.6157015,549 L101.923552,549 L101.923552,541 Z M138.537194,541 L120.231403,541 L120.231403,549 L138.537194,549 L138.537194,541 Z M175.152896,541 L156.845045,541 L156.845045,549 L175.152896,549 L175.152896,541 Z M211.768597,541 L193.460746,541 L193.460746,549 L211.768597,549 L211.768597,541 Z M248.384299,541 L230.076448,541 L230.076448,549 L248.384299,549 L248.384299,541 Z M285,541 L266.692149,541 L266.692149,549 L285,549 L285,541 L285,541 Z" id="path658" fill="#231F20" transform="translate(166.000000, 545.000000) scale(-1, 1) rotate(-180.000000) translate(-166.000000, -545.000000) "></path>
            <path d="M165,508.714873 L157,508.714873 L157,527 L165,527 L165,508.714873 Z M165,472.148734 L157,472.148734 L157,490.431804 L165,490.431804 L165,472.148734 L165,472.148734 Z M165,435.574367 L157,435.574367 L157,453.861551 L165,453.861551 L165,435.574367 Z M165,399 L157,399 L157,417.287184 L165,417.287184 L165,399 L165,399 Z" id="path660" fill="#231F20" transform="translate(161.000000, 463.000000) scale(-1, 1) rotate(-180.000000) translate(-161.000000, -463.000000) "></path>
            <polygon id="path662" fill="#BCBEC0" transform="translate(323.500000, 198.000000) scale(-1, 1) rotate(-180.000000) translate(-323.500000, -198.000000) " points="309 111 338 111 338 285 309 285"></polygon>
            <path d="M330,246.716049 L322,246.716049 L322,265 L330,265 L330,246.716049 Z M330,210.144033 L322,210.144033 L322,228.430041 L330,228.430041 L330,210.144033 Z M330,173.572016 L322,173.572016 L322,191.858024 L330,191.858024 L330,173.572016 Z M330,137 L322,137 L322,155.286008 L330,155.286008 L330,137 L330,137 Z" id="path668" fill="#231F20" transform="translate(326.000000, 201.000000) scale(-1, 1) rotate(-180.000000) translate(-326.000000, -201.000000) "></path>
            <g id="Group-4" transform="translate(570.000000, 410.000000)">
                <polygon id="path670" fill="#BCBEC0" transform="translate(121.000000, 86.000000) scale(-1, 1) rotate(-180.000000) translate(-121.000000, -86.000000) " points="106 0 136 0 136 172 106 172"></polygon>
                <polygon id="path672" fill="#BCBEC0" points="7.88860905e-31 174 -3.55147572e-15 145 263 145 263 174"></polygon>
                <path d="M52.4551046,164 L35,164 L35,156 L52.4551046,156 L52.4551046,164 Z M87.3653138,164 L69.9102092,164 L69.9102092,156 L87.3653138,156 L87.3653138,164 Z M122.275523,164 L104.818368,164 L104.818368,156 L122.275523,156 L122.275523,164 Z M157.183682,164 L139.728577,164 L139.728577,156 L157.183682,156 L157.183682,164 Z M192.093891,164 L174.636736,164 L174.636736,156 L192.093891,156 L192.093891,164 Z M227,164 L209.546946,164 L209.546946,156 L227,156 L227,164 Z" id="path676" fill="#231F20"></path>
                <path d="M128,35.2871838 L120,35.2871838 L120,17 L128,17 L128,35.2871838 Z M128,71.8615513 L120,71.8615513 L120,53.5743675 L128,53.5743675 L128,71.8615513 Z M128,108.435919 L120,108.435919 L120,90.1487351 L128,90.1487351 L128,108.435919 Z M128,145 L120,145 L120,126.731332 L128,126.731332 L128,145 Z" id="path680" fill="#231F20"></path>
            </g>
            <path d="M254.4,346.8625 C241.61,346.8625 229.745,343.46875 219.945,336.69875 C213.30375,344.255 204.17125,349.81125 193.805,351.53375 C194.235,354.44375 194.46125,357.54375 194.46125,360.57125 C194.46125,394.11 167.26625,421.3675 133.73,421.3675 C100.19,421.3675 72.99625,394.2175 72.99625,360.6725 C72.99625,355.72625 73.6075,350.94625 74.72,346.34375 C70.23125,347.40875 65.545,346.85125 60.7275,346.85125 C27.185,346.85125 0,322.36375 0,285 L315.1325,285 C315.1325,322.36375 287.9475,346.8625 254.4,346.8625" id="path682" fill="url(#linearGradient-1)" transform="translate(157.566250, 353.183750) scale(-1, 1) rotate(-180.000000) translate(-157.566250, -353.183750) "></path>
            <path d="M543.286499,83.3146058 C526.074627,83.3146058 510.112358,78.7871134 496.928475,69.6816736 C487.989536,79.8483495 475.705433,87.3442758 461.754635,89.6601588 C462.334867,93.5737825 462.639279,97.7564993 462.639279,101.831579 C462.639279,146.955138 426.049336,183.634217 380.929141,183.634217 C335.800536,183.634217 299.210594,147.108185 299.210594,101.972853 C299.210594,95.3195243 300.034692,88.886516 301.531522,82.6940097 C295.493745,84.1286126 289.186874,83.2994693 282.70341,83.2994693 C237.574806,83.2994693 201,50.2750113 201,0 L625,0 C625,50.2750113 588.42183,83.3146058 543.286499,83.3146058" id="path692" fill="url(#linearGradient-1)" transform="translate(413.000000, 91.817109) scale(-1, 1) rotate(-180.000000) translate(-413.000000, -91.817109) "></path>
            <path d="M855.681195,395.163274 C839.808644,395.163274 825.085469,391.152093 812.926285,382.751259 C804.685216,392.127744 793.354327,399.123269 780.487836,401.260704 C781.02297,404.870146 781.302171,408.766545 781.302171,412.524895 C781.302171,454.142838 747.559234,487.99125 705.942842,487.99125 C664.321797,487.99125 630.575758,454.31346 630.575758,412.68621 C630.575758,406.548452 631.337355,400.623196 632.717847,394.911994 C627.149347,396.235094 621.33422,395.147763 615.354675,395.147763 C573.73363,395.147763 540,364.365903 540,318 L931.045177,318 C931.045177,364.365903 897.308445,395.163274 855.681195,395.163274" id="path702" fill="url(#linearGradient-1)" transform="translate(735.522588, 402.995625) scale(-1, 1) rotate(-180.000000) translate(-735.522588, -402.995625) "></path>
            <g id="Group-3" transform="translate(157.000000, 226.000000)">
                <polygon id="path664-copy" fill="#FFFFFF" transform="translate(197.000000, 55.000000) scale(-1, 1) rotate(-180.000000) translate(-197.000000, -55.000000) " points="73 40 321 40 321 70 73 70"></polygon>
                <path d="M100.46169,52 L83,52 L83,59 L100.46169,59 L100.46169,52 Z M135.385069,52 L117.923379,52 L117.923379,59 L135.385069,59 L135.385069,52 Z M170.308448,52 L152.846758,52 L152.846758,59 L170.308448,59 L170.308448,52 Z M205.229863,52 L187.768173,52 L187.768173,59 L205.229863,59 L205.229863,52 Z M240.153242,52 L222.691552,52 L222.691552,59 L240.153242,59 L240.153242,52 Z M275.076621,52 L257.614931,52 L257.614931,59 L275.076621,59 L275.076621,52 Z M310,52 L292.53831,52 L292.53831,59 L310,59 L310,52 L310,52 Z" id="path666-copy" fill="#231F20" transform="translate(196.500000, 55.500000) scale(-1, 1) rotate(-180.000000) translate(-196.500000, -55.500000) "></path>
                <polygon id="path674-copy" fill="#231F20" transform="translate(436.000000, 268.500000) scale(-1, 1) rotate(-180.000000) translate(-436.000000, -268.500000) " points="432 265 440 265 440 272 432 272"></polygon>
                <path d="M97,127 C97,127 92.2040816,117.390121 92,110" id="path688-copy" fill="#D1D3D4" transform="translate(94.500000, 118.500000) scale(-1, 1) rotate(-180.000000) translate(-94.500000, -118.500000) "></path>
                <path d="M95.9837838,109 L89,109.2282 C89.2476658,117.032631 94.7297297,126.597178 94.9636364,127 L101,123.446037 C99.6594595,121.118399 96.1449631,113.988645 95.9837838,109" id="path690-copy" fill="#231F20" transform="translate(95.000000, 118.000000) scale(-1, 1) rotate(-180.000000) translate(-95.000000, -118.000000) "></path>
                <path d="M396,75 C396,75 408.807687,65.9301923 413,64" id="path704-copy" fill="#D1D3D4" transform="translate(404.500000, 69.500000) scale(-1, 1) rotate(-180.000000) translate(-404.500000, -69.500000) "></path>
                <path d="M410.652745,62 C406.496689,64.1920568 395.26719,73.2590134 394,74.2870551 L398.532953,80 C403.283895,76.1494792 411.327086,69.9050017 414,68.4958224 L410.652745,62" id="path706-copy" fill="#231F20" transform="translate(404.000000, 71.000000) scale(-1, 1) rotate(-180.000000) translate(-404.000000, -71.000000) "></path>
                <polygon id="path712-copy" fill="#58595B" transform="translate(272.000000, 126.500000) scale(-1, 1) rotate(-180.000000) translate(-272.000000, -126.500000) " points="88 109 456 109 456 144 88 144"></polygon>
                <polygon id="path714-copy" fill="#58595B" transform="translate(269.000000, 264.000000) scale(-1, 1) rotate(-180.000000) translate(-269.000000, -264.000000) " points="85 246 453 246 453 282 85 282"></polygon>
                <polygon id="path716-copy" fill="#58595B" transform="translate(267.000000, 403.000000) scale(-1, 1) rotate(-180.000000) translate(-267.000000, -403.000000) " points="83 385 451 385 451 421 83 421 83 385"></polygon>
                <polygon id="path718-copy" fill="#939598" transform="translate(272.000000, 56.000000) scale(-1, 1) rotate(-180.000000) translate(-272.000000, -56.000000) " points="59 4 485 4 485 108 59 108"></polygon>
                <path d="M60.9473447,6.8846831 L481.054609,6.8846831 L481.054609,103.117254 L60.9473447,103.117254 L60.9473447,6.8846831 Z M484.526328,0 L57.4736724,0 C55.5551424,0 54,1.5415493 54,3.44330986 L54,106.558627 C54,108.460387 55.5551424,110 57.4736724,110 L484.526328,110 C486.444858,110 488,108.460387 488,106.558627 L488,3.44330986 C488,1.5415493 486.444858,0 484.526328,0 L484.526328,0 Z" id="path720-copy" fill="#231F20" transform="translate(271.000000, 55.000000) scale(-1, 1) rotate(-180.000000) translate(-271.000000, -55.000000) "></path>
                <polygon id="path722-copy" fill="#939598" transform="translate(269.000000, 195.000000) scale(-1, 1) rotate(-180.000000) translate(-269.000000, -195.000000) " points="56 144 482 144 482 246 56 246 56 144"></polygon>
                <path d="M59.947376,146.926643 L480.056531,146.926643 L480.056531,242.065552 L59.947376,242.065552 L59.947376,146.926643 Z M483.528266,140 L56.473688,140 C54.5551494,140 53,141.541422 53,143.473077 L53,245.532776 C53,247.448822 54.5551494,249 56.473688,249 L483.528266,249 C485.446804,249 487,247.448822 487,245.532776 L487,143.473077 C487,141.541422 485.446804,140 483.528266,140 L483.528266,140 Z" id="path724-copy" fill="#231F20" transform="translate(270.000000, 194.500000) scale(-1, 1) rotate(-180.000000) translate(-270.000000, -194.500000) "></path>
                <polygon id="path726-copy" fill="#939598" transform="translate(267.000000, 332.000000) scale(-1, 1) rotate(-180.000000) translate(-267.000000, -332.000000) " points="54 281 480 281 480 383 54 383"></polygon>
                <path d="M58.9454223,283.945409 L479.054578,283.945409 L479.054578,379.074101 L58.9454223,379.074101 L58.9454223,283.945409 L58.9454223,283.945409 Z M482.528266,277 L55.473688,277 C53.5551494,277 52,278.560766 52,280.472704 L52,382.527296 C52,384.458744 53.5551494,386 55.473688,386 L482.528266,386 C484.446804,386 486,384.458744 486,382.527296 L486,280.472704 C486,278.560766 484.446804,277 482.528266,277 L482.528266,277 Z" id="path728-copy" fill="#231F20" transform="translate(269.000000, 331.500000) scale(-1, 1) rotate(-180.000000) translate(-269.000000, -331.500000) "></path>
                <polygon id="path730-copy" fill="#231F20" transform="translate(270.500000, 421.500000) scale(-1, 1) rotate(-180.000000) translate(-270.500000, -421.500000) " points="35 418 506 418 506 425 35 425"></polygon>
                <polygon id="path732-copy" fill="#231F20" transform="translate(88.500000, 51.500000) scale(-1, 1) rotate(-180.000000) translate(-88.500000, -51.500000) " points="85 25 92 25 92 78 85 78"></polygon>
                <polygon id="path734-copy" fill="#231F20" transform="translate(109.500000, 51.500000) scale(-1, 1) rotate(-180.000000) translate(-109.500000, -51.500000) " points="106 25 113 25 113 78 106 78"></polygon>
                <polygon id="path736-copy" fill="#231F20" transform="translate(130.500000, 51.500000) scale(-1, 1) rotate(-180.000000) translate(-130.500000, -51.500000) " points="127 25 134 25 134 78 127 78"></polygon>
                <polygon id="path738-copy" fill="#231F20" transform="translate(154.500000, 51.500000) scale(-1, 1) rotate(-180.000000) translate(-154.500000, -51.500000) " points="151 25 158 25 158 78 151 78"></polygon>
                <polygon id="path740-copy" fill="#231F20" transform="translate(177.500000, 51.500000) scale(-1, 1) rotate(-180.000000) translate(-177.500000, -51.500000) " points="174 25 181 25 181 78 174 78"></polygon>
                <polygon id="path742-copy" fill="#E6E7E8" transform="translate(328.000000, 39.000000) scale(-1, 1) rotate(-180.000000) translate(-328.000000, -39.000000) " points="200 25 456 25 456 53 200 53"></polygon>
                <path d="M438,60.4990109 C438,45.8617446 426.134742,34 411.498022,34 C396.865258,34 385,45.8617446 385,60.4990109 C385,75.1362771 396.865258,87 411.498022,87 C426.134742,87 438,75.1362771 438,60.4990109" id="path744-copy" fill="#FFFFFF" transform="translate(411.500000, 60.500000) scale(-1, 1) rotate(-180.000000) translate(-411.500000, -60.500000) "></path>
                <polygon id="path746-copy" fill="#231F20" transform="translate(411.500000, 59.500000) scale(-1, 1) rotate(-180.000000) translate(-411.500000, -59.500000) " points="402 56 421 56 421 63 402 63"></polygon>
                <path d="M141,194.5 C141,179.865258 129.134299,168 114.499011,168 C99.8637229,168 88,179.865258 88,194.5 C88,209.134742 99.8637229,221 114.499011,221 C129.134299,221 141,209.134742 141,194.5" id="path748-copy" fill="#FFFFFF" transform="translate(114.500000, 194.500000) scale(-1, 1) rotate(-180.000000) translate(-114.500000, -194.500000) "></path>
                <polygon id="path750-copy" fill="#231F20" transform="translate(114.000000, 192.500000) scale(-1, 1) rotate(-180.000000) translate(-114.000000, -192.500000) " points="104 189 124 189 124 196 104 196"></polygon>
                <path d="M226,194.5 C226,179.865258 214.131228,168 199.497033,168 C184.862837,168 173,179.865258 173,194.5 C173,209.134742 184.862837,221 199.497033,221 C214.131228,221 226,209.134742 226,194.5" id="path752-copy" fill="#FFFFFF" transform="translate(199.500000, 194.500000) scale(-1, 1) rotate(-180.000000) translate(-199.500000, -194.500000) "></path>
                <polygon id="path754-copy" fill="#231F20" transform="translate(199.500000, 192.500000) scale(-1, 1) rotate(-180.000000) translate(-199.500000, -192.500000) " points="190 189 209 189 209 196 190 196"></polygon>
                <path d="M306,194.5 C306,179.865258 294.134299,168 279.499011,168 C264.863723,168 253,179.865258 253,194.5 C253,209.134742 264.863723,221 279.499011,221 C294.134299,221 306,209.134742 306,194.5" id="path756-copy" fill="#FFFFFF" transform="translate(279.500000, 194.500000) scale(-1, 1) rotate(-180.000000) translate(-279.500000, -194.500000) "></path>
                <polygon id="path758-copy" fill="#231F20" transform="translate(280.500000, 192.500000) scale(-1, 1) rotate(-180.000000) translate(-280.500000, -192.500000) " points="271 189 290 189 290 196 271 196"></polygon>
                <polygon id="path760-copy" fill="#231F20" transform="translate(268.500000, 70.500000) scale(-1, 1) rotate(-180.000000) translate(-268.500000, -70.500000) " points="200 67 337 67 337 74 200 74"></polygon>
                <polygon id="path762-copy" fill="#231F20" transform="translate(356.500000, 70.500000) scale(-1, 1) rotate(-180.000000) translate(-356.500000, -70.500000) " points="347 67 366 67 366 74 347 74"></polygon>
                <polygon id="path764-copy" fill="#6BCB93" transform="translate(209.500000, 38.500000) scale(-1, 1) rotate(-180.000000) translate(-209.500000, -38.500000) " points="206 30 213 30 213 47 206 47"></polygon>
                <polygon id="path766-copy" fill="#6BCB93" transform="translate(228.500000, 38.500000) scale(-1, 1) rotate(-180.000000) translate(-228.500000, -38.500000) " points="225 30 232 30 232 47 225 47"></polygon>
                <polygon id="path768-copy" fill="#6BCB93" transform="translate(244.500000, 38.500000) scale(-1, 1) rotate(-180.000000) translate(-244.500000, -38.500000) " points="241 30 248 30 248 47 241 47"></polygon>
                <polygon id="path770-copy" fill="#6BCB93" transform="translate(262.500000, 38.500000) scale(-1, 1) rotate(-180.000000) translate(-262.500000, -38.500000) " points="259 30 266 30 266 47 259 47"></polygon>
                <polygon id="path772-copy" fill="#6BCB93" transform="translate(279.500000, 38.500000) scale(-1, 1) rotate(-180.000000) translate(-279.500000, -38.500000) " points="276 30 283 30 283 47 276 47"></polygon>
                <polygon id="path774-copy" fill="#58595B" transform="translate(297.500000, 38.500000) scale(-1, 1) rotate(-180.000000) translate(-297.500000, -38.500000) " points="294 30 301 30 301 47 294 47"></polygon>
                <polygon id="path776-copy" fill="#58595B" transform="translate(314.500000, 38.500000) scale(-1, 1) rotate(-180.000000) translate(-314.500000, -38.500000) " points="311 30 318 30 318 47 311 47"></polygon>
                <polygon id="path778-copy" fill="#58595B" transform="translate(331.500000, 38.500000) scale(-1, 1) rotate(-180.000000) translate(-331.500000, -38.500000) " points="328 30 335 30 335 47 328 47"></polygon>
                <polygon id="path780-copy" fill="#58595B" transform="translate(348.500000, 38.500000) scale(-1, 1) rotate(-180.000000) translate(-348.500000, -38.500000) " points="345 30 352 30 352 47 345 47"></polygon>
                <polygon id="path782-copy" fill="#58595B" transform="translate(368.500000, 38.500000) scale(-1, 1) rotate(-180.000000) translate(-368.500000, -38.500000) " points="365 30 372 30 372 47 365 47"></polygon>
                <polygon id="path784-copy" fill="#F1F2F2" transform="translate(342.000000, 183.500000) scale(-1, 1) rotate(-180.000000) translate(-342.000000, -183.500000) " points="332 168 352 168 352 199 332 199"></polygon>
                <polygon id="path786-copy" fill="#6BCB93" transform="translate(377.000000, 183.500000) scale(-1, 1) rotate(-180.000000) translate(-377.000000, -183.500000) " points="367 168 387 168 387 199 367 199"></polygon>
                <polygon id="path788-copy" fill="#F1F2F2" transform="translate(412.000000, 183.500000) scale(-1, 1) rotate(-180.000000) translate(-412.000000, -183.500000) " points="402 168 422 168 422 199 402 199"></polygon>
                <polygon id="path790-copy" fill="#6BCB93" transform="translate(447.000000, 183.500000) scale(-1, 1) rotate(-180.000000) translate(-447.000000, -183.500000) " points="437 168 457 168 457 199 437 199"></polygon>
                <polygon id="path792-copy" fill="#231F20" transform="translate(343.500000, 199.000000) scale(-1, 1) rotate(-180.000000) translate(-343.500000, -199.000000) " points="340 181 347 181 347 217 340 217 340 181"></polygon>
                <polygon id="path794-copy" fill="#231F20" transform="translate(378.500000, 199.000000) scale(-1, 1) rotate(-180.000000) translate(-378.500000, -199.000000) " points="375 181 382 181 382 217 375 217 375 181"></polygon>
                <polygon id="path796-copy" fill="#231F20" transform="translate(412.500000, 199.000000) scale(-1, 1) rotate(-180.000000) translate(-412.500000, -199.000000) " points="409 181 416 181 416 217 409 217 409 181"></polygon>
                <polygon id="path798-copy" fill="#231F20" transform="translate(447.500000, 199.000000) scale(-1, 1) rotate(-180.000000) translate(-447.500000, -199.000000) " points="444 181 451 181 451 217 444 217 444 181"></polygon>
                <polygon id="path800-copy" fill="#231F20" transform="translate(342.000000, 181.500000) scale(-1, 1) rotate(-180.000000) translate(-342.000000, -181.500000) " points="332 178 352 178 352 185 332 185"></polygon>
                <polygon id="path802-copy" fill="#231F20" transform="translate(377.000000, 181.500000) scale(-1, 1) rotate(-180.000000) translate(-377.000000, -181.500000) " points="367 178 387 178 387 185 367 185"></polygon>
                <polygon id="path804-copy" fill="#231F20" transform="translate(412.000000, 181.500000) scale(-1, 1) rotate(-180.000000) translate(-412.000000, -181.500000) " points="402 178 422 178 422 185 402 185"></polygon>
                <polygon id="path806-copy" fill="#231F20" transform="translate(447.000000, 181.500000) scale(-1, 1) rotate(-180.000000) translate(-447.000000, -181.500000) " points="437 178 457 178 457 185 437 185"></polygon>
                <polygon id="path808-copy" fill="#6BCB93" transform="translate(382.500000, 331.500000) scale(-1, 1) rotate(-180.000000) translate(-382.500000, -331.500000) " points="311 304 454 304 454 359 311 359"></polygon>
                <path d="M136,332.509892 C136,317.870101 124.131228,306 109.497033,306 C94.8628373,306 83,317.870101 83,332.509892 C83,347.149683 94.8628373,359 109.497033,359 C124.131228,359 136,347.149683 136,332.509892" id="path810-copy" fill="#FFFFFF" transform="translate(109.500000, 332.500000) scale(-1, 1) rotate(-180.000000) translate(-109.500000, -332.500000) "></path>
                <polygon id="path812-copy" fill="#231F20" transform="translate(112.000000, 331.500000) scale(-1, 1) rotate(-180.000000) translate(-112.000000, -331.500000) " points="102 328 122 328 122 335 102 335"></polygon>
                <polygon id="path814-copy" fill="#231F20" transform="translate(333.500000, 331.500000) scale(-1, 1) rotate(-180.000000) translate(-333.500000, -331.500000) " points="330 304 337 304 337 359 330 359"></polygon>
                <polygon id="path816-copy" fill="#231F20" transform="translate(333.000000, 303.500000) scale(-1, 1) rotate(-180.000000) translate(-333.000000, -303.500000) " points="323 300 343 300 343 307 323 307"></polygon>
                <polygon id="path818-copy" fill="#231F20" transform="translate(362.500000, 331.500000) scale(-1, 1) rotate(-180.000000) translate(-362.500000, -331.500000) " points="359 304 366 304 366 359 359 359"></polygon>
                <polygon id="path820-copy" fill="#231F20" transform="translate(364.500000, 358.500000) scale(-1, 1) rotate(-180.000000) translate(-364.500000, -358.500000) " points="353 355 376 355 376 362 353 362"></polygon>
                <polygon id="path822-copy" fill="#231F20" transform="translate(401.500000, 331.500000) scale(-1, 1) rotate(-180.000000) translate(-401.500000, -331.500000) " points="398 304 405 304 405 359 398 359"></polygon>
                <polygon id="path824-copy" fill="#231F20" transform="translate(402.500000, 303.500000) scale(-1, 1) rotate(-180.000000) translate(-402.500000, -303.500000) " points="391 300 414 300 414 307 391 307"></polygon>
                <polygon id="path826-copy" fill="#231F20" transform="translate(431.500000, 331.500000) scale(-1, 1) rotate(-180.000000) translate(-431.500000, -331.500000) " points="428 304 435 304 435 359 428 359"></polygon>
                <polygon id="path828-copy" fill="#231F20" transform="translate(432.500000, 358.500000) scale(-1, 1) rotate(-180.000000) translate(-432.500000, -358.500000) " points="421 355 444 355 444 362 421 362"></polygon>
                <polygon id="path830-copy" fill="#231F20" transform="translate(226.000000, 314.500000) scale(-1, 1) rotate(-180.000000) translate(-226.000000, -314.500000) " points="160 311 292 311 292 318 160 318"></polygon>
                <polygon id="path832-copy" fill="#231F20" transform="translate(226.000000, 331.500000) scale(-1, 1) rotate(-180.000000) translate(-226.000000, -331.500000) " points="160 328 292 328 292 335 160 335"></polygon>
                <polygon id="path834-copy" fill="#231F20" transform="translate(226.000000, 348.500000) scale(-1, 1) rotate(-180.000000) translate(-226.000000, -348.500000) " points="160 345 292 345 292 352 160 352"></polygon>
                <polygon id="path836-copy" fill="#231F20" transform="translate(544.500000, 421.500000) scale(-1, 1) rotate(-180.000000) translate(-544.500000, -421.500000) " points="524 418 565 418 565 425 524 425"></polygon>
                <polygon id="path838-copy" fill="#231F20" transform="translate(10.000000, 421.500000) scale(-1, 1) rotate(-180.000000) translate(-10.000000, -421.500000) " points="0 418 20 418 20 425 0 425"></polygon>
            </g>
            <polygon id="path730-copy" fill="#231F20" transform="translate(106.000000, 418.500000) scale(-1, 1) rotate(-180.000000) translate(-106.000000, -418.500000) " points="2 415 210 415 210 422 2 422"></polygon>
            <polygon id="path730-copy-2" fill="#231F20" transform="translate(413.000000, 184.500000) scale(-1, 1) rotate(-180.000000) translate(-413.000000, -184.500000) " points="201 181 625 181 625 188 201 188"></polygon>
            <polygon id="path730-copy-2" fill="#231F20" transform="translate(770.500000, 487.500000) scale(-1, 1) rotate(-180.000000) translate(-770.500000, -487.500000) " points="610 484 931 484 931 491 610 491"></polygon>
        </g>
    </g>
</svg>