<?xml version="1.0" encoding="UTF-8"?>
<svg width="1440px" height="732px" viewBox="0 0 1440 732" version="1.1" xmlns="http://www.w3.org/2000/svg" xmlns:xlink="http://www.w3.org/1999/xlink">
    <!-- Generator: Sketch 47.1 (45422) - http://www.bohemiancoding.com/sketch -->
    <title>White Landing </title>
    <desc>Created with Sketch.</desc>
    <defs>
        <path d="M1686.00396,1396 L2849,1396 L2849,1396 C2904.22847,1396 2949,1440.77153 2949,1496 L2949,2710.7398 L2949,2710.7398 C2949,2744.47185 2931.99399,2775.93066 2903.77159,2794.40624 L1852.42772,3482.66039 L1852.42772,3482.66039 C1806.22002,3512.9099 1744.2392,3499.97324 1713.98969,3453.76554 C1704.42303,3439.15197 1698.85083,3422.28754 1697.8278,3404.85106 L1586.17563,1501.85711 L1586.17563,1501.85711 C1582.94084,1446.72345 1625.01318,1399.40647 1680.14684,1396.17168 C1682.09712,1396.05725 1684.05033,1396 1686.00396,1396 Z" id="path-1"></path>
        <filter x="-5.5%" y="-3.4%" width="110.9%" height="107.1%" filterUnits="objectBoundingBox" id="filter-2">
            <feOffset dx="0" dy="2" in="SourceAlpha" result="shadowOffsetOuter1"></feOffset>
            <feGaussianBlur stdDeviation="24.5" in="shadowOffsetOuter1" result="shadowBlurOuter1"></feGaussianBlur>
            <feColorMatrix values="0 0 0 0 0.0901960784   0 0 0 0 0.501960784   0 0 0 0 0.878431373  0 0 0 0.271031476 0" type="matrix" in="shadowBlurOuter1"></feColorMatrix>
        </filter>
    </defs>
    <g id="Page-1" stroke="none" stroke-width="1" fill="none" fill-rule="evenodd">
        <g id="White-Landing-">
            <g id="BG" transform="translate(-2138.000000, -2487.000000)">
                <path d="M2294.22967,124.477831 L3703.21215,71.0719855 L3703.21215,71.0719855 C3758.40099,68.9801164 3804.83619,112.023719 3806.92806,167.212564 C3807.04931,170.411665 3807.01688,173.614744 3806.83086,176.810733 L3650.89895,2855.89716 L3650.89895,2855.89716 C3649.46546,2880.52616 3638.97834,2903.75598 3621.45378,2921.12065 L2933.21788,3603.07703 L2933.21788,3603.07703 C2893.98688,3641.95007 2830.67105,3641.6599 2791.79801,3602.4289 C2777.33374,3587.83144 2767.71789,3569.13221 2764.25884,3548.87546 L2199.44416,241.238504 L2199.44416,241.238504 C2190.14787,186.798047 2226.74444,135.129201 2281.1849,125.832906 C2285.49882,125.096258 2289.85644,124.643593 2294.22967,124.477831 Z" id="Rectangle-6" fill="#91B7DC" opacity="0.297283116" transform="translate(3002.500000, 1851.500000) rotate(-317.000000) translate(-3002.500000, -1851.500000) "></path>
                <g transform="translate(2267.500000, 2447.500000) rotate(-315.000000) translate(-2267.500000, -2447.500000) ">
                    <use fill="black" fill-opacity="1" filter="url(#filter-2)" xlink:href="#path-1"></use>
                    <use fill="#F6F9FD" fill-rule="evenodd" xlink:href="#path-1"></use>
                </g>
            </g>
        </g>
    </g>
</svg>