<?xml version="1.0" encoding="UTF-8"?>
<svg width="732px" height="150px" viewBox="0 0 732 150" version="1.1" xmlns="http://www.w3.org/2000/svg" xmlns:xlink="http://www.w3.org/1999/xlink">
    <!-- Generator: Sketch 48.2 (47327) - http://www.bohemiancoding.com/sketch -->
    <title>pip_logo</title>
    <desc>Created with Sketch.</desc>
    <defs></defs>
    <g id="Page-1" stroke="none" stroke-width="1" fill="none" fill-rule="evenodd">
        <g id="pip_logo" fill-rule="nonzero">
            <path d="M0,41.87 L22.62,41.87 C25.7662217,41.8781076 28.9030786,42.2132419 31.98,42.87 C34.7981039,43.4111061 37.4907184,44.4725524 39.92,46 C42.2190967,47.5079348 44.1005091,49.5716413 45.39,52 C46.8275286,54.9041383 47.5150989,58.121967 47.39,61.36 C47.39,65.6066667 46.66,69.03 45.2,71.63 C43.8207238,74.129825 41.7838787,76.2047097 39.31,77.63 C36.6478163,79.1212563 33.7316099,80.1046282 30.71,80.53 C27.3280309,81.0465191 23.9111686,81.3006106 20.49,81.29 L12,81.29 L12,109.14 L0,109.14 L0,41.87 Z M19.2,71.05 C20.9133333,71.05 22.6866667,70.9866667 24.52,70.86 C26.2667644,70.7550059 27.9853228,70.3701029 29.61,69.72 C31.1090297,69.1274315 32.4214059,68.1431493 33.41,66.87 C34.4774305,65.309227 34.9946461,63.4373994 34.88,61.55 C34.9737735,59.7849117 34.508356,58.0352218 33.55,56.55 C32.6724519,55.3231914 31.4949434,54.3419343 30.13,53.7 C28.6595978,53.0145921 27.0842074,52.5818669 25.47,52.42 C23.8297555,52.2356543 22.1805698,52.1421781 20.53,52.14 L12,52.14 L12,71.05 L19.2,71.05 Z" id="Shape" fill="#343A40"></path>
            <polygon id="Shape" fill="#343A40" points="57.79 41.87 69.79 41.87 69.79 109.17 57.79 109.17"></polygon>
            <path d="M84.5,41.87 L107.12,41.87 C110.26623,41.8779631 113.403101,42.213099 116.48,42.87 C119.301442,43.4103683 121.997469,44.4718228 124.43,46 C126.72487,47.5098833 128.602598,49.5733204 129.89,52 C131.328338,54.9038564 132.015953,58.1218935 131.89,61.36 C131.89,65.6066667 131.16,69.03 129.7,71.63 C128.321549,74.1304393 126.284508,76.205523 123.81,77.63 C121.147816,79.1212563 118.23161,80.1046282 115.21,80.53 C111.82804,81.0465986 108.411171,81.3006906 104.99,81.29 L96.48,81.29 L96.48,109.14 L84.48,109.14 L84.5,41.87 Z M103.7,71.05 C105.413333,71.05 107.186667,70.9866667 109.02,70.86 C110.763427,70.7542888 112.47858,70.3693922 114.1,69.72 C115.59903,69.1274315 116.911406,68.1431493 117.9,66.87 C118.97096,65.3104725 119.491722,63.4385441 119.38,61.55 C119.475149,59.7847692 119.00962,58.0346622 118.05,56.55 C117.172452,55.3231914 115.994943,54.3419343 114.63,53.7 C113.168892,53.0179965 111.60394,52.585353 110,52.42 C108.359756,52.2356543 106.71057,52.1421781 105.06,52.14 L96.48,52.14 L96.48,71.05 L103.7,71.05 Z" id="Shape" fill="#343A40"></path>
            <path d="M382.79,41.87 L406.17,41.87 C409.312036,41.8607963 412.447285,42.1622626 415.53,42.77 C418.360558,43.3113365 421.070481,44.3580441 423.53,45.86 C425.871053,47.3135806 427.802073,49.3409799 429.14,51.75 C430.633978,54.6548578 431.35381,57.8958247 431.23,61.16 C431.388194,65.5910689 429.97098,69.934828 427.23,73.42 C424.563333,76.7133333 420.713333,78.7133333 415.68,79.42 L433.55,109.17 L419.1,109.17 L403.51,80.66 L394.77,80.66 L394.77,109.18 L382.77,109.18 L382.79,41.87 Z M404.08,70.39 C405.786667,70.39 407.496667,70.31 409.21,70.15 C410.826143,70.0150297 412.411616,69.6304681 413.91,69.01 C415.3036,68.4353022 416.506469,67.4785533 417.38,66.25 C418.352449,64.7041832 418.817459,62.8930907 418.71,61.07 C418.786971,59.3976554 418.354582,57.7413286 417.47,56.32 C416.666836,55.1333861 415.548116,54.19477 414.24,53.61 C412.836915,52.9875856 411.345921,52.5861641 409.82,52.42 C408.260145,52.2349676 406.69079,52.1414741 405.12,52.14 L394.76,52.14 L394.76,70.39 L404.08,70.39 Z" id="Shape" fill="#343A40"></path>
            <path d="M439.06,75.81 C438.992448,70.7877304 439.895659,65.799694 441.72,61.12 C443.377152,56.9002754 445.885978,53.0672526 449.09,49.86 C452.290871,46.7135486 456.112016,44.268288 460.31,42.68 C464.882273,40.9591995 469.734944,40.104641 474.62,40.16 C479.538977,40.0413073 484.437637,40.8311951 489.07,42.49 C493.300966,44.0180741 497.156916,46.4318783 500.38,49.57 C503.600115,52.7566822 506.123386,56.5773428 507.79,60.79 C509.61702,65.4515099 510.520443,70.4237324 510.45,75.43 C510.515068,80.3416671 509.611167,85.2179765 507.79,89.78 C506.106181,93.9542654 503.584233,97.7388882 500.38,100.9 C497.133695,104.054773 493.287937,106.526803 489.07,108.17 C484.462138,109.958356 479.562732,110.877206 474.62,110.88 C469.734944,110.935359 464.882273,110.0808 460.31,108.36 C451.824184,105.189716 445.074935,98.5785026 441.73,90.16 C439.904655,85.5988879 438.997323,80.7224024 439.06,75.81 Z M451.61,75 C451.570692,78.4050363 452.132644,81.7902898 453.27,85 C454.305996,87.9274797 455.913848,90.619697 458,92.92 C460.036426,95.1463756 462.511698,96.927073 465.27,98.15 C468.251676,99.450964 471.477229,100.098802 474.73,100.05 C477.998619,100.095504 481.239789,99.447952 484.24,98.15 C487.017529,96.9353435 489.510758,95.1539794 491.56,92.92 C493.631385,90.6254843 495.228678,87.9440713 496.26,85.03 C497.397356,81.8202898 497.959308,78.4350363 497.92,75.03 C497.947025,71.8181911 497.384372,68.628693 496.26,65.62 C495.203416,62.789746 493.607196,60.1916425 491.56,57.97 C489.505553,55.7669683 487.011867,54.0193446 484.24,52.84 C481.221443,51.5735966 477.973021,50.9470666 474.7,51 C471.452239,50.9511187 468.230083,51.5812443 465.24,52.85 C462.496153,54.0469219 460.030768,55.8006139 458,58 C455.948818,60.2204761 454.349114,62.8187212 453.29,65.65 C452.166015,68.6385551 451.596694,71.8070974 451.61,75 Z" id="Shape" fill="#343A40"></path>
            <path d="M518.24,75.81 C518.172448,70.7877304 519.075659,65.799694 520.9,61.12 C522.557152,56.9002754 525.065978,53.0672526 528.27,49.86 C531.470871,46.7135486 535.292016,44.268288 539.49,42.68 C544.062273,40.9591995 548.914944,40.104641 553.8,40.16 C558.718977,40.0413073 563.617637,40.8311951 568.25,42.49 C572.480966,44.0180741 576.336916,46.4318783 579.56,49.57 C582.790917,52.7538557 585.324538,56.5747194 587,60.79 C588.82702,65.4515099 589.730443,70.4237324 589.66,75.43 C589.725068,80.3416671 588.821167,85.2179765 587,89.78 C585.316181,93.9542654 582.794233,97.7388882 579.59,100.9 C576.343695,104.054773 572.497937,106.526803 568.28,108.17 C563.672138,109.958356 558.772732,110.877206 553.83,110.88 C548.944944,110.935359 544.092273,110.0808 539.52,108.36 C531.034184,105.189716 524.284935,98.5785026 520.94,90.16 C519.104396,85.6009659 518.186855,80.7244085 518.24,75.81 Z M530.79,75 C530.750692,78.4050363 531.312644,81.7902898 532.45,85 C533.48359,87.9152162 535.084397,90.5968223 537.16,92.89 C539.196426,95.1163756 541.671698,96.897073 544.43,98.12 C547.411676,99.420964 550.637229,100.068802 553.89,100.02 C557.158619,100.065504 560.399789,99.417952 563.4,98.12 C566.177529,96.9053435 568.670758,95.1239794 570.72,92.89 C572.791385,90.5954843 574.388678,87.9140713 575.42,85 C576.557356,81.7902898 577.119308,78.4050363 577.08,75 C577.107025,71.7881911 576.544372,68.598693 575.42,65.59 C574.363416,62.759746 572.767196,60.1616425 570.72,57.94 C568.665553,55.7369683 566.171867,53.9893446 563.4,52.81 C560.388547,51.5579433 557.150843,50.9417242 553.89,51 C550.642239,50.9511187 547.420083,51.5812443 544.43,52.85 C541.675405,54.0433245 539.19951,55.7972252 537.16,58 C535.108818,60.2204761 533.509114,62.8187212 532.45,65.65 C531.332837,68.639829 530.7703,71.8083322 530.79,75 Z" id="Shape" fill="#343A40"></path>
            <polygon id="Shape" fill="#343A40" points="601.32 41.87 619.57 41.87 637.57 89.02 655.73 41.87 673.79 41.87 673.79 109.17 662.35 109.17 662.35 53.28 662.16 53.28 641.72 109.17 633.35 109.17 612.92 53.28 612.73 53.28 612.73 109.17 601.32 109.17"></polygon>
            <path d="M722.87,56.32 C721.610255,54.5088484 719.83764,53.1158304 717.78,52.32 C715.65028,51.4646723 713.375037,51.029999 711.08,51.04 C709.732753,51.0376133 708.389999,51.195387 707.08,51.51 C705.8148,51.7929945 704.609588,52.2974228 703.52,53 C702.480907,53.6911291 701.617911,54.6157672 701,55.7 C700.323471,56.9051654 699.978425,58.2680994 700,59.65 C699.881849,61.6792317 700.772363,63.6361175 702.38,64.88 C704.199328,66.2007719 706.200013,67.2516368 708.32,68 C710.666667,68.8866667 713.233333,69.7433333 716.02,70.57 C718.728692,71.3587975 721.318684,72.5091571 723.72,73.99 C726.083176,75.4702033 728.093587,77.4498948 729.61,79.79 C731.203333,82.2033333 732,85.4066667 732,89.4 C732.073841,92.6655653 731.389234,95.9037529 730,98.86 C728.735809,101.468231 726.900391,103.758231 724.63,105.56 C722.295441,107.380748 719.634353,108.738446 716.79,109.56 C713.734533,110.457804 710.564601,110.905839 707.38,110.89 C703.265698,110.901044 699.181051,110.19376 695.31,108.8 C691.412712,107.398951 687.960393,104.982328 685.31,101.8 L694.31,93.06 C695.744125,95.2568609 697.725882,97.0421656 700.06,98.24 C702.391792,99.4629872 704.986963,100.098049 707.62,100.09 C709.032499,100.086985 710.438266,99.8952891 711.8,99.52 C713.150375,99.1580377 714.433522,98.5806215 715.6,97.81 C716.727397,97.0644053 717.671055,96.07288 718.36,94.91 C719.047934,93.691236 719.393465,92.3091137 719.36,90.91 C719.493188,88.7437838 718.614062,86.6383119 716.98,85.21 C715.212347,83.7747815 713.223047,82.6365914 711.09,81.84 C708.743333,80.92 706.176667,80.05 703.39,79.23 C700.687857,78.4458719 698.099402,77.3130025 695.69,75.86 C693.329303,74.4189516 691.317653,72.4721935 689.8,70.16 C688.213333,67.7866667 687.42,64.6033333 687.42,60.61 C687.343529,57.4754691 688.080838,54.3746361 689.56,51.61 C690.948196,49.1204664 692.86269,46.963675 695.17,45.29 C697.569236,43.5720359 700.259097,42.3016357 703.11,41.54 C706.08322,40.7155223 709.154583,40.2983821 712.24,40.3 C715.740465,40.2945893 719.219879,40.8413063 722.55,41.92 C725.905442,43.0083127 728.97878,44.8249969 731.55,47.24 L722.87,56.32 Z" id="Shape" fill="#343A40"></path>
            <path d="M349.51,-2.66453526e-15 L255.17,-2.66453526e-15 L255.17,97.37 C255.164491,101.548512 251.778512,104.934491 247.6,104.94 L184.11,104.94 L157.64,143.43 L157.64,42.11 L241,42.11 C242.722258,42.0143559 244.069792,40.5899114 244.069792,38.865 C244.069792,37.1400886 242.722258,35.7156441 241,35.62 L151.15,35.62 L151.15,143.43 C151.121353,146.238644 152.919063,148.740863 155.59,149.61 C158.295258,150.539625 161.289765,149.579429 162.95,147.25 L187.53,111.44 L247.6,111.44 C255.368361,111.434485 261.664485,105.138361 261.67,97.37 L261.67,6.49 L349.52,6.49 C353.698512,6.49550892 357.084491,9.88148844 357.09,14.06 L357.09,70.89 L334.09,70.89 L334.09,108.4 L307.64,70.89 L275.84,70.89 C274.637688,70.8232307 273.497002,71.426707 272.875739,72.4582325 C272.254476,73.489758 272.254476,74.780242 272.875739,75.8117675 C273.497002,76.843293 274.637688,77.4467693 275.84,77.38 L304.28,77.38 L328.92,112.24 C330.614256,114.468139 333.541655,115.36623 336.193951,114.471562 C338.846247,113.576893 340.631534,111.089125 340.63,108.29 L340.63,77.38 L363.63,77.38 L363.63,14.07 C363.627359,10.3305442 362.137274,6.74573764 359.488393,4.10623652 C356.839511,1.4667354 353.249442,-0.0106243891 349.51,-2.66453526e-15 Z" id="Shape" fill="#FFFFFF"></path>
            <path d="M208.07,92 L208.07,89 C209.122405,88.7736356 210.160812,88.4864878 211.18,88.14 C212.280773,87.7175803 213.296859,87.1011546 214.18,86.32 C215.028064,85.5461555 215.708708,84.6068678 216.18,83.56 C216.699374,82.3969312 216.955473,81.1335109 216.93,79.86 C216.971508,78.6253491 216.688787,77.4013715 216.11,76.31 C215.579879,75.377936 214.853017,74.5725865 213.98,73.95 C213.058507,73.2988372 212.048168,72.7835643 210.98,72.42 C209.98,72.08 208.98,71.79 207.98,71.52 L207.98,63 C208.728446,63.0573551 209.461963,63.2398893 210.15,63.54 C211.020333,63.9288494 211.802768,64.4901617 212.45,65.19 L216,61.33 C214.88727,60.3540362 213.582654,59.6216798 212.17,59.18 C210.824536,58.8124695 209.449161,58.5648353 208.06,58.44 L208.06,55.68 L204.36,55.68 L204.36,58.52 C203.79,58.66 202.36,59.09 201.78,59.32 C200.7235,59.7467445 199.746482,60.3485063 198.89,61.1 C198.061301,61.8329234 197.382165,62.7191957 196.89,63.71 C196.377576,64.7655356 196.120655,65.9268164 196.14,67.1 C196.099556,68.3029273 196.342779,69.4984888 196.85,70.59 C197.315652,71.5264521 197.981341,72.3491756 198.8,73 C199.65188,73.6729991 200.603251,74.2094099 201.62,74.59 C202.13,74.79 203.24,75.14 204.37,75.49 L204.37,84.4 C203.492719,84.2580328 202.638439,83.999058 201.83,83.63 C200.791743,83.1456282 199.898694,82.3973983 199.24,81.46 L195.43,85.35 C196.659927,86.6564748 198.186245,87.6477238 199.88,88.24 C201.345354,88.6711108 202.849056,88.959125 204.37,89.1 L204.37,92 L208.07,92 Z M208.07,76.59 L208.94,76.9 C209.424269,77.0861835 209.886964,77.3242365 210.32,77.61 C210.718085,77.8715962 211.058404,78.2119154 211.32,78.61 C211.599198,79.0776241 211.738048,79.6156671 211.72,80.16 C211.727726,80.7302899 211.60457,81.2947566 211.36,81.81 C211.131971,82.2844609 210.812533,82.7092461 210.42,83.06 C210.0134,83.4199247 209.554928,83.7165828 209.06,83.94 C208.736271,84.0851686 208.401975,84.2055154 208.06,84.3 L208.07,76.59 Z M203.73,70.07 C203.298876,69.9053482 202.89707,69.6723678 202.54,69.38 C202.204129,69.1032711 201.925575,68.7635714 201.72,68.38 C201.491854,67.8963304 201.385431,67.3642126 201.41,66.83 C201.378645,65.8422499 201.802599,64.8948045 202.56,64.26 C203.092994,63.8127623 203.70768,63.473157 204.37,63.26 L204.37,70.33 L203.73,70.07 Z" id="Shape" fill="#FFFFFF"></path>
            <path d="M305,48.38 C303.961743,47.8956282 303.068694,47.1473983 302.41,46.21 L298.6,50.1 C299.83734,51.414136 301.374463,52.4091487 303.08,53 C304.545354,53.4311108 306.049056,53.719125 307.57,53.86 L307.57,56.8 L311.27,56.8 L311.27,53.8 C312.322405,53.5736356 313.360812,53.2864878 314.38,52.94 C315.480773,52.5175803 316.496859,51.9011546 317.38,51.12 C318.228064,50.3461555 318.908708,49.4068678 319.38,48.36 C319.899374,47.1969312 320.155473,45.9335109 320.13,44.66 C320.171508,43.4253491 319.888787,42.2013715 319.31,41.11 C318.779879,40.177936 318.053017,39.3725865 317.18,38.75 C316.258507,38.0988372 315.248168,37.5835643 314.18,37.22 C313.18,36.88 312.18,36.59 311.18,36.32 L311.18,27.78 C311.928446,27.8373551 312.661963,28.0198893 313.35,28.32 C314.220333,28.7088494 315.002768,29.2701617 315.65,29.97 L319.12,26.08 C318.00727,25.1040362 316.702654,24.3716798 315.29,23.93 C313.944524,23.5625207 312.569154,23.3148872 311.18,23.19 L311.18,20.44 L307.48,20.44 L307.48,23.28 C306.91,23.42 305.48,23.85 304.9,24.08 C303.8435,24.5067445 302.866482,25.1085063 302.01,25.86 C301.181301,26.5929234 300.502165,27.4791957 300.01,28.47 C299.497576,29.5255356 299.240655,30.6868164 299.26,31.86 C299.219556,33.0629273 299.462779,34.2584888 299.97,35.35 C300.462426,36.283632 301.15573,37.0964708 302,37.73 C302.85188,38.4029991 303.803251,38.9394099 304.82,39.32 C305.33,39.52 306.44,39.87 307.57,40.22 L307.57,49.15 C306.682473,49.010654 305.817933,48.7516285 305,48.38 Z M311.24,41.38 L312.11,41.69 C312.594237,41.8762549 313.056924,42.1143041 313.49,42.4 C313.888085,42.6615962 314.228404,43.0019154 314.49,43.4 C314.769198,43.8676241 314.908048,44.4056671 314.89,44.95 C314.897726,45.5202899 314.77457,46.0847566 314.53,46.6 C314.301971,47.0744609 313.982533,47.4992461 313.59,47.85 C313.1834,48.2099247 312.724928,48.5065828 312.23,48.73 C311.906271,48.8751686 311.571975,48.9955154 311.23,49.09 L311.24,41.38 Z M306.9,34.86 C306.468951,34.6951912 306.067169,34.4622247 305.71,34.17 C305.374129,33.8932711 305.095575,33.5535714 304.89,33.17 C304.661854,32.6863304 304.555431,32.1542126 304.58,31.62 C304.537823,30.6115634 304.970931,29.6416968 305.75,29 C306.282994,28.5527623 306.89768,28.213157 307.56,28 L307.56,35.07 L306.9,34.86 Z" id="Shape" fill="#FFFFFF"></path>
        </g>
    </g>
</svg>