<?xml version="1.0" encoding="utf-8"?>
<!-- Generator: Adobe Illustrator 21.0.0, SVG Export Plug-In . SVG Version: 6.00 Build 0)  -->
<svg version="1.1" id="Layer_1" xmlns="http://www.w3.org/2000/svg" xmlns:xlink="http://www.w3.org/1999/xlink" x="0px" y="0px"
	 viewBox="0 0 737.3 150" style="enable-background:new 0 0 737.3 150;" xml:space="preserve">
<style type="text/css">
	.st0{fill:#343A40;}
	.st1{fill:#FFFFFF;}
</style>
<title>pip_logo</title>
<desc>Created with Sketch.</desc>
<g id="Page-1">
	<g id="pip_logo">
		<path id="Shape" class="st0" d="M0,41.9h22.6c3.1,0,6.3,0.3,9.4,1c2.8,0.5,5.5,1.6,7.9,3.1c2.3,1.5,4.2,3.6,5.5,6
			c1.4,2.9,2.1,6.1,2,9.4c0,4.2-0.7,7.7-2.2,10.3c-1.4,2.5-3.4,4.6-5.9,6c-2.7,1.5-5.6,2.5-8.6,2.9c-3.4,0.5-6.8,0.8-10.2,0.8H12
			v27.8H0V41.9z M19.2,71.1c1.7,0,3.5-0.1,5.3-0.2c1.7-0.1,3.5-0.5,5.1-1.1c1.5-0.6,2.8-1.6,3.8-2.8c1.1-1.6,1.6-3.4,1.5-5.3
			c0.1-1.8-0.4-3.5-1.3-5c-0.9-1.2-2.1-2.2-3.4-2.8c-1.5-0.7-3-1.1-4.7-1.3c-1.6-0.2-3.3-0.3-4.9-0.3H12v18.9H19.2z"/>
		<polygon id="Shape_1_" class="st0" points="57.8,41.9 69.8,41.9 69.8,109.2 57.8,109.2 		"/>
		<path id="Shape_2_" class="st0" d="M84.5,41.9h22.6c3.1,0,6.3,0.3,9.4,1c2.8,0.5,5.5,1.6,7.9,3.1c2.3,1.5,4.2,3.6,5.5,6
			c1.4,2.9,2.1,6.1,2,9.4c0,4.2-0.7,7.7-2.2,10.3c-1.4,2.5-3.4,4.6-5.9,6c-2.7,1.5-5.6,2.5-8.6,2.9c-3.4,0.5-6.8,0.8-10.2,0.8h-8.5
			v27.8h-12L84.5,41.9z M103.7,71.1c1.7,0,3.5-0.1,5.3-0.2c1.7-0.1,3.5-0.5,5.1-1.1c1.5-0.6,2.8-1.6,3.8-2.8
			c1.1-1.6,1.6-3.4,1.5-5.3c0.1-1.8-0.4-3.5-1.3-5c-0.9-1.2-2.1-2.2-3.4-2.8c-1.5-0.7-3-1.1-4.6-1.3c-1.6-0.2-3.3-0.3-4.9-0.3h-8.6
			v18.9H103.7z"/>
		<path id="Shape_3_" class="st0" d="M382.8,41.9h23.4c3.1,0,6.3,0.3,9.4,0.9c2.8,0.5,5.5,1.6,8,3.1c2.3,1.5,4.3,3.5,5.6,5.9
			c1.5,2.9,2.2,6.1,2.1,9.4c0.2,4.4-1.3,8.8-4,12.3c-2.7,3.3-6.5,5.3-11.6,6l17.9,29.8h-14.4l-15.6-28.5h-8.7v28.5h-12L382.8,41.9z
			 M404.1,70.4c1.7,0,3.4-0.1,5.1-0.2c1.6-0.1,3.2-0.5,4.7-1.1c1.4-0.6,2.6-1.5,3.5-2.8c1-1.5,1.4-3.4,1.3-5.2
			c0.1-1.7-0.4-3.3-1.2-4.8c-0.8-1.2-1.9-2.1-3.2-2.7c-1.4-0.6-2.9-1-4.4-1.2c-1.6-0.2-3.1-0.3-4.7-0.3h-10.4v18.2H404.1z"/>
		<path id="Shape_4_" class="st0" d="M439.1,75.8c-0.1-5,0.8-10,2.7-14.7c1.7-4.2,4.2-8.1,7.4-11.3c3.2-3.1,7-5.6,11.2-7.2
			c4.6-1.7,9.4-2.6,14.3-2.5c4.9-0.1,9.8,0.7,14.5,2.3c4.2,1.5,8.1,3.9,11.3,7.1c3.2,3.2,5.7,7,7.4,11.2c1.8,4.7,2.7,9.6,2.7,14.6
			c0.1,4.9-0.8,9.8-2.7,14.3c-1.7,4.2-4.2,8-7.4,11.1c-3.2,3.2-7.1,5.6-11.3,7.3c-4.6,1.8-9.5,2.7-14.5,2.7
			c-4.9,0.1-9.7-0.8-14.3-2.5c-8.5-3.2-15.2-9.8-18.6-18.2C439.9,85.6,439,80.7,439.1,75.8z M451.6,75c0,3.4,0.5,6.8,1.7,10
			c1,2.9,2.6,5.6,4.7,7.9c2,2.2,4.5,4,7.3,5.2c3,1.3,6.2,1.9,9.5,1.9c3.3,0,6.5-0.6,9.5-1.9c2.8-1.2,5.3-3,7.3-5.2
			c2.1-2.3,3.7-5,4.7-7.9c1.1-3.2,1.7-6.6,1.7-10c0-3.2-0.5-6.4-1.7-9.4c-1.1-2.8-2.7-5.4-4.7-7.7c-2.1-2.2-4.5-4-7.3-5.1
			c-3-1.3-6.3-1.9-9.5-1.8c-3.2,0-6.5,0.6-9.5,1.8c-2.7,1.2-5.2,3-7.2,5.2c-2.1,2.2-3.7,4.8-4.7,7.7C452.2,68.6,451.6,71.8,451.6,75
			z"/>
		<path id="Shape_5_" class="st0" d="M518.2,75.8c-0.1-5,0.8-10,2.7-14.7c1.7-4.2,4.2-8.1,7.4-11.3c3.2-3.1,7-5.6,11.2-7.2
			c4.6-1.7,9.4-2.6,14.3-2.5c4.9-0.1,9.8,0.7,14.5,2.3c4.2,1.5,8.1,3.9,11.3,7.1c3.2,3.2,5.8,7,7.4,11.2c1.8,4.7,2.7,9.6,2.7,14.6
			c0.1,4.9-0.8,9.8-2.7,14.3c-1.7,4.2-4.2,8-7.4,11.1c-3.2,3.2-7.1,5.6-11.3,7.3c-4.6,1.8-9.5,2.7-14.5,2.7
			c-4.9,0.1-9.7-0.8-14.3-2.5c-8.5-3.2-15.2-9.8-18.6-18.2C519.1,85.6,518.2,80.7,518.2,75.8z M530.8,75c0,3.4,0.5,6.8,1.7,10
			c1,2.9,2.6,5.6,4.7,7.9c2,2.2,4.5,4,7.3,5.2c3,1.3,6.2,1.9,9.5,1.9c3.3,0,6.5-0.6,9.5-1.9c2.8-1.2,5.3-3,7.3-5.2
			c2.1-2.3,3.7-5,4.7-7.9c1.1-3.2,1.7-6.6,1.7-10c0-3.2-0.5-6.4-1.7-9.4c-1.1-2.8-2.7-5.4-4.7-7.6c-2.1-2.2-4.5-4-7.3-5.1
			c-3-1.3-6.2-1.9-9.5-1.8c-3.2,0-6.5,0.6-9.5,1.8c-2.8,1.2-5.2,2.9-7.3,5.2c-2.1,2.2-3.7,4.8-4.7,7.7
			C531.3,68.6,530.8,71.8,530.8,75z"/>
		<polygon id="Shape_6_" class="st0" points="601.3,41.9 619.6,41.9 637.6,89 655.7,41.9 673.8,41.9 673.8,109.2 662.3,109.2 
			662.3,53.3 662.2,53.3 641.7,109.2 633.3,109.2 612.9,53.3 612.7,53.3 612.7,109.2 601.3,109.2 		"/>
		<path id="Shape_8_" class="st1" d="M349.5,0h-94.3v97.4c0,4.2-3.4,7.6-7.6,7.6h-63.5l-26.5,38.5V42.1H241c1.7-0.1,3.1-1.5,3.1-3.2
			c0-1.7-1.3-3.1-3.1-3.2h-89.9v107.8c0,2.8,1.8,5.3,4.4,6.2c2.7,0.9,5.7,0,7.4-2.4l24.6-35.8h60.1c7.8,0,14.1-6.3,14.1-14.1V6.5
			h87.8c4.2,0,7.6,3.4,7.6,7.6v56.8h-23v37.5l-26.4-37.5h-31.8c-1.2-0.1-2.3,0.5-3,1.6c-0.6,1-0.6,2.3,0,3.4c0.6,1,1.8,1.6,3,1.6
			h28.4l24.6,34.9c1.7,2.2,4.6,3.1,7.3,2.2c2.7-0.9,4.4-3.4,4.4-6.2V77.4h23V14.1c0-3.7-1.5-7.3-4.1-10C356.8,1.5,353.2,0,349.5,0z"
			/>
		<path id="Shape_9_" class="st1" d="M208.1,92v-3c1.1-0.2,2.1-0.5,3.1-0.9c1.1-0.4,2.1-1,3-1.8c0.8-0.8,1.5-1.7,2-2.8
			c0.5-1.2,0.8-2.4,0.8-3.7c0-1.2-0.2-2.5-0.8-3.6c-0.5-0.9-1.3-1.7-2.1-2.4c-0.9-0.7-1.9-1.2-3-1.5c-1-0.3-2-0.6-3-0.9V63
			c0.7,0.1,1.5,0.2,2.2,0.5c0.9,0.4,1.7,1,2.3,1.7l3.6-3.9c-1.1-1-2.4-1.7-3.8-2.2c-1.3-0.4-2.7-0.6-4.1-0.7v-2.8h-3.7v2.8
			c-0.6,0.1-2,0.6-2.6,0.8c-1.1,0.4-2,1-2.9,1.8c-0.8,0.7-1.5,1.6-2,2.6c-0.5,1.1-0.8,2.2-0.8,3.4c0,1.2,0.2,2.4,0.7,3.5
			c0.5,0.9,1.1,1.8,1.9,2.4c0.9,0.7,1.8,1.2,2.8,1.6c0.5,0.2,1.6,0.6,2.8,0.9v8.9c-0.9-0.1-1.7-0.4-2.5-0.8c-1-0.5-1.9-1.2-2.6-2.2
			l-3.8,3.9c1.2,1.3,2.8,2.3,4.5,2.9c1.5,0.4,3,0.7,4.5,0.9V92H208.1z M208.1,76.6l0.9,0.3c0.5,0.2,0.9,0.4,1.4,0.7
			c0.4,0.3,0.7,0.6,1,1c0.3,0.5,0.4,1,0.4,1.6c0,0.6-0.1,1.1-0.4,1.6c-0.2,0.5-0.5,0.9-0.9,1.2c-0.4,0.4-0.9,0.7-1.4,0.9
			c-0.3,0.1-0.7,0.3-1,0.4L208.1,76.6z M203.7,70.1c-0.4-0.2-0.8-0.4-1.2-0.7c-0.3-0.3-0.6-0.6-0.8-1c-0.2-0.5-0.3-1-0.3-1.5
			c0-1,0.4-1.9,1.1-2.6c0.5-0.4,1.1-0.8,1.8-1v7.1L203.7,70.1z"/>
		<path id="Shape_10_" class="st1" d="M305,48.4c-1-0.5-1.9-1.2-2.6-2.2l-3.8,3.9c1.2,1.3,2.8,2.3,4.5,2.9c1.5,0.4,3,0.7,4.5,0.9
			v2.9h3.7v-3c1.1-0.2,2.1-0.5,3.1-0.9c1.1-0.4,2.1-1,3-1.8c0.8-0.8,1.5-1.7,2-2.8c0.5-1.2,0.8-2.4,0.8-3.7c0-1.2-0.2-2.5-0.8-3.5
			c-0.5-0.9-1.3-1.7-2.1-2.4c-0.9-0.7-1.9-1.2-3-1.5c-1-0.3-2-0.6-3-0.9v-8.5c0.7,0.1,1.5,0.2,2.2,0.5c0.9,0.4,1.7,1,2.3,1.6
			l3.5-3.9c-1.1-1-2.4-1.7-3.8-2.1c-1.3-0.4-2.7-0.6-4.1-0.7v-2.8h-3.7v2.8c-0.6,0.1-2,0.6-2.6,0.8c-1.1,0.4-2,1-2.9,1.8
			c-0.8,0.7-1.5,1.6-2,2.6c-0.5,1.1-0.8,2.2-0.8,3.4c0,1.2,0.2,2.4,0.7,3.5c0.5,0.9,1.2,1.7,2,2.4c0.9,0.7,1.8,1.2,2.8,1.6
			c0.5,0.2,1.6,0.5,2.8,0.9v8.9C306.7,49,305.8,48.8,305,48.4z M311.2,41.4l0.9,0.3c0.5,0.2,0.9,0.4,1.4,0.7c0.4,0.3,0.7,0.6,1,1
			c0.3,0.5,0.4,1,0.4,1.5c0,0.6-0.1,1.1-0.4,1.6c-0.2,0.5-0.5,0.9-0.9,1.2c-0.4,0.4-0.9,0.7-1.4,0.9c-0.3,0.1-0.7,0.3-1,0.4
			L311.2,41.4z M306.9,34.9c-0.4-0.2-0.8-0.4-1.2-0.7c-0.3-0.3-0.6-0.6-0.8-1c-0.2-0.5-0.3-1-0.3-1.5c0-1,0.4-2,1.2-2.6
			c0.5-0.4,1.1-0.8,1.8-1v7.1L306.9,34.9z"/>
		<g>
			<polygon class="st0" points="700.7,98.8 736.5,51.6 736.7,51.3 736.7,41.7 687.6,41.7 687.6,52 722.7,52 686.5,99.4 686.5,109 
				737.3,109 737.3,98.8 			"/>
		</g>
	</g>
</g>
</svg>
