<svg xmlns="http://www.w3.org/2000/svg" viewBox="0 0 737.51 149.96"><defs><style>.cls-1{fill:#343a40;}.cls-2{fill:#3ecf8e;}</style></defs><title>pip_logo</title><g id="Layer_2" data-name="Layer 2"><g id="Capa_1" data-name="Capa 1"><path class="cls-1" d="M0,41.87H22.62a45.4,45.4,0,0,1,9.36,1A23.1,23.1,0,0,1,39.92,46a16.34,16.34,0,0,1,5.47,6,19.41,19.41,0,0,1,2,9.36q0,6.37-2.19,10.27a15.65,15.65,0,0,1-5.89,6,24.62,24.62,0,0,1-8.6,2.9,66.33,66.33,0,0,1-10.22.76H12v27.85H0ZM19.2,71.05q2.57,0,5.32-.19a16.34,16.34,0,0,0,5.09-1.14,9,9,0,0,0,3.8-2.85,8.51,8.51,0,0,0,1.47-5.32,8.4,8.4,0,0,0-1.33-5,8.82,8.82,0,0,0-3.42-2.85,14.44,14.44,0,0,0-4.66-1.28,44.76,44.76,0,0,0-4.94-.28H12V71.05Z"/><path class="cls-1" d="M57.79,41.87h12v67.3h-12Z"/><path class="cls-1" d="M84.5,41.87h22.62a45.38,45.38,0,0,1,9.36,1A23.12,23.12,0,0,1,124.43,46a16.36,16.36,0,0,1,5.46,6,19.39,19.39,0,0,1,2,9.36q0,6.37-2.19,10.27a15.63,15.63,0,0,1-5.89,6,24.62,24.62,0,0,1-8.6,2.9,66.31,66.31,0,0,1-10.22.76H96.48v27.85h-12Zm19.2,29.18q2.57,0,5.32-.19a16.32,16.32,0,0,0,5.08-1.14,9,9,0,0,0,3.8-2.85,8.51,8.51,0,0,0,1.48-5.32,8.38,8.38,0,0,0-1.33-5,8.82,8.82,0,0,0-3.42-2.85A14.45,14.45,0,0,0,110,52.42a44.76,44.76,0,0,0-4.94-.28H96.48V71.05Z"/><path class="cls-1" d="M382.79,41.87h23.38a47.67,47.67,0,0,1,9.36.9,24,24,0,0,1,8,3.09,16.18,16.18,0,0,1,5.61,5.89,19,19,0,0,1,2.09,9.41,18.75,18.75,0,0,1-4,12.26q-4,4.94-11.55,6l17.87,29.75H419.1L403.51,80.66h-8.74v28.52h-12Zm21.29,28.52q2.56,0,5.13-.24a15.7,15.7,0,0,0,4.7-1.14,8,8,0,0,0,3.47-2.76,8.76,8.76,0,0,0,1.33-5.18,8.27,8.27,0,0,0-1.24-4.75,7.69,7.69,0,0,0-3.23-2.71,14.87,14.87,0,0,0-4.42-1.19,40.22,40.22,0,0,0-4.7-.28H394.76V70.39Z"/><path class="cls-1" d="M439.06,75.81a39,39,0,0,1,2.66-14.69,33,33,0,0,1,7.37-11.26,32.32,32.32,0,0,1,11.22-7.18,39.36,39.36,0,0,1,14.31-2.52,40,40,0,0,1,14.45,2.33,31.6,31.6,0,0,1,11.31,7.08,32.72,32.72,0,0,1,7.41,11.22,38.63,38.63,0,0,1,2.66,14.64,37.37,37.37,0,0,1-2.66,14.35,32.92,32.92,0,0,1-7.41,11.12,33.87,33.87,0,0,1-11.31,7.27,40,40,0,0,1-14.45,2.71,39.36,39.36,0,0,1-14.31-2.52,32.07,32.07,0,0,1-18.58-18.2A37.34,37.34,0,0,1,439.06,75.81ZM451.61,75a28.94,28.94,0,0,0,1.66,10A23.42,23.42,0,0,0,458,92.92a21.86,21.86,0,0,0,7.27,5.23,22.8,22.8,0,0,0,9.46,1.9,23.14,23.14,0,0,0,9.51-1.9,21.77,21.77,0,0,0,7.32-5.23,23.45,23.45,0,0,0,4.7-7.89,28.94,28.94,0,0,0,1.66-10,26.25,26.25,0,0,0-1.66-9.41,23.33,23.33,0,0,0-4.7-7.65,21.54,21.54,0,0,0-7.32-5.13A23.67,23.67,0,0,0,474.7,51a23.32,23.32,0,0,0-9.46,1.85A21.62,21.62,0,0,0,458,58a23.31,23.31,0,0,0-4.71,7.65A26.25,26.25,0,0,0,451.61,75Z"/><path class="cls-1" d="M518.24,75.81a39,39,0,0,1,2.66-14.69,33,33,0,0,1,7.37-11.26,32.32,32.32,0,0,1,11.22-7.18,39.36,39.36,0,0,1,14.31-2.52,40,40,0,0,1,14.45,2.33,31.6,31.6,0,0,1,11.31,7.08A32.72,32.72,0,0,1,587,60.79a38.63,38.63,0,0,1,2.66,14.64A37.37,37.37,0,0,1,587,89.78a32.92,32.92,0,0,1-7.41,11.12,33.87,33.87,0,0,1-11.31,7.27,40,40,0,0,1-14.45,2.71,39.36,39.36,0,0,1-14.31-2.52,32.07,32.07,0,0,1-18.58-18.2A37.34,37.34,0,0,1,518.24,75.81ZM530.79,75a28.94,28.94,0,0,0,1.66,10,23.42,23.42,0,0,0,4.71,7.89,21.86,21.86,0,0,0,7.27,5.23,22.8,22.8,0,0,0,9.46,1.9,23.14,23.14,0,0,0,9.51-1.9,21.77,21.77,0,0,0,7.32-5.23,23.45,23.45,0,0,0,4.7-7.89,28.94,28.94,0,0,0,1.66-10,26.25,26.25,0,0,0-1.66-9.41,23.33,23.33,0,0,0-4.7-7.65,21.54,21.54,0,0,0-7.32-5.13A23.67,23.67,0,0,0,553.89,51a23.32,23.32,0,0,0-9.46,1.85A21.62,21.62,0,0,0,537.16,58a23.31,23.31,0,0,0-4.71,7.65A26.25,26.25,0,0,0,530.79,75Z"/><path class="cls-1" d="M601.32,41.87h18.25l18,47.15,18.16-47.15h18.06v67.3H662.35V53.28h-.19l-20.44,55.89h-8.37L612.92,53.28h-.19v55.89H601.32Z"/><path class="cls-2" d="M349.51,0H255.17V97.37a7.58,7.58,0,0,1-7.57,7.57H184.11l-26.47,38.49V42.11H241a3.25,3.25,0,0,0,0-6.49H151.15V143.43a6.43,6.43,0,0,0,4.44,6.18,6.46,6.46,0,0,0,7.36-2.36l24.58-35.81h60.07a14.08,14.08,0,0,0,14.07-14.07V6.49h87.85a7.58,7.58,0,0,1,7.57,7.57V70.89h-23l0,37.51L307.64,70.89h-31.8a3.25,3.25,0,1,0,0,6.49h28.44l24.64,34.86a6.52,6.52,0,0,0,11.71-3.95V77.38h23V14.07A14.08,14.08,0,0,0,349.51,0Z"/><path class="cls-2" d="M208.07,92V89a27.87,27.87,0,0,0,3.11-.86,9.86,9.86,0,0,0,3-1.82,8.41,8.41,0,0,0,2-2.76,8.65,8.65,0,0,0,.75-3.7,7.07,7.07,0,0,0-.82-3.55,7.38,7.38,0,0,0-2.13-2.36,11.77,11.77,0,0,0-3-1.53c-1-.34-2-.63-3-.9V63a6.71,6.71,0,0,1,2.17.54,7.05,7.05,0,0,1,2.3,1.65L216,61.33a10.61,10.61,0,0,0-3.83-2.15,23.62,23.62,0,0,0-4.11-.74V55.68h-3.7v2.84c-.57.14-2,.57-2.58.8a10.14,10.14,0,0,0-2.89,1.78,8.58,8.58,0,0,0-2,2.61,7.48,7.48,0,0,0-.75,3.39,7.67,7.67,0,0,0,.71,3.49A7.14,7.14,0,0,0,198.8,73a10.47,10.47,0,0,0,2.82,1.59c.51.2,1.62.55,2.75.9V84.4a9.94,9.94,0,0,1-2.54-.77,6.55,6.55,0,0,1-2.59-2.17l-3.81,3.89a11.18,11.18,0,0,0,4.45,2.89,23.63,23.63,0,0,0,4.49.86V92Zm0-15.41.87.31a7.19,7.19,0,0,1,1.38.71,3.49,3.49,0,0,1,1,1,2.84,2.84,0,0,1,.4,1.55,3.73,3.73,0,0,1-.36,1.65,4,4,0,0,1-.94,1.25,5.41,5.41,0,0,1-1.36.88,7,7,0,0,1-1,.36Zm-4.34-6.52a4.3,4.3,0,0,1-1.19-.69,3.34,3.34,0,0,1-.82-1,3.28,3.28,0,0,1-.31-1.55,3.22,3.22,0,0,1,1.15-2.57,5.38,5.38,0,0,1,1.81-1v7.07Z"/><path class="cls-2" d="M305,48.38a6.55,6.55,0,0,1-2.59-2.17l-3.81,3.89A11.18,11.18,0,0,0,303.08,53a23.63,23.63,0,0,0,4.49.86v2.94h3.7v-3a27.87,27.87,0,0,0,3.11-.86,9.86,9.86,0,0,0,3-1.82,8.41,8.41,0,0,0,2-2.76,8.65,8.65,0,0,0,.75-3.7,7.07,7.07,0,0,0-.82-3.55,7.38,7.38,0,0,0-2.13-2.36,11.77,11.77,0,0,0-3-1.53c-1-.34-2-.63-3-.9V27.78a6.71,6.71,0,0,1,2.17.54,7.05,7.05,0,0,1,2.3,1.65l3.47-3.89a10.61,10.61,0,0,0-3.83-2.15,23.63,23.63,0,0,0-4.11-.74V20.44h-3.7v2.84c-.57.14-2,.57-2.58.8a10.14,10.14,0,0,0-2.89,1.78,8.58,8.58,0,0,0-2,2.61,7.48,7.48,0,0,0-.75,3.39,7.67,7.67,0,0,0,.71,3.49A7.14,7.14,0,0,0,302,37.73a10.47,10.47,0,0,0,2.82,1.59c.51.2,1.62.55,2.75.9v8.93A9.94,9.94,0,0,1,305,48.38Zm6.24-7,.87.31a7.2,7.2,0,0,1,1.38.71,3.49,3.49,0,0,1,1,1,2.84,2.84,0,0,1,.4,1.55,3.73,3.73,0,0,1-.36,1.65,4,4,0,0,1-.94,1.25,5.41,5.41,0,0,1-1.36.88,7,7,0,0,1-1,.36Zm-4.34-6.52a4.31,4.31,0,0,1-1.19-.69,3.34,3.34,0,0,1-.82-1,3.28,3.28,0,0,1-.31-1.55A3.22,3.22,0,0,1,305.75,29a5.38,5.38,0,0,1,1.81-1v7.07Z"/><polygon class="cls-1" points="700.93 98.91 736.76 51.73 736.96 51.47 736.96 41.87 687.86 41.87 687.86 52.12 722.96 52.12 686.75 99.55 686.75 109.15 737.51 109.15 737.51 98.91 700.93 98.91"/></g></g></svg>