<?xml version="1.0" encoding="UTF-8"?>
<svg width="637px" height="491px" viewBox="0 0 637 491" version="1.1" xmlns="http://www.w3.org/2000/svg" xmlns:xlink="http://www.w3.org/1999/xlink">
    <!-- Generator: Sketch 47.1 (45422) - http://www.bohemiancoding.com/sketch -->
    <title>Group 6</title>
    <desc>Created with Sketch.</desc>
    <defs>
        <linearGradient x1="4.67188056%" y1="50%" x2="100%" y2="50%" id="linearGradient-1">
            <stop stop-color="#677AEE" offset="0%"></stop>
            <stop stop-color="#20A9F5" offset="100%"></stop>
        </linearGradient>
    </defs>
    <g id="Page-1" stroke="none" stroke-width="1" fill="none" fill-rule="evenodd">
        <g id="Group-6" fill-rule="nonzero">
            <polyline id="path30" fill="#FFFFFF" transform="translate(636.481250, 195.618750) scale(-1, 1) rotate(-180.000000) translate(-636.481250, -195.618750) " points="636.6375 0 636 0.2125 636 390.91375 636.9625 391.2375 636.6375 5.68434189e-14"></polyline>
            <polygon id="path32" fill="url(#linearGradient-1)" transform="translate(383.125000, 195.350625) scale(-1, 1) rotate(-180.000000) translate(-383.125000, -195.350625) " points="130 169.46625 130 221.3475 636.25 390.70125 636.25 2.84217094e-14"></polygon>
            <polygon id="path322" fill="#231F20" transform="translate(243.125000, 486.750000) scale(-1, 1) rotate(-180.000000) translate(-243.125000, -486.750000) " points="0 483 486.25 483 486.25 490.5 0 490.5"></polygon>
            <polygon id="path324" fill="#231F20" transform="translate(542.250000, 486.750000) scale(-1, 1) rotate(-180.000000) translate(-542.250000, -486.750000) " points="516 483 568.5 483 568.5 490.5 516 490.5"></polygon>
            <path d="M606.825,187.9825 C606.825,216.95875 583.2375,240.445 554.25,240.445 C525.275,240.445 502,216.95875 502,187.9825 C502,164.93375 514,145.36625 537.75,138.32375 L537.75,103 L571.5,103 L571.5,138.32375 C589,145.36625 606.825,164.93375 606.825,187.9825" id="path326" fill="#6BCB93" transform="translate(554.412500, 171.722500) scale(-1, 1) rotate(-180.000000) translate(-554.412500, -171.722500) "></path>
            <polygon id="path328" fill="#BCBEC0" transform="translate(553.875000, 252.875000) scale(-1, 1) rotate(-180.000000) translate(-553.875000, -252.875000) " points="537 241 570.75 241 570.75 264.75 537 264.75"></polygon>
            <path d="M571.5,240.75 L571.5,244.5 L541.5,244.5 L541.5,260.75 L567.75,260.75 L567.75,240.75 L571.5,240.75 L571.5,244.5 L571.5,240.75 L575.25,240.75 L575.25,264.5 C575.25,265.4875 574.85,266.45375 574.15,267.15125 C573.45,267.85 572.4875,268.25 571.5,268.25 L537.75,268.25 C536.7625,268.25 535.8,267.85 535.1,267.15125 C534.4,266.45375 534,265.4875 534,264.5 L534,240.75 C534,239.7625 534.4,238.79625 535.1,238.09875 C535.8,237.4 536.7625,237 537.75,237 L571.5,237 C572.4875,237 573.45,237.4 574.15,238.09875 C574.85,238.79625 575.25,239.7625 575.25,240.75 L571.5,240.75" id="path330" fill="#231F20" transform="translate(554.625000, 252.625000) scale(-1, 1) rotate(-180.000000) translate(-554.625000, -252.625000) "></path>
            <polygon id="path332" fill="#231F20" transform="translate(554.750000, 196.750000) scale(-1, 1) rotate(-180.000000) translate(-554.750000, -196.750000) " points="551 153 558.5 153 558.5 240.5 551 240.5"></polygon>
            <polygon id="path334" fill="#231F20" transform="translate(552.875000, 152.750000) scale(-1, 1) rotate(-180.000000) translate(-552.875000, -152.750000) " points="541 149 564.75 149 564.75 156.5 541 156.5"></polygon>
            <path d="M528.1,166.11125 C527.875,165.95125 524.45,163.5375 520.975,158.785 C519.2375,156.40875 517.5,153.44125 516.1875,149.8825 C514.875,146.3275 514,142.1775 514,137.51125 C514,133.955 514.5125,130.10375 515.6875,126 L522.725,128.0125 C521.725,131.4925 521.325,134.64875 521.325,137.51125 C521.325,141.26625 522.025,144.5275 523.0625,147.35 C524.6125,151.57875 526.975,154.82375 528.95,156.98875 C529.925,158.07125 530.8,158.88125 531.425,159.40375 C531.725,159.66625 531.9625,159.85625 532.125,159.97375 L532.275,160.095 L532.3125,160.115 L531.525,161.205 L532.3,160.10625 L532.3125,160.115 L531.525,161.205 L532.3,160.10625 L528.1,166.11125" id="path336" fill="#231F20" transform="translate(523.156250, 146.055625) scale(-1, 1) rotate(-180.000000) translate(-523.156250, -146.055625) "></path>
            <path d="M358.4925,111.513756 L361.08125,114.103756 L358.2975,116.887506 L366.3425,124.933756 C368.13875,126.732506 369.05,129.083756 369.05125,131.412506 C369.05125,132.455006 368.86875,133.502506 368.48,134.503756 C368.09375,135.502506 367.49625,136.455006 366.69125,137.261256 L358.325,145.628756 C356.895,147.058756 354.57625,147.058756 353.14625,145.628756 L346.89875,139.383756 L346.80625,139.303756 L346.79625,139.297506 L346.87125,139.167506 L346.83375,139.311256 L346.79625,139.297506 L346.87125,139.167506 L346.83375,139.311256 L346.86625,139.185006 L346.86625,139.316256 L346.83375,139.311256 L346.86625,139.185006 L346.86625,139.316256 C346.86,139.313756 346.6875,139.328756 346.41,139.471256 C346.135,139.607506 345.78125,139.862506 345.47,140.177506 L335.595,150.048756 C335.2975,150.345006 335.09625,150.635006 335.00125,150.826256 L334.92,151.030006 L334.9125,151.065006 L334.865,151.058756 L334.9125,151.057506 L334.9125,151.065006 L334.865,151.058756 L334.9125,151.057506 L334.71125,151.057506 L334.8975,150.976256 L334.9125,151.057506 L334.71125,151.057506 L334.8975,150.976256 C334.89875,150.976256 334.92375,151.045006 335.07875,151.201256 L341.325,157.447506 C342.00625,158.130006 342.3975,159.073756 342.3975,160.037506 C342.3975,161.002506 342.00625,161.945006 341.325,162.627506 L333.77875,170.172506 C332.79625,171.148756 331.665,171.802506 330.46375,172.263756 C329.25875,172.718756 327.9725,172.972506 326.625,172.975006 C325.62875,172.973756 324.595,172.832506 323.56125,172.471256 C322.5325,172.112506 321.5,171.517506 320.63125,170.647506 L312.58375,162.602506 L310.61875,164.567506 C309.8625,165.322506 308.9875,165.968756 307.98625,166.440006 C306.9875,166.908756 305.85125,167.198756 304.66125,167.197506 C303.64625,167.200006 302.60125,166.982506 301.64,166.556256 C300.675,166.132506 299.7975,165.508756 299.04,164.748756 L287.79625,153.503756 C286.86,152.567506 286.1475,151.481256 285.66,150.322506 C285.175,149.163756 284.90875,147.928756 284.9075,146.658756 C284.9075,145.696256 285.06375,144.708756 285.42375,143.748756 C285.7825,142.790006 286.35375,141.860006 287.13625,141.081256 L287.13375,141.083756 L289.0975,139.118756 L283.1475,133.167506 L283.14375,133.163756 C282.3925,132.415006 281.82875,131.511256 281.485,130.587506 C281.1375,129.661256 281,128.723756 281,127.843756 C281.00625,126.328756 281.38375,124.967506 281.9325,123.752506 C282.49,122.537506 283.22375,121.460006 284.14125,120.537506 L291.6875,112.991256 C293.1175,111.561256 295.43375,111.560006 296.865,112.990006 L301.34625,117.467506 L301.35,117.471256 C301.70375,117.802506 301.86125,117.812506 302.07625,117.828756 C302.305,117.832506 302.64875,117.722506 302.95875,117.411256 L312.83,107.538756 C313.17375,107.218756 313.42125,106.597506 313.4025,106.242506 C313.40125,106.098756 313.37875,105.997506 313.34625,105.915006 L313.1625,105.647506 L308.6875,101.171256 C308.005,100.490006 307.61375,99.5462557 307.615,98.5825057 C307.615,97.6175057 308.005,96.6750057 308.6875,95.9925057 L317.05375,87.6275057 L317.05125,87.6300057 C317.83625,86.8437557 318.75125,86.1950057 319.7775,85.7325057 C320.80125,85.2712557 321.9425,85.0000057 323.1325,85.0000057 C324.15125,84.9987557 325.20125,85.2037557 326.185,85.6237557 C327.17,86.0412557 328.08125,86.6700057 328.8625,87.4537557 L334.8125,93.4037557 L337.5975,90.6175057 C338.49125,89.7262557 339.53375,89.1275057 340.6025,88.7412557 C341.675,88.3550057 342.785,88.1762557 343.90375,88.1750057 C345.05,88.1762557 346.21,88.3650057 347.33875,88.7825057 C348.465,89.1987557 349.56875,89.8537557 350.50875,90.7950057 L361.7525,102.038756 C362.5,102.782506 363.0875,103.667506 363.46375,104.605006 C363.84125,105.542506 364.0075,106.518756 364.00625,107.441256 C364.00375,108.816256 363.65875,110.072506 363.14125,111.181256 C362.61875,112.290006 361.91875,113.265006 361.0825,114.103756 L358.4925,111.513756 L355.9025,108.925006 C356.1525,108.678756 356.3775,108.356256 356.51,108.070006 C356.64625,107.782506 356.68375,107.545006 356.6825,107.441256 L356.66875,107.340006 L356.575,107.218756 L345.32875,95.9712557 C345.22,95.8625057 345.04875,95.7450057 344.79625,95.6512557 C344.54625,95.5575057 344.2225,95.4975057 343.90375,95.4987557 C343.59375,95.4975057 343.29375,95.5550057 343.08875,95.6300057 C342.88125,95.7037557 342.78,95.7900057 342.77875,95.7950057 L337.40125,101.171256 C336.72,101.853756 335.77625,102.245006 334.8125,102.245006 C333.8475,102.245006 332.905,101.853756 332.2225,101.171256 L323.6825,92.6312557 C323.5075,92.4587557 323.39125,92.3962557 323.31625,92.3637557 L323.1325,92.3237557 C323.0575,92.3237557 322.9425,92.3400057 322.7825,92.4125057 C322.625,92.4825057 322.4275,92.6112557 322.235,92.8050057 L322.2325,92.8075057 L316.45625,98.5825057 L318.34375,100.470006 C319.15,101.276256 319.76625,102.227506 320.1575,103.222506 C320.55125,104.218756 320.72625,105.251256 320.72625,106.242506 C320.70625,108.753756 319.69375,111.011256 318.00875,112.717506 L308.1375,122.591256 C306.5425,124.185006 304.3875,125.150006 302.07625,125.153756 C299.97625,125.170006 297.7825,124.287506 296.16625,122.645006 L296.16875,122.648756 L294.2775,120.758756 L289.32,125.716256 C289.08875,125.941256 288.78875,126.361256 288.59875,126.786256 C288.40125,127.211256 288.32,127.633756 288.325,127.843756 C288.325,127.968756 288.34375,128.016256 288.34375,128.016256 L288.25375,128.050006 L288.33375,127.998756 L288.34375,128.016256 L288.25375,128.050006 L288.33375,127.998756 L288.24625,128.055006 L288.3275,127.990006 L288.33375,127.998756 L288.24625,128.055006 L288.3275,127.990006 L288.32875,127.991256 L288.32625,127.988756 L296.86625,136.528756 C298.29625,137.958756 298.29625,140.276256 296.86625,141.706256 L292.31375,146.261256 L292.3125,146.263756 L292.28,146.323756 C292.26,146.377506 292.23125,146.491256 292.23125,146.658756 C292.23,146.878756 292.28375,147.182506 292.4125,147.486256 C292.54,147.790006 292.73625,148.086256 292.97375,148.323756 L304.21875,159.570006 C304.415,159.765006 304.53875,159.830006 304.59375,159.853756 L304.66125,159.873756 C304.67625,159.872506 304.735,159.873756 304.87375,159.808756 C305.01,159.746256 305.215,159.613756 305.44,159.387506 L309.99375,154.833756 C311.42375,153.403756 313.7425,153.403756 315.1725,154.833756 L325.80875,165.467506 C325.82125,165.477506 325.85125,165.511256 325.985,165.558756 C326.11375,165.606256 326.3425,165.651256 326.625,165.650006 C327.00625,165.653756 327.47875,165.565006 327.86375,165.416256 C328.25125,165.275006 328.5375,165.063756 328.59875,164.995006 L333.55625,160.037506 L329.9,156.381256 C329.185,155.667506 328.59125,154.835006 328.18875,153.916256 C327.785,153.000006 327.58625,152.006256 327.58875,151.057506 C327.58875,149.742506 327.94875,148.542506 328.465,147.522506 C328.98375,146.498756 329.66,145.628756 330.415,144.871256 L340.28875,134.998756 C341.0875,134.203756 342.01125,133.491256 343.09625,132.938756 C344.1775,132.392506 345.44375,131.995006 346.86625,131.992506 C347.76875,131.991256 348.725,132.163756 349.62875,132.542506 C350.5325,132.918756 351.37,133.495006 352.07625,134.202506 L355.735,137.860006 L361.51,132.083756 L361.65125,131.855006 C361.69375,131.746256 361.7275,131.593756 361.7275,131.412506 C361.72875,131.000006 361.55625,130.500006 361.165,130.113756 L350.5275,119.477506 C349.84625,118.795006 349.455,117.851256 349.455,116.887506 C349.455,115.922506 349.84625,114.980006 350.52875,114.297506 L355.90375,108.923756 L358.4925,111.513756" id="path338" fill="#231F20" transform="translate(325.025625, 128.987503) scale(-1, 1) rotate(-180.000000) translate(-325.025625, -128.987503) "></path>
            <path d="M405.513756,278.5625 L408.103756,275.975 L410.887506,278.75 L418.931256,270.7125 C420.731256,268.9125 423.081256,268 425.406256,268 C426.456256,268 427.506256,268.1875 428.506256,268.575 C429.506256,268.9625 430.456256,269.5625 431.256256,270.3625 L439.631256,278.725 C441.056256,280.1625 441.056256,282.475 439.631256,283.9125 L433.381256,290.15 L433.306256,290.25 L433.293756,290.2625 L433.168756,290.1875 L433.306256,290.225 L433.293756,290.2625 L433.168756,290.1875 L433.306256,290.225 L433.181256,290.1875 L433.318756,290.1875 L433.306256,290.225 L433.181256,290.1875 L433.318756,290.1875 C433.318756,290.1875 433.331256,290.3625 433.468756,290.6375 C433.606256,290.9125 433.856256,291.275 434.181256,291.5875 L434.181256,291.5875 L444.043756,301.4625 C444.343756,301.75 444.631256,301.9625 444.831256,302.05 L445.031256,302.1375 L445.068756,302.1375 L445.056256,302.1875 L445.056256,302.1375 L445.068756,302.1375 L445.056256,302.1875 L445.056256,302.1375 L445.056256,302.3375 L444.981256,302.15 L445.056256,302.1375 L445.056256,302.3375 L444.981256,302.15 C444.981256,302.15 445.043756,302.125 445.206256,301.975 L451.443756,295.725 C452.131256,295.05 453.068756,294.65 454.031256,294.65 C455.006256,294.65 455.943756,295.05 456.631256,295.725 L464.168756,303.275 C465.143756,304.2625 465.806256,305.3875 466.268756,306.59 C466.718756,307.79375 466.968756,309.08125 466.968756,310.4275 C466.968756,311.42375 466.831256,312.45875 466.468756,313.49125 C466.106256,314.52 465.518756,315.5525 464.643756,316.42125 L456.606256,324.46875 L458.568756,326.43375 C459.318756,327.19 459.968756,328.06625 460.443756,329.0675 C460.906256,330.06625 461.193756,331.20125 461.193756,332.39125 C461.193756,333.4075 460.981256,334.45125 460.556256,335.41375 C460.131256,336.3775 459.506256,337.255 458.743756,338.0125 L447.506256,349.2575 C446.568756,350.19375 445.481256,350.905 444.318756,351.3925 C443.168756,351.87875 441.931256,352.145 440.656256,352.14625 C439.693756,352.14625 438.706256,351.99 437.743756,351.62875 C436.793756,351.27125 435.856256,350.69875 435.081256,349.91625 L435.081256,349.91875 L433.118756,347.955 L427.168756,353.90625 L427.168756,353.91 C426.418756,354.66125 425.506256,355.225 424.581256,355.56875 C423.656256,355.915 422.718756,356.0525 421.843756,356.0525 C420.331256,356.0475 418.968756,355.66875 417.756256,355.12 C416.536256,354.5625 415.460006,353.82875 414.536256,352.91125 L406.991256,345.36625 C405.560006,343.93625 405.560006,341.61875 406.990006,340.1875 L411.467506,335.70625 L411.470006,335.70375 C411.802506,335.34875 411.812506,335.1925 411.828756,334.9775 C411.832506,334.7475 411.721256,334.405 411.411256,334.09375 L411.412506,334.095 L401.538756,324.2225 C401.218756,323.88 400.597506,323.63125 400.242506,323.65125 C400.098756,323.65125 399.997506,323.675 399.915006,323.70625 L399.648756,323.88875 L395.171256,328.36625 C394.490006,329.0475 393.546256,329.43875 392.582506,329.43875 C391.617506,329.43875 390.673756,329.0475 389.992506,328.365 L381.627506,319.99875 L381.630006,320.00125 C380.843756,319.21625 380.195006,318.30125 379.732506,317.27625 C379.271256,316.2525 379.000006,315.11125 379.000006,313.92125 C378.998756,312.9025 379.203756,311.8525 379.623756,310.86875 C380.041256,309.88375 380.670006,308.9725 381.453756,308.19 L387.402506,302.2375 L384.617506,299.45 C383.726256,298.5625 383.127506,297.525 382.740006,296.45 C382.355006,295.375 382.175006,294.2625 382.173756,293.15 C382.175006,292 382.365006,290.8375 382.782506,289.7125 C383.198756,288.5875 383.853756,287.4875 384.795006,286.5375 L384.792506,286.55 L396.038756,275.3 C396.781256,274.55 397.667506,273.9625 398.605006,273.5875 C399.542506,273.2125 400.517506,273.05 401.441256,273.05 C402.816256,273.05 404.072506,273.4 405.180006,273.9125 C406.288756,274.4375 407.265006,275.1375 408.102506,275.975 L405.513756,278.5625 L402.925006,281.15 C402.677506,280.9 402.356256,280.675 402.070006,280.5375 C401.782506,280.4125 401.545006,280.3625 401.441256,280.375 L401.340006,280.3875 L401.218756,280.475 L389.971256,291.725 L389.970006,291.725 C389.862506,291.8375 389.743756,292 389.650006,292.2625 C389.556256,292.5125 389.497506,292.825 389.498756,293.15 C389.497506,293.4625 389.553756,293.7625 389.630006,293.9625 C389.703756,294.175 389.790006,294.275 389.795006,294.275 L395.171256,299.65 C395.853756,300.3375 396.243756,301.275 396.243756,302.2375 C396.243756,303.2 395.853756,304.15 395.171256,304.825 L386.631256,313.37 C386.457506,313.545 386.396256,313.66125 386.362506,313.73625 L386.323756,313.92125 C386.323756,313.99625 386.340006,314.11 386.411256,314.27 C386.482506,314.4275 386.610006,314.625 386.803756,314.8175 L386.806256,314.82 L392.582506,320.5975 L394.470006,318.70875 C395.275006,317.9025 396.226256,317.2875 397.222506,316.895 C398.218756,316.50125 399.250006,316.32625 400.242506,316.32625 C402.753756,316.34625 405.010006,317.36 406.717506,319.04375 L416.591256,328.91625 L416.593756,328.9175 C418.181256,330.51 419.156256,332.665 419.156256,334.9775 C419.168756,337.07625 418.281256,339.27125 416.645006,340.8875 L416.648756,340.88375 L414.758756,342.775 L419.718756,347.7325 C419.943756,347.96375 420.356256,348.265 420.781256,348.45375 C421.206256,348.6525 421.631256,348.73375 421.843756,348.7275 C421.968756,348.7275 422.018756,348.70875 422.018756,348.71 L422.043756,348.79875 L421.993756,348.71875 L422.018756,348.71 L422.043756,348.79875 L421.993756,348.71875 L422.056256,348.80625 L421.993756,348.725 L421.993756,348.71875 L422.056256,348.80625 L421.993756,348.725 L421.993756,348.72375 L421.993756,348.7275 L430.531256,340.18625 C431.956256,338.75625 434.281256,338.75625 435.706256,340.18625 L440.256256,344.73875 L440.268756,344.74125 L440.318756,344.7725 C440.381256,344.79375 440.493756,344.82125 440.656256,344.82125 C440.881256,344.8225 441.181256,344.76875 441.481256,344.64 C441.793756,344.51375 442.081256,344.3175 442.318756,344.07875 L453.568756,332.83375 C453.768756,332.63875 453.831256,332.515 453.856256,332.46 L453.868756,332.39125 C453.868756,332.37625 453.868756,332.31875 453.806256,332.17875 C453.743756,332.04375 453.618756,331.8375 453.393756,331.61375 L448.831256,327.05875 C447.406256,325.62875 447.406256,323.31 448.831256,321.88 L459.468756,311.24375 C459.481256,311.2325 459.506256,311.2025 459.556256,311.06875 C459.606256,310.93875 459.656256,310.71125 459.656256,310.4275 C459.656256,310.04625 459.568756,309.57375 459.418756,309.18875 C459.268756,308.80125 459.068756,308.515 458.993756,308.45375 L454.031256,303.5 L450.381256,307.1525 C449.668756,307.86875 448.831256,308.4625 447.918756,308.86375 C446.993756,309.2675 446.006256,309.4675 445.056256,309.465 C443.743756,309.46375 442.543756,309.105 441.518756,308.58875 C440.493756,308.06875 439.631256,307.3925 438.868756,306.6375 L428.993756,296.7625 L429.006256,296.7625 C428.206256,295.9625 427.493756,295.0375 426.943756,293.9625 C426.393756,292.875 425.993756,291.6125 425.993756,290.1875 C425.993756,289.2875 426.168756,288.325 426.543756,287.425 C426.918756,286.525 427.493756,285.6875 428.206256,284.975 L431.856256,281.3125 L426.081256,275.5375 L425.856256,275.4 C425.743756,275.3625 425.593756,275.325 425.406256,275.325 C425.006256,275.325 424.493756,275.5 424.118756,275.8875 L413.476256,286.525 C412.795006,287.2125 411.851256,287.6 410.887506,287.6 C409.922506,287.6 408.978756,287.2125 408.297506,286.525 L402.923756,281.15 L405.513756,278.5625" id="path340" fill="#231F20" transform="translate(422.984378, 312.026250) scale(-1, 1) rotate(-180.000000) translate(-422.984378, -312.026250) "></path>
            <polyline id="path342" fill="#231F20" transform="translate(234.264375, 175.264375) scale(-1, 1) rotate(-180.000000) translate(-234.264375, -175.264375) " points="222 182.35 241.35 163 246.52875 168.17875 227.18 187.52875"></polyline>
            <polyline id="path344" fill="#231F20" transform="translate(234.264375, 175.264375) scale(-1, 1) rotate(-180.000000) translate(-234.264375, -175.264375) " points="227.18 163 246.52875 182.35 241.35 187.52875 222 168.17875"></polyline>
            <polyline id="path346" fill="#231F20" transform="translate(578.268750, 63.264375) scale(-1, 1) rotate(-180.000000) translate(-578.268750, -63.264375) " points="566 70.35 585.35 51 590.5375 56.18 571.1875 75.52875"></polyline>
            <polyline id="path348" fill="#231F20" transform="translate(578.268750, 63.264375) scale(-1, 1) rotate(-180.000000) translate(-578.268750, -63.264375) " points="571.1875 51 590.5375 70.35 585.35 75.52875 566 56.18"></polyline>
            <polyline id="path350" fill="#231F20" transform="translate(594.262500, 324.261250) scale(-1, 1) rotate(-180.000000) translate(-594.262500, -324.261250) " points="582 331.34375 601.35 312 606.525 317.175 587.175 336.5225"></polyline>
            <polyline id="path352" fill="#231F20" transform="translate(594.262500, 324.261250) scale(-1, 1) rotate(-180.000000) translate(-594.262500, -324.261250) " points="587.175 312 606.525 331.34375 601.35 336.5225 582 317.175"></polyline>
            <polyline id="path354" fill="#231F20" transform="translate(356.264375, 241.263750) scale(-1, 1) rotate(-180.000000) translate(-356.264375, -241.263750) " points="344 248.34875 363.35 229 368.52875 234.17875 349.18 253.5275"></polyline>
            <polyline id="path356" fill="#231F20" transform="translate(356.264375, 241.263750) scale(-1, 1) rotate(-180.000000) translate(-356.264375, -241.263750) " points="349.18 229 368.52875 248.34875 363.35 253.5275 344 234.17875"></polyline>
            <polyline id="path358" fill="#231F20" transform="translate(433.262500, 128.264375) scale(-1, 1) rotate(-180.000000) translate(-433.262500, -128.264375) " points="421 135.35 440.35 116 445.525 121.18 426.175 140.52875"></polyline>
            <polyline id="path360" fill="#231F20" transform="translate(433.262500, 128.264375) scale(-1, 1) rotate(-180.000000) translate(-433.262500, -128.264375) " points="426.175 116 445.525 135.35 440.35 140.52875 421 121.18"></polyline>
            <polyline id="path362" fill="#231F20" transform="translate(475.268750, 206.264375) scale(-1, 1) rotate(-180.000000) translate(-475.268750, -206.264375) " points="463 213.34875 482.35 194 487.5375 199.17875 468.1875 218.52875"></polyline>
            <polyline id="path364" fill="#231F20" transform="translate(475.268750, 206.264375) scale(-1, 1) rotate(-180.000000) translate(-475.268750, -206.264375) " points="468.1875 194 487.5375 213.34875 482.35 218.52875 463 199.17875"></polyline>
            <polygon id="path366" fill="#F1F2F2" transform="translate(553.125000, 272.750000) scale(-1, 1) rotate(-180.000000) translate(-553.125000, -272.750000) " points="545 264 561.25 264 561.25 281.5 545 281.5"></polygon>
            <path d="M561,264.75 L561,268.5 L548.5,268.5 L548.5,278.5 L557.25,278.5 L557.25,264.75 L561,264.75 L561,268.5 L561,264.75 L564.75,264.75 L564.75,282.25 C564.75,283.2375 564.35,284.20375 563.65,284.90125 C562.95,285.6 561.9875,286 561,286 L544.75,286 C543.7625,286 542.8,285.6 542.1,284.90125 C541.4,284.20375 541,283.2375 541,282.25 L541,264.75 C541,263.7625 541.4,262.79625 542.1,262.09875 C542.8,261.4 543.7625,261 544.75,261 L561,261 C561.9875,261 562.95,261.4 563.65,262.09875 C564.35,262.79625 564.75,263.7625 564.75,264.75 L561,264.75" id="path368" fill="#231F20" transform="translate(552.875000, 273.500000) scale(-1, 1) rotate(-180.000000) translate(-552.875000, -273.500000) "></path>
            <polygon id="path370" fill="#231F20" transform="translate(525.750000, 370.750000) scale(-1, 1) rotate(-180.000000) translate(-525.750000, -370.750000) " points="512 367 539.5 367 539.5 374.5 512 374.5"></polygon>
            <polygon id="path372" fill="#231F20" transform="translate(500.375000, 370.750000) scale(-1, 1) rotate(-180.000000) translate(-500.375000, -370.750000) " points="496 367 504.75 367 504.75 374.5 496 374.5"></polygon>
            <polygon id="path374" fill="#231F20" transform="translate(525.750000, 352.750000) scale(-1, 1) rotate(-180.000000) translate(-525.750000, -352.750000) " points="512 349 539.5 349 539.5 356.5 512 356.5"></polygon>
            <polygon id="path376" fill="#231F20" transform="translate(500.375000, 352.750000) scale(-1, 1) rotate(-180.000000) translate(-500.375000, -352.750000) " points="496 349 504.75 349 504.75 356.5 496 356.5"></polygon>
            <polygon id="path378" fill="#231F20" transform="translate(525.750000, 332.750000) scale(-1, 1) rotate(-180.000000) translate(-525.750000, -332.750000) " points="512 329 539.5 329 539.5 336.5 512 336.5"></polygon>
            <polygon id="path380" fill="#231F20" transform="translate(500.375000, 332.750000) scale(-1, 1) rotate(-180.000000) translate(-500.375000, -332.750000) " points="496 329 504.75 329 504.75 336.5 496 336.5"></polygon>
            <polygon id="path382" fill="#231F20" transform="translate(483.750000, 72.750000) scale(-1, 1) rotate(-180.000000) translate(-483.750000, -72.750000) " points="470 69 497.5 69 497.5 76.5 470 76.5"></polygon>
            <polygon id="path384" fill="#231F20" transform="translate(458.375000, 72.750000) scale(-1, 1) rotate(-180.000000) translate(-458.375000, -72.750000) " points="454 69 462.75 69 462.75 76.5 454 76.5"></polygon>
            <polygon id="path386" fill="#231F20" transform="translate(483.750000, 54.750000) scale(-1, 1) rotate(-180.000000) translate(-483.750000, -54.750000) " points="470 51 497.5 51 497.5 58.5 470 58.5"></polygon>
            <polygon id="path388" fill="#231F20" transform="translate(458.375000, 54.750000) scale(-1, 1) rotate(-180.000000) translate(-458.375000, -54.750000) " points="454 51 462.75 51 462.75 58.5 454 58.5"></polygon>
            <polygon id="path390" fill="#231F20" transform="translate(483.750000, 34.750000) scale(-1, 1) rotate(-180.000000) translate(-483.750000, -34.750000) " points="470 31 497.5 31 497.5 38.5 470 38.5"></polygon>
            <polygon id="path392" fill="#231F20" transform="translate(458.375000, 34.750000) scale(-1, 1) rotate(-180.000000) translate(-458.375000, -34.750000) " points="454 31 462.75 31 462.75 38.5 454 38.5"></polygon>
            <polygon id="path394" fill="#231F20" transform="translate(290.750000, 285.750000) scale(-1, 1) rotate(-180.000000) translate(-290.750000, -285.750000) " points="277 282 304.5 282 304.5 289.5 277 289.5"></polygon>
            <polygon id="path396" fill="#231F20" transform="translate(265.375000, 285.750000) scale(-1, 1) rotate(-180.000000) translate(-265.375000, -285.750000) " points="261 282 269.75 282 269.75 289.5 261 289.5"></polygon>
            <polygon id="path398" fill="#231F20" transform="translate(290.750000, 266.750000) scale(-1, 1) rotate(-180.000000) translate(-290.750000, -266.750000) " points="277 263 304.5 263 304.5 270.5 277 270.5"></polygon>
            <polygon id="path400" fill="#231F20" transform="translate(265.375000, 266.750000) scale(-1, 1) rotate(-180.000000) translate(-265.375000, -266.750000) " points="261 263 269.75 263 269.75 270.5 261 270.5"></polygon>
            <polygon id="path402" fill="#231F20" transform="translate(290.750000, 246.750000) scale(-1, 1) rotate(-180.000000) translate(-290.750000, -246.750000) " points="277 243 304.5 243 304.5 250.5 277 250.5"></polygon>
            <polygon id="path404" fill="#231F20" transform="translate(265.375000, 246.750000) scale(-1, 1) rotate(-180.000000) translate(-265.375000, -246.750000) " points="261 243 269.75 243 269.75 250.5 261 250.5"></polygon>
            <path d="M157.75,122 L157.75,179.06375 C157.75,188.165 149.93375,195.75 140.83125,195.75 L60.265,195.75 C51.1625,195.75 44,188.165 44,179.06375 L44,122 L157.75,122" id="path406" fill="#BCBEC0" transform="translate(100.875000, 158.875000) scale(-1, 1) rotate(-180.000000) translate(-100.875000, -158.875000) "></path>
            <polyline id="path408" fill="#6BCB93" transform="translate(100.875000, 315.317500) scale(-1, 1) rotate(-180.000000) translate(-100.875000, -315.317500) " points="44 251 157.75 310.05 157.75 379.635 44 317.8375 44 251"></polyline>
            <polyline id="path410" fill="#F1F2F2" transform="translate(100.875000, 403.287500) scale(-1, 1) rotate(-180.000000) translate(-100.875000, -403.287500) " points="44 320 157.75 320 157.75 486.575 44 427.525 44 320"></polyline>
            <path d="M43.75,319.75 L43.75,316 L157.5,316 C158.4875,316 159.45375,316.399875 160.15125,317.100125 C160.85,317.79975 161.25,318.76275 161.25,319.75 L161.25,486.325 C161.25,487.65 160.57125,488.85125 159.4475,489.535 C158.3225,490.2175 156.94,490.26375 155.7725,489.65875 L42.0225,430.6125 C40.78,429.9625 40,428.675 40,427.275 L40,319.75 C40,318.76275 40.4,317.79975 41.09875,317.100125 C41.79625,316.399875 42.7625,316 43.75,316 L43.75,319.75 L47.5,319.75 L47.5,425 L153.75,480.1625 L153.75,323.5 L43.75,323.5 L43.75,319.75 L47.5,319.75 L43.75,319.75" id="path412" fill="#231F20" transform="translate(100.625000, 403.040896) scale(-1, 1) rotate(-180.000000) translate(-100.625000, -403.040896) "></path>
            <polyline id="path414" fill="#F1F2F2" transform="translate(100.875000, 271.943750) scale(-1, 1) rotate(-180.000000) translate(-100.875000, -271.943750) " points="44 312.8875 44 231 157.75 292.7975 157.75 312.8875 44 312.8875"></polyline>
            <path d="M43.75,312.640227 L40,312.640227 L40,230.752727 C40,229.423977 40.6925,228.207727 41.8325,227.528977 C42.97375,226.850227 44.37375,226.822727 45.54,227.457727 L159.29,289.255227 C160.49875,289.912727 161.25,291.175227 161.25,292.550227 L161.25,312.640227 C161.25,313.627727 160.85,314.593977 160.15125,315.291477 C159.45375,315.990227 158.4875,316.390227 157.5,316.390227 L43.75,316.390227 C42.7625,316.390227 41.79625,315.990227 41.09875,315.291477 C40.4,314.593977 40,313.627727 40,312.640227 L43.75,312.640227 L43.75,308.890227 L153.75,308.890227 L153.75,294.781477 L47.5,237.057727 L47.5,312.640227 L43.75,312.640227 L43.75,308.890227 L43.75,312.640227" id="path416" fill="#231F20" transform="translate(100.625000, 271.695114) scale(-1, 1) rotate(-180.000000) translate(-100.625000, -271.695114) "></path>
            <polygon id="path418" fill="#BCBEC0" transform="translate(101.500000, 213.500000) scale(-1, 1) rotate(-180.000000) translate(-101.500000, -213.500000) " points="29 196 174 196 174 231 29 231"></polygon>
            <path d="M173.75,230.75 L173.75,234.5 L28.75,234.5 C27.7625,234.5 26.79625,234.1 26.09875,233.40125 C25.4,232.70375 25,231.7375 25,230.75 L25,195.75 C25,194.7625 25.4,193.79625 26.09875,193.09875 C26.79625,192.4 27.7625,192 28.75,192 L173.75,192 C174.7375,192 175.70375,192.4 176.40125,193.09875 C177.1,193.79625 177.5,194.7625 177.5,195.75 L177.5,230.75 C177.5,231.7375 177.1,232.70375 176.40125,233.40125 C175.70375,234.1 174.7375,234.5 173.75,234.5 L173.75,230.75 L170,230.75 L170,199.5 L32.5,199.5 L32.5,227 L173.75,227 L173.75,230.75 L170,230.75 L173.75,230.75" id="path420" fill="#231F20" transform="translate(101.250000, 213.250000) scale(-1, 1) rotate(-180.000000) translate(-101.250000, -213.250000) "></path>
            <polygon id="path422" fill="#A7A9AC" transform="translate(105.000000, 462.750000) scale(-1, 1) rotate(-180.000000) translate(-105.000000, -462.750000) " points="80 439 130 439 130 486.5 80 486.5"></polygon>
            <path d="M129.75,439.75 L129.75,443.5 L83.5,443.5 L83.5,483.5 L126,483.5 L126,439.75 L129.75,439.75 L129.75,443.5 L129.75,439.75 L133.5,439.75 L133.5,487.25 C133.5,488.2375 133.1,489.2 132.40125,489.9 C131.70375,490.6 130.7375,491 129.75,491 L79.75,491 C78.7625,491 77.79625,490.6 77.09875,489.9 C76.4,489.2 76,488.2375 76,487.25 L76,439.75 C76,438.76275 76.4,437.79975 77.09875,437.100125 C77.79625,436.399875 78.7625,436 79.75,436 L129.75,436 C130.7375,436 131.70375,436.399875 132.40125,437.100125 C133.1,437.79975 133.5,438.76275 133.5,439.75 L129.75,439.75" id="path424" fill="#231F20" transform="translate(104.750000, 463.500000) scale(-1, 1) rotate(-180.000000) translate(-104.750000, -463.500000) "></path>
            <polygon id="path426" fill="#231F20" transform="translate(103.750000, 450.875000) scale(-1, 1) rotate(-180.000000) translate(-103.750000, -450.875000) " points="100 439 107.5 439 107.5 462.75 100 462.75"></polygon>
            <polygon id="path428" fill="#FFFFFF" transform="translate(100.875000, 163.625000) scale(-1, 1) rotate(-180.000000) translate(-100.875000, -163.625000) " points="44 148 157.75 148 157.75 179.25 44 179.25"></polygon>
            <path d="M157.5,147.75 L157.5,151.5 L47.5,151.5 L47.5,175.25 L153.75,175.25 L153.75,147.75 L157.5,147.75 L157.5,151.5 L157.5,147.75 L161.25,147.75 L161.25,179 C161.25,179.9875 160.85,180.95375 160.15125,181.65125 C159.45375,182.35 158.4875,182.75 157.5,182.75 L43.75,182.75 C42.7625,182.75 41.79625,182.35 41.09875,181.65125 C40.4,180.95375 40,179.9875 40,179 L40,147.75 C40,146.7625 40.4,145.79625 41.09875,145.09875 C41.79625,144.4 42.7625,144 43.75,144 L157.5,144 C158.4875,144 159.45375,144.4 160.15125,145.09875 C160.85,145.79625 161.25,146.7625 161.25,147.75 L157.5,147.75" id="path430" fill="#231F20" transform="translate(100.625000, 163.375000) scale(-1, 1) rotate(-180.000000) translate(-100.625000, -163.375000) "></path>
            <polygon id="path432" fill="#231F20" transform="translate(99.750000, 97.375000) scale(-1, 1) rotate(-180.000000) translate(-99.750000, -97.375000) " points="96 73 103.5 73 103.5 121.75 96 121.75"></polygon>
            <polygon id="path434" fill="#231F20" transform="translate(68.750000, 163.625000) scale(-1, 1) rotate(-180.000000) translate(-68.750000, -163.625000) " points="65 148 72.5 148 72.5 179.25 65 179.25"></polygon>
            <polygon id="path436" fill="#231F20" transform="translate(98.750000, 163.625000) scale(-1, 1) rotate(-180.000000) translate(-98.750000, -163.625000) " points="95 148 102.5 148 102.5 179.25 95 179.25"></polygon>
            <polygon id="path438" fill="#231F20" transform="translate(129.750000, 163.625000) scale(-1, 1) rotate(-180.000000) translate(-129.750000, -163.625000) " points="126 148 133.5 148 133.5 179.25 126 179.25"></polygon>
        </g>
    </g>
</svg>