<?xml version="1.0" encoding="UTF-8"?>
<svg width="505px" height="440px" viewBox="0 0 505 440" version="1.1" xmlns="http://www.w3.org/2000/svg" xmlns:xlink="http://www.w3.org/1999/xlink">
    <!-- Generator: Sketch 47.1 (45422) - http://www.bohemiancoding.com/sketch -->
    <title>Group 9</title>
    <desc>Created with Sketch.</desc>
    <defs>
        <linearGradient x1="50%" y1="0%" x2="50%" y2="100%" id="linearGradient-1">
            <stop stop-color="#677AEE" offset="0%"></stop>
            <stop stop-color="#20A9F5" offset="100%"></stop>
        </linearGradient>
    </defs>
    <g id="Page-1" stroke="none" stroke-width="1" fill="none" fill-rule="evenodd">
        <g id="Group-9" transform="translate(3.000000, 3.000000)" fill-rule="nonzero">
            <g id="Group-8">
                <path d="M94.72205,21.3156 C96.4441,22.40525 101.92955,23.83435 105.183,25.56725 L118.6866,12.16285 C119.95915,10.88875 122.07955,10.88875 123.3428,12.16285 L142.5752,31.37665 C143.84155,32.64455 143.8524,34.70605 142.5783,35.97085 L129.1832,48.83585 C130.91765,52.0862 132.3545,55.11025 133.4426,58.5559 L152.4053,58.5559 C154.2002,58.5559 155,61.1041 155,62.9083 L155,90.06895 C155,91.87005 154.2002,94.72205 152.4053,94.72205 L133.4426,94.72205 C132.3545,99.8882 130.9254,101.03985 129.19095,104.28865 L142.59535,117.3505 C143.86635,118.6215 143.86635,120.49855 142.59535,121.77575 L123.38,140.8888 C122.1121,142.17065 120.0568,142.1288 118.78735,140.8485 L105.183,127.42395 C101.92955,129.15685 96.4441,130.5627 94.72205,131.6694 L94.72205,150.6228 C94.72205,152.41615 93.6603,155 91.8592,155 L64.68925,155 C62.89745,155 60.27795,152.41615 60.27795,150.6228 L60.27795,131.6694 C55.11025,130.5627 53.83925,129.13205 50.60595,127.40225 L37.479,140.80355 C36.21265,142.08385 34.29065,142.08385 33.02275,140.80355 L13.8756,121.60215 C12.6077,120.3234 12.64335,118.2681 13.91435,116.9971 L27.34975,104.28865 C25.6153,101.03985 24.1955,99.8882 23.10275,94.72205 L4.154,94.72205 C2.3529,94.72205 0,91.87005 0,90.06895 L0,62.9083 C0,61.1041 2.3529,58.5559 4.154,58.5559 L23.10275,58.5559 C24.1955,55.11025 25.6339,52.0862 27.373,48.83585 L13.94845,35.69185 C12.679,34.43325 12.679,32.50815 13.94845,31.2356 L33.17,12.0931 C34.43635,10.82055 36.50405,10.84845 37.7673,12.12875 L50.60595,25.5502 C53.83925,23.81575 55.11025,22.40525 60.27795,21.3156 L60.27795,2.356 C60.27795,0.558 62.89745,0 64.68925,0 L91.8592,0 C93.6603,0 94.72205,0.558 94.72205,2.356 L94.72205,21.3156 Z" id="path492" stroke="#000000" stroke-width="6" fill="#E6E7E8" transform="translate(77.500000, 77.500000) scale(-1, 1) rotate(-180.000000) translate(-77.500000, -77.500000) "></path>
                <path d="M77.4961051,55 C63.9681727,55 53,65.9771716 53,79.5 C53,93.0275022 63.9681727,104 77.4961051,104 C91.0318273,104 102,93.0275022 102,79.5 C102,65.9771716 91.0318273,55 77.4961051,55" id="path496" fill="#A7A9AC" transform="translate(77.500000, 79.500000) scale(-1, 1) rotate(-180.000000) translate(-77.500000, -79.500000) "></path>
            </g>
            <g id="Group-2" transform="translate(84.000000, 33.000000)">
                <path d="M208.37625,349.7525 C206.8175,350.13375 205.57375,350.45625 203.87625,350.45625 L20.7375,350.45625 C10.54625,350.45625 4,343.00625 4,334.0725 L4,30 L194.445,30 L194.445,334.0725 C194.445,341.51375 200.57625,347.8625 208.37625,349.7525" id="path168" fill="#FFFFFF" transform="translate(106.188125, 190.228125) scale(-1, 1) rotate(-180.000000) translate(-106.188125, -190.228125) "></path>
                <path d="M208.038759,349.415 L208.907509,352.97375 C208.142509,353.15875 207.368759,353.35625 206.483759,353.515 C205.602509,353.67375 204.618759,353.78125 203.538759,353.78 L20.4000094,353.78 C14.4112594,353.795 9.18750942,351.5375 5.59000942,347.83625 C1.98000942,344.145 -0.00499057717,339.09375 9.42283438e-06,333.735 L9.42283438e-06,29.6625 C9.42283438e-06,28.6875 0.390009423,27.75 1.07250942,27.0625 C1.75500942,26.3875 2.69750942,26 3.66250942,26 L194.107509,26 C195.072509,26 196.015009,26.3875 196.697509,27.0625 C197.380009,27.75 197.770009,28.6875 197.770009,29.6625 L197.770009,333.735 C197.772509,336.43125 198.868759,338.99875 200.856259,341.19125 C202.835009,343.3725 205.697509,345.08375 208.901259,345.85625 C210.545009,346.25375 211.700009,347.72 211.701259,349.4125 C211.702509,351.10375 210.551259,352.57125 208.907509,352.97375 L208.038759,349.415 L207.176259,352.975 C202.578759,351.85625 198.476259,349.44875 195.440009,346.12375 C192.412509,342.80875 190.443759,338.48125 190.446259,333.735 L190.446259,33.3125 L7.32500942,33.3125 L7.32500942,333.735 C7.32875942,337.31 8.61750942,340.45 10.8287594,342.7175 C13.0525094,344.97375 16.1975094,346.44 20.4000094,346.455 L203.538759,346.455 C204.156259,346.455 204.643759,346.40125 205.197509,346.30375 C205.747509,346.20625 206.375009,346.0525 207.170009,345.8575 L208.038759,349.415 L207.176259,352.975 L208.038759,349.415" id="path170" fill="#231F20" transform="translate(105.850630, 189.890037) scale(-1, 1) rotate(-180.000000) translate(-105.850630, -189.890037) "></path>
                <path d="M209,5.025 C210.5625,4.6375 212.4025,4 214.10375,4 L397.2375,4 C407.4225,4 414.61125,12.0875 414.61125,21.025 L414.61125,326.2925 L222.335,326.2925 L222.335,21.025 C222.335,13.5875 216.79625,6.9 209,5.025" id="path172" fill="#FFFFFF" transform="translate(311.805625, 165.146250) scale(-1, 1) rotate(-180.000000) translate(-311.805625, -165.146250) "></path>
                <path d="M208.662509,4.68754737 L207.787509,1.13754737 C208.437509,0.975047367 209.306259,0.712547367 210.306259,0.475047367 C211.310009,0.237547367 212.455009,4.73666167e-05 213.766259,4.73666167e-05 L396.900009,4.73666167e-05 C402.973759,-0.0124526334 408.308759,2.45004737 412.025009,6.26254737 C415.750009,10.0750474 417.935009,15.2375474 417.936259,20.6875474 L417.936259,325.955047 C417.936259,326.918797 417.546259,327.862547 416.863759,328.545047 C416.182509,329.226297 415.238759,329.617547 414.273759,329.617547 L221.997509,329.617547 C221.032509,329.617547 220.090009,329.226297 219.407509,328.545047 C218.725009,327.862547 218.335009,326.918797 218.335009,325.955047 L218.335009,20.6875474 C218.335009,17.8875474 217.293759,15.1750474 215.438759,12.9500474 C213.583759,10.7125474 210.931259,9.00004737 207.803759,8.25004737 C206.158759,7.85004737 205.003759,6.38754737 205.000009,4.70004737 C204.996259,3.00004737 206.143759,1.53754737 207.787509,1.13754737 L208.662509,4.68754737 L209.520009,1.12504737 C214.190009,2.25004737 218.205009,4.82504737 221.068759,8.26254737 C223.931259,11.7000474 225.660009,16.0500474 225.660009,20.6875474 L225.660009,322.292547 L410.612509,322.292547 L410.612509,20.6875474 C410.615009,17.2125474 409.203759,13.8500474 406.787509,11.3875474 C404.362509,8.92504737 401.011259,7.33754737 396.900009,7.32504737 L213.766259,7.32504737 C213.376259,7.32504737 212.750009,7.41254737 212.017509,7.58754737 C211.281259,7.76254737 210.450009,8.01254737 209.536259,8.25004737 L208.662509,4.68754737 L209.520009,1.12504737 L208.662509,4.68754737" id="path174" fill="#231F20" transform="translate(311.468130, 164.808774) scale(-1, 1) rotate(-180.000000) translate(-311.468130, -164.808774) "></path>
                <path d="M208.73125,325.3975 C200.93375,323.5125 195,317.26375 195,309.8225 L195,46.575 C195,39.1375 200.93375,32.8875 208.73375,31 C216.535,32.8875 222.46875,39.1375 222.46875,46.575 L222.46875,309.8225 C222.46875,317.26375 216.535,323.5125 208.73125,325.3975" id="path176" fill="#A7A9AC" transform="translate(208.734375, 178.198750) scale(-1, 1) rotate(-180.000000) translate(-208.734375, -178.198750) "></path>
                <path d="M208.39251,325.050625 L207.53126,328.610625 C202.94251,327.498125 198.87251,325.111875 195.88251,321.798125 C192.89626,318.496875 190.99501,314.185625 191.00001,309.475625 L191.00001,46.228125 C190.99501,41.515625 192.89626,37.203125 195.88251,33.903125 C198.87376,30.590625 202.94501,28.203125 207.53626,27.103125 C208.10001,26.965625 208.69126,26.965625 209.25501,27.103125 C213.84626,28.203125 217.91751,30.590625 220.90876,33.903125 C223.89501,37.203125 225.79626,41.515625 225.79251,46.228125 L225.79251,309.475625 C225.79626,314.185625 223.89501,318.498125 220.90751,321.799375 C217.91626,325.111875 213.84376,327.498125 209.25126,328.610625 C208.68876,328.746875 208.09501,328.746875 207.53126,328.610625 L208.39251,325.050625 L207.53251,321.490625 C210.74376,320.718125 213.54126,319.036875 215.46751,316.894375 C217.39876,314.740625 218.46376,312.206875 218.46751,309.475625 L218.46751,46.228125 C218.46376,43.503125 217.39751,40.965625 215.46751,38.815625 C213.54251,36.665625 210.74626,34.990625 207.53626,34.215625 L208.39501,30.653125 L209.25501,34.215625 C206.04501,34.990625 203.25001,36.665625 201.32376,38.815625 C199.39376,40.965625 198.32876,43.503125 198.32376,46.228125 L198.32376,309.475625 C198.32876,312.206875 199.39376,314.740625 201.32376,316.895625 C203.24876,319.038125 206.04501,320.718125 209.25251,321.490625 L208.39251,325.050625 L207.53251,321.490625 L208.39251,325.050625" id="path178" fill="#231F20" transform="translate(208.396258, 177.856406) scale(-1, 1) rotate(-180.000000) translate(-208.396258, -177.856406) "></path>
                <polygon id="path182" fill="#231F20" transform="translate(201.409437, 53.662356) scale(-1, 1) rotate(-180.000000) translate(-201.409437, -53.662356) " points="195 50 207.818875 50 207.818875 57.3247125 195 57.3247125"></polygon>
                <polygon id="path186" fill="#231F20" transform="translate(201.409437, 300.662356) scale(-1, 1) rotate(-180.000000) translate(-201.409437, -300.662356) " points="195 297 207.818875 297 207.818875 304.324713 195 304.324713"></polygon>
                <polygon id="path190" fill="#231F20" transform="translate(44.649875, 66.662600) scale(-1, 1) rotate(-180.000000) translate(-44.649875, -66.662600) " points="30 63 59.29975 63 59.29975 70.3252 30 70.3252"></polygon>
                <polygon id="path194" fill="#231F20" transform="translate(99.586250, 84.662600) scale(-1, 1) rotate(-180.000000) translate(-99.586250, -84.662600) " points="30 81 169.1725 81 169.1725 88.3252 30 88.3252"></polygon>
                <polygon id="path198" fill="#231F20" transform="translate(48.312500, 295.662600) scale(-1, 1) rotate(-180.000000) translate(-48.312500, -295.662600) " points="30 292 66.625 292 66.625 299.3252 30 299.3252"></polygon>
                <polygon id="path202" fill="#231F20" transform="translate(103.481437, 295.662600) scale(-1, 1) rotate(-180.000000) translate(-103.481437, -295.662600) " points="87 292 119.962875 292 119.962875 299.3252 87 299.3252"></polygon>
                <polygon id="path206" fill="#231F20" transform="translate(286.708750, 236.662600) scale(-1, 1) rotate(-180.000000) translate(-286.708750, -236.662600) " points="251 233 322.4175 233 322.4175 240.3252 251 240.3252"></polygon>
                <polygon id="path210" fill="#231F20" transform="translate(347.986813, 236.662600) scale(-1, 1) rotate(-180.000000) translate(-347.986813, -236.662600) " points="337 233 358.973625 233 358.973625 240.3252 337 240.3252 337 233"></polygon>
                <polygon id="path214" fill="#231F20" transform="translate(359.468000, 287.662356) scale(-1, 1) rotate(-180.000000) translate(-359.468000, -287.662356) " points="332 284 386.936 284 386.936 291.324713 332 291.324713 332 284"></polygon>
                <polygon id="path218" fill="#231F20" transform="translate(318.755000, 262.661862) scale(-1, 1) rotate(-180.000000) translate(-318.755000, -262.661862) " points="251 259 386.51 259 386.51 266.323725 251 266.323725 251 259"></polygon>
                <polygon id="path222" fill="#231F20" transform="translate(310.156250, 287.662356) scale(-1, 1) rotate(-180.000000) translate(-310.156250, -287.662356) " points="301 284 319.3125 284 319.3125 291.324713 301 291.324713"></polygon>
                <polygon id="path226" fill="#231F20" transform="translate(307.649437, 29.662600) scale(-1, 1) rotate(-180.000000) translate(-307.649437, -29.662600) " points="293 26 322.298875 26 322.298875 33.3252 293 33.3252"></polygon>
                <polygon id="path230" fill="#231F20" transform="translate(307.649437, 47.662356) scale(-1, 1) rotate(-180.000000) translate(-307.649437, -47.662356) " points="293 44 322.298875 44 322.298875 51.3247125 293 51.3247125"></polygon>
                <path d="M283.66375,36.83 C283.66375,27.535 276.13,20 266.83125,20 C257.535,20 250,27.535 250,36.83 C250,46.1275 257.535,53.665 266.83125,53.665 C276.13,53.665 283.66375,46.1275 283.66375,36.83" id="path232" fill="#6BCB93" transform="translate(266.831875, 36.832500) scale(-1, 1) rotate(-180.000000) translate(-266.831875, -36.832500) "></path>
                <polygon id="path234" fill="#E6E7E8" transform="translate(318.755000, 95.805688) scale(-1, 1) rotate(-180.000000) translate(-318.755000, -95.805688) " points="251 72 386.51 72 386.51 119.611375 251 119.611375 251 72"></polygon>
                <polygon id="path236" fill="#E6E7E8" transform="translate(288.540062, 170.455562) scale(-1, 1) rotate(-180.000000) translate(-288.540062, -170.455562) " points="251 132 326.080125 132 326.080125 208.911125 251 208.911125"></polygon>
                <polygon id="path240" fill="#231F20" transform="translate(362.805687, 143.662356) scale(-1, 1) rotate(-180.000000) translate(-362.805687, -143.662356) " points="339 140 386.611375 140 386.611375 147.324713 339 147.324713"></polygon>
                <polygon id="path244" fill="#231F20" transform="translate(362.805687, 161.662600) scale(-1, 1) rotate(-180.000000) translate(-362.805687, -161.662600) " points="339 158 386.611375 158 386.611375 165.3252 339 165.3252"></polygon>
                <polygon id="path248" fill="#231F20" transform="translate(362.805687, 179.662600) scale(-1, 1) rotate(-180.000000) translate(-362.805687, -179.662600) " points="339 176 386.611375 176 386.611375 183.3252 339 183.3252"></polygon>
                <polygon id="path252" fill="#231F20" transform="translate(362.805687, 198.662600) scale(-1, 1) rotate(-180.000000) translate(-362.805687, -198.662600) " points="339 195 386.611375 195 386.611375 202.3252 339 202.3252"></polygon>
                <path d="M67.00625,138 C66.92375,147.15625 69.9475,154.50625 76.07,160.805 L49.50875,187.285 C35.91375,173.69125 29.08125,156.3125 29,138 L67.00625,138" id="path254" fill="#6BCB93" transform="translate(52.535000, 162.642500) scale(-1, 1) rotate(-180.000000) translate(-52.535000, -162.642500) "></path>
                <path d="M67.0069766,236.36 L29.0007266,236.36 C28.9194766,218.0475 35.6519766,200.72 49.1932266,187 L76.3782266,214.105 C70.2019766,220.28 67.0882266,229.035 67.0069766,236.36" id="path256" fill="#D1D3D4" transform="translate(52.689113, 211.680000) scale(-1, 1) rotate(-180.000000) translate(-52.689113, -211.680000) "></path>
                <path d="M76.185,210.350781 C88.7,222.868281 108.99,222.868281 121.505,210.350781 C134.01875,197.837031 134.01875,177.547031 121.505,165.032031 C108.98875,152.517031 88.7,152.517031 76.185,165.032031 L49,137.847031 L49.31625,137.515781 C76.67,110.162031 121.0175,110.160781 148.37375,137.515781 C175.72875,164.872031 175.72625,209.219531 148.37375,236.573281 C121.02,263.927031 76.67125,263.928281 49.31625,236.573281 L75.8775,210.012031 L76.185,210.350781" id="path258" fill="#E6E7E8" transform="translate(108.944531, 187.044531) scale(-1, 1) rotate(-180.000000) translate(-108.944531, -187.044531) "></path>
                <path d="M75.47875,130 L40,164.41" id="path260" fill="#F1F2F2" transform="translate(57.739375, 147.205000) scale(-1, 1) rotate(-180.000000) translate(-57.739375, -147.205000) "></path>
                <polyline id="path262" fill="#231F20" transform="translate(58.289375, 146.833750) scale(-1, 1) rotate(-180.000000) translate(-58.289375, -146.833750) " points="78.57875 132.2575 43.1 166.6675 38 161.41 73.47875 127"></polyline>
                <polygon id="path266" fill="#231F20" transform="translate(43.890625, 187.662356) scale(-1, 1) rotate(-180.000000) translate(-43.890625, -187.662356) " points="21 184 66.78125 184 66.78125 191.324713 21 191.324713"></polygon>
                <path d="M302.7825,192.21625 C302.7825,199.56125 296.82125,205.105 289.48125,205.105 L129.83625,205.105 C122.4875,205.105 116,199.56125 116,192.21625 L116,152 L302.7825,152 L302.7825,192.21625" id="path268" fill="url(#linearGradient-1)" transform="translate(209.391250, 178.552500) scale(-1, 1) rotate(-180.000000) translate(-209.391250, -178.552500) "></path>
                <path d="M116,403.596375 L116,217.650125 C116,210.300125 122.4875,204 129.83625,204 L289.48125,204 C296.82125,204 302.7825,210.300125 302.7825,217.650125 L302.7825,403.596375 L116,403.596375" id="path270" fill="#808285" transform="translate(209.391250, 303.798187) scale(-1, 1) rotate(-180.000000) translate(-209.391250, -303.798187) "></path>
                <polygon id="path272" fill="#A7A9AC" transform="translate(147.734375, 227.324938) scale(-1, 1) rotate(-180.000000) translate(-147.734375, -227.324938) " points="134 220 161.46875 220 161.46875 234.649875 134 234.649875"></polygon>
                <path d="M161.13125,219.6625 L161.13125,223.325 L137.325,223.325 L137.325,230.65 L157.46875,230.65 L157.46875,219.6625 L161.13125,219.6625 L161.13125,223.325 L161.13125,219.6625 L164.79375,219.6625 L164.79375,234.3125 C164.79375,235.27625 164.4025,236.22 163.72125,236.90125 C163.03875,237.58375 162.095,237.975 161.13125,237.975 L133.6625,237.975 C132.69875,237.975 131.755,237.58375 131.07375,236.90125 C130.39125,236.22 130,235.27625 130,234.3125 L130,219.6625 C130,218.6975 130.39125,217.755 131.07375,217.0725 C131.755,216.39125 132.69875,216 133.6625,216 L161.13125,216 C162.095,216 163.03875,216.39125 163.72125,217.0725 C164.4025,217.755 164.79375,218.6975 164.79375,219.6625 L161.13125,219.6625" id="path274" fill="#231F20" transform="translate(147.396875, 226.987500) scale(-1, 1) rotate(-180.000000) translate(-147.396875, -226.987500) "></path>
                <polygon id="path276" fill="#A7A9AC" transform="translate(188.649438, 227.324938) scale(-1, 1) rotate(-180.000000) translate(-188.649438, -227.324938) " points="174 220 203.298875 220 203.298875 234.649875 174 234.649875"></polygon>
                <path d="M203.96125,219.6625 L203.96125,223.325 L178.325,223.325 L178.325,230.65 L200.29875,230.65 L200.29875,219.6625 L203.96125,219.6625 L203.96125,223.325 L203.96125,219.6625 L207.62375,219.6625 L207.62375,234.3125 C207.62375,235.27625 207.23375,236.22 206.55125,236.90125 C205.86875,237.58375 204.92625,237.975 203.96125,237.975 L174.6625,237.975 C173.6975,237.975 172.75375,237.58375 172.0725,236.90125 C171.39,236.22 171,235.27625 171,234.3125 L171,219.6625 C171,218.6975 171.39,217.755 172.0725,217.0725 C172.75375,216.39125 173.6975,216 174.6625,216 L203.96125,216 C204.92625,216 205.86875,216.39125 206.55125,217.0725 C207.23375,217.755 207.62375,218.6975 207.62375,219.6625 L203.96125,219.6625" id="path278" fill="#231F20" transform="translate(189.311875, 226.987500) scale(-1, 1) rotate(-180.000000) translate(-189.311875, -226.987500) "></path>
                <polygon id="path280" fill="#A7A9AC" transform="translate(230.733625, 227.324938) scale(-1, 1) rotate(-180.000000) translate(-230.733625, -227.324938) " points="217 220 244.46725 220 244.46725 234.649875 217 234.649875"></polygon>
                <path d="M244.13,219.6625 L244.13,223.325 L220.325,223.325 L220.325,230.65 L240.46875,230.65 L240.46875,219.6625 L244.13,219.6625 L244.13,223.325 L244.13,219.6625 L247.7925,219.6625 L247.7925,234.3125 C247.7925,235.27625 247.4025,236.22 246.72,236.90125 C246.03875,237.58375 245.095,237.975 244.13,237.975 L216.6625,237.975 C215.6975,237.975 214.755,237.58375 214.0725,236.90125 C213.39125,236.22 213,235.27625 213,234.3125 L213,219.6625 C213,218.6975 213.39125,217.755 214.0725,217.0725 C214.755,216.39125 215.6975,216 216.6625,216 L244.13,216 C245.095,216 246.03875,216.39125 246.72,217.0725 C247.4025,217.755 247.7925,218.6975 247.7925,219.6625 L244.13,219.6625" id="path282" fill="#231F20" transform="translate(230.396250, 226.987500) scale(-1, 1) rotate(-180.000000) translate(-230.396250, -226.987500) "></path>
                <polygon id="path284" fill="#A7A9AC" transform="translate(270.734375, 227.324938) scale(-1, 1) rotate(-180.000000) translate(-270.734375, -227.324938) " points="257 220 284.46875 220 284.46875 234.649875 257 234.649875"></polygon>
                <path d="M284.13125,219.6625 L284.13125,223.325 L260.325,223.325 L260.325,230.65 L280.46875,230.65 L280.46875,219.6625 L284.13125,219.6625 L284.13125,223.325 L284.13125,219.6625 L287.79375,219.6625 L287.79375,234.3125 C287.79375,235.27625 287.4025,236.22 286.72125,236.90125 C286.03875,237.58375 285.095,237.975 284.13125,237.975 L256.6625,237.975 C255.69875,237.975 254.755,237.58375 254.0725,236.90125 C253.39125,236.22 253,235.27625 253,234.3125 L253,219.6625 C253,218.6975 253.39125,217.755 254.0725,217.0725 C254.755,216.39125 255.69875,216 256.6625,216 L284.13125,216 C285.095,216 286.03875,216.39125 286.72125,217.0725 C287.4025,217.755 287.79375,218.6975 287.79375,219.6625 L284.13125,219.6625" id="path286" fill="#231F20" transform="translate(270.396875, 226.987500) scale(-1, 1) rotate(-180.000000) translate(-270.396875, -226.987500) "></path>
                <polygon id="path288" fill="#A7A9AC" transform="translate(147.734375, 263.818125) scale(-1, 1) rotate(-180.000000) translate(-147.734375, -263.818125) " points="134 251 161.46875 251 161.46875 276.63625 134 276.63625"></polygon>
                <path d="M161.13125,251.6675 L161.13125,255.33 L137.325,255.33 L137.325,273.64125 L157.46875,273.64125 L157.46875,251.6675 L161.13125,251.6675 L161.13125,255.33 L161.13125,251.6675 L164.79375,251.6675 L164.79375,277.30375 C164.79375,278.26875 164.4025,279.21125 163.72125,279.89375 C163.03875,280.57625 162.095,280.96625 161.13125,280.96625 L133.6625,280.96625 C132.69875,280.96625 131.755,280.57625 131.07375,279.89375 C130.39125,279.21125 130,278.26875 130,277.30375 L130,251.6675 C130,250.7 130.39125,249.7625 131.07375,249.075 C131.755,248.4 132.69875,248 133.6625,248 L161.13125,248 C162.095,248 163.03875,248.4 163.72125,249.075 C164.4025,249.7625 164.79375,250.7 164.79375,251.6675 L161.13125,251.6675" id="path290" fill="#231F20" transform="translate(147.396875, 264.483125) scale(-1, 1) rotate(-180.000000) translate(-147.396875, -264.483125) "></path>
                <polygon id="path292" fill="#A7A9AC" transform="translate(188.649438, 263.818125) scale(-1, 1) rotate(-180.000000) translate(-188.649438, -263.818125) " points="174 251 203.298875 251 203.298875 276.63625 174 276.63625"></polygon>
                <path d="M203.96125,251.6675 L203.96125,255.33 L178.325,255.33 L178.325,273.64125 L200.29875,273.64125 L200.29875,251.6675 L203.96125,251.6675 L203.96125,255.33 L203.96125,251.6675 L207.62375,251.6675 L207.62375,277.30375 C207.62375,278.26875 207.23375,279.21125 206.55125,279.89375 C205.86875,280.57625 204.92625,280.96625 203.96125,280.96625 L174.6625,280.96625 C173.6975,280.96625 172.75375,280.57625 172.0725,279.89375 C171.39,279.21125 171,278.26875 171,277.30375 L171,251.6675 C171,250.7 171.39,249.7625 172.0725,249.075 C172.75375,248.4 173.6975,248 174.6625,248 L203.96125,248 C204.92625,248 205.86875,248.4 206.55125,249.075 C207.23375,249.7625 207.62375,250.7 207.62375,251.6675 L203.96125,251.6675" id="path294" fill="#231F20" transform="translate(189.311875, 264.483125) scale(-1, 1) rotate(-180.000000) translate(-189.311875, -264.483125) "></path>
                <polygon id="path296" fill="#A7A9AC" transform="translate(230.733625, 263.818125) scale(-1, 1) rotate(-180.000000) translate(-230.733625, -263.818125) " points="217 251 244.46725 251 244.46725 276.63625 217 276.63625"></polygon>
                <path d="M244.13,251.6675 L244.13,255.33 L220.325,255.33 L220.325,273.64125 L240.46875,273.64125 L240.46875,251.6675 L244.13,251.6675 L244.13,255.33 L244.13,251.6675 L247.7925,251.6675 L247.7925,277.30375 C247.7925,278.26875 247.4025,279.21125 246.72,279.89375 C246.03875,280.57625 245.095,280.96625 244.13,280.96625 L216.6625,280.96625 C215.6975,280.96625 214.755,280.57625 214.0725,279.89375 C213.39125,279.21125 213,278.26875 213,277.30375 L213,251.6675 C213,250.7 213.39125,249.7625 214.0725,249.075 C214.755,248.4 215.6975,248 216.6625,248 L244.13,248 C245.095,248 246.03875,248.4 246.72,249.075 C247.4025,249.7625 247.7925,250.7 247.7925,251.6675 L244.13,251.6675" id="path298" fill="#231F20" transform="translate(230.396250, 264.483125) scale(-1, 1) rotate(-180.000000) translate(-230.396250, -264.483125) "></path>
                <polygon id="path300" fill="#A7A9AC" transform="translate(270.734375, 263.818125) scale(-1, 1) rotate(-180.000000) translate(-270.734375, -263.818125) " points="257 251 284.46875 251 284.46875 276.63625 257 276.63625"></polygon>
                <path d="M284.13125,251.6675 L284.13125,255.33 L260.325,255.33 L260.325,273.64125 L280.46875,273.64125 L280.46875,251.6675 L284.13125,251.6675 L284.13125,255.33 L284.13125,251.6675 L287.79375,251.6675 L287.79375,277.30375 C287.79375,278.26875 287.4025,279.21125 286.72125,279.89375 C286.03875,280.57625 285.095,280.96625 284.13125,280.96625 L256.6625,280.96625 C255.69875,280.96625 254.755,280.57625 254.0725,279.89375 C253.39125,279.21125 253,278.26875 253,277.30375 L253,251.6675 C253,250.7 253.39125,249.7625 254.0725,249.075 C254.755,248.4 255.69875,248 256.6625,248 L284.13125,248 C285.095,248 286.03875,248.4 286.72125,249.075 C287.4025,249.7625 287.79375,250.7 287.79375,251.6675 L284.13125,251.6675" id="path302" fill="#231F20" transform="translate(270.396875, 264.483125) scale(-1, 1) rotate(-180.000000) translate(-270.396875, -264.483125) "></path>
                <polygon id="path304" fill="#A7A9AC" transform="translate(147.734375, 301.906250) scale(-1, 1) rotate(-180.000000) translate(-147.734375, -301.906250) " points="134 290 161.46875 290 161.46875 313.8125 134 313.8125"></polygon>
                <path d="M161.13125,289.6625 L161.13125,293.325 L137.325,293.325 L137.325,309.8125 L157.46875,309.8125 L157.46875,289.6625 L161.13125,289.6625 L161.13125,293.325 L161.13125,289.6625 L164.79375,289.6625 L164.79375,313.475 C164.79375,314.4375 164.4025,315.3875 163.72125,316.0625 C163.03875,316.75 162.095,317.1375 161.13125,317.1375 L133.6625,317.1375 C132.69875,317.1375 131.755,316.75 131.07375,316.0625 C130.39125,315.3875 130,314.4375 130,313.475 L130,289.6625 C130,288.7 130.39125,287.7625 131.07375,287.075 C131.755,286.4 132.69875,286 133.6625,286 L161.13125,286 C162.095,286 163.03875,286.4 163.72125,287.075 C164.4025,287.7625 164.79375,288.7 164.79375,289.6625 L161.13125,289.6625" id="path306" fill="#231F20" transform="translate(147.396875, 301.568750) scale(-1, 1) rotate(-180.000000) translate(-147.396875, -301.568750) "></path>
                <polygon id="path308" fill="#A7A9AC" transform="translate(188.649438, 301.906250) scale(-1, 1) rotate(-180.000000) translate(-188.649438, -301.906250) " points="174 290 203.298875 290 203.298875 313.8125 174 313.8125"></polygon>
                <path d="M203.96125,289.6625 L203.96125,293.325 L178.325,293.325 L178.325,309.8125 L200.29875,309.8125 L200.29875,289.6625 L203.96125,289.6625 L203.96125,293.325 L203.96125,289.6625 L207.62375,289.6625 L207.62375,313.475 C207.62375,314.4375 207.23375,315.3875 206.55125,316.0625 C205.86875,316.75 204.92625,317.1375 203.96125,317.1375 L174.6625,317.1375 C173.6975,317.1375 172.75375,316.75 172.0725,316.0625 C171.39,315.3875 171,314.4375 171,313.475 L171,289.6625 C171,288.7 171.39,287.7625 172.0725,287.075 C172.75375,286.4 173.6975,286 174.6625,286 L203.96125,286 C204.92625,286 205.86875,286.4 206.55125,287.075 C207.23375,287.7625 207.62375,288.7 207.62375,289.6625 L203.96125,289.6625" id="path310" fill="#231F20" transform="translate(189.311875, 301.568750) scale(-1, 1) rotate(-180.000000) translate(-189.311875, -301.568750) "></path>
                <polygon id="path312" fill="#A7A9AC" transform="translate(230.733625, 301.906250) scale(-1, 1) rotate(-180.000000) translate(-230.733625, -301.906250) " points="217 290 244.46725 290 244.46725 313.8125 217 313.8125"></polygon>
                <path d="M244.13,289.6625 L244.13,293.325 L220.325,293.325 L220.325,309.8125 L240.46875,309.8125 L240.46875,289.6625 L244.13,289.6625 L244.13,293.325 L244.13,289.6625 L247.7925,289.6625 L247.7925,313.475 C247.7925,314.4375 247.4025,315.3875 246.72,316.0625 C246.03875,316.75 245.095,317.1375 244.13,317.1375 L216.6625,317.1375 C215.6975,317.1375 214.755,316.75 214.0725,316.0625 C213.39125,315.3875 213,314.4375 213,313.475 L213,289.6625 C213,288.7 213.39125,287.7625 214.0725,287.075 C214.755,286.4 215.6975,286 216.6625,286 L244.13,286 C245.095,286 246.03875,286.4 246.72,287.075 C247.4025,287.7625 247.7925,288.7 247.7925,289.6625 L244.13,289.6625" id="path314" fill="#231F20" transform="translate(230.396250, 301.568750) scale(-1, 1) rotate(-180.000000) translate(-230.396250, -301.568750) "></path>
                <polygon id="path316" fill="#A7A9AC" transform="translate(147.734375, 337.906250) scale(-1, 1) rotate(-180.000000) translate(-147.734375, -337.906250) " points="134 326 161.46875 326 161.46875 349.8125 134 349.8125"></polygon>
                <path d="M161.13125,326.65 L161.13125,330.325 L137.325,330.325 L137.325,346.8 L157.46875,346.8 L157.46875,326.65 L161.13125,326.65 L161.13125,330.325 L161.13125,326.65 L164.79375,326.65 L164.79375,350.4625 C164.79375,351.425 164.4025,352.375 163.72125,353.05 C163.03875,353.7375 162.095,354.125 161.13125,354.125 L133.6625,354.125 C132.69875,354.125 131.755,353.7375 131.07375,353.05 C130.39125,352.375 130,351.425 130,350.4625 L130,326.65 C130,325.6875 130.39125,324.75 131.07375,324.0625 C131.755,323.3875 132.69875,323 133.6625,323 L161.13125,323 C162.095,323 163.03875,323.3875 163.72125,324.0625 C164.4025,324.75 164.79375,325.6875 164.79375,326.65 L161.13125,326.65" id="path318" fill="#231F20" transform="translate(147.396875, 338.562500) scale(-1, 1) rotate(-180.000000) translate(-147.396875, -338.562500) "></path>
                <polygon id="path320" fill="#A7A9AC" transform="translate(188.649438, 337.906250) scale(-1, 1) rotate(-180.000000) translate(-188.649438, -337.906250) " points="174 326 203.298875 326 203.298875 349.8125 174 349.8125"></polygon>
                <path d="M203.96125,326.65 L203.96125,330.325 L178.325,330.325 L178.325,346.8 L200.29875,346.8 L200.29875,326.65 L203.96125,326.65 L203.96125,330.325 L203.96125,326.65 L207.62375,326.65 L207.62375,350.4625 C207.62375,351.425 207.23375,352.375 206.55125,353.05 C205.86875,353.7375 204.92625,354.125 203.96125,354.125 L174.6625,354.125 C173.6975,354.125 172.75375,353.7375 172.0725,353.05 C171.39,352.375 171,351.425 171,350.4625 L171,326.65 C171,325.6875 171.39,324.75 172.0725,324.0625 C172.75375,323.3875 173.6975,323 174.6625,323 L203.96125,323 C204.92625,323 205.86875,323.3875 206.55125,324.0625 C207.23375,324.75 207.62375,325.6875 207.62375,326.65 L203.96125,326.65" id="path322" fill="#231F20" transform="translate(189.311875, 338.562500) scale(-1, 1) rotate(-180.000000) translate(-189.311875, -338.562500) "></path>
                <polyline id="path324" fill="#A7A9AC" transform="translate(250.877500, 320.218750) scale(-1, 1) rotate(-180.000000) translate(-250.877500, -320.218750) " points="257.28625 350.4375 257.28625 313.8125 217 313.8125 217 290 284.755 290 284.755 350.4375 257.28625 350.4375"></polyline>
                <path d="M256.94875,350.0875 L253.28625,350.0875 L253.28625,317.125 L216.6625,317.125 C215.6975,317.125 214.755,316.7375 214.0725,316.05 C213.39125,315.375 213,314.425 213,313.4625 L213,289.65 C213,288.6875 213.39125,287.75 214.0725,287.0625 C214.755,286.3875 215.6975,286 216.6625,286 L284.4175,286 C285.38125,286 286.325,286.3875 287.0075,287.0625 C287.68875,287.75 288.08,288.6875 288.08,289.65 L288.08,350.0875 C288.08,351.05 287.68875,352 287.0075,352.675 C286.325,353.3625 285.38125,353.75 284.4175,353.75 L256.94875,353.75 C255.985,353.75 255.04125,353.3625 254.35875,352.675 C253.6775,352 253.28625,351.05 253.28625,350.0875 L256.94875,350.0875 L256.94875,346.425 L280.755,346.425 L280.755,293.325 L220.325,293.325 L220.325,309.8 L256.94875,309.8 C257.91375,309.8 258.85625,310.1875 259.53875,310.875 C260.22125,311.55 260.61125,312.5 260.61125,313.4625 L260.61125,350.0875 L256.94875,350.0875 L256.94875,346.425 L256.94875,350.0875" id="path326" fill="#231F20" transform="translate(250.540000, 319.875000) scale(-1, 1) rotate(-180.000000) translate(-250.540000, -319.875000) "></path>
                <polygon id="path328" fill="#A7A9AC" transform="translate(147.734375, 376.906250) scale(-1, 1) rotate(-180.000000) translate(-147.734375, -376.906250) " points="134 365 161.46875 365 161.46875 388.8125 134 388.8125"></polygon>
                <path d="M161.13125,364.6625 L161.13125,368.325 L137.325,368.325 L137.325,384.8125 L157.46875,384.8125 L157.46875,364.6625 L161.13125,364.6625 L161.13125,368.325 L161.13125,364.6625 L164.79375,364.6625 L164.79375,388.475 C164.79375,389.4375 164.4025,390.375 163.72125,391.0625 C163.03875,391.7375 162.095,392.1375 161.13125,392.1375 L133.6625,392.1375 C132.69875,392.1375 131.755,391.7375 131.07375,391.0625 C130.39125,390.375 130,389.4375 130,388.475 L130,364.6625 C130,363.7 130.39125,362.75 131.07375,362.075 C131.755,361.3875 132.69875,361 133.6625,361 L161.13125,361 C162.095,361 163.03875,361.3875 163.72125,362.075 C164.4025,362.75 164.79375,363.7 164.79375,364.6625 L161.13125,364.6625" id="path330" fill="#231F20" transform="translate(147.396875, 376.568750) scale(-1, 1) rotate(-180.000000) translate(-147.396875, -376.568750) "></path>
                <polygon id="path332" fill="#A7A9AC" transform="translate(208.792500, 376.906250) scale(-1, 1) rotate(-180.000000) translate(-208.792500, -376.906250) " points="174 365 243.585 365 243.585 388.8125 174 388.8125"></polygon>
                <path d="M244.2475,364.6625 L244.2475,368.325 L178.325,368.325 L178.325,384.8125 L240.58625,384.8125 L240.58625,364.6625 L244.2475,364.6625 L244.2475,368.325 L244.2475,364.6625 L247.91,364.6625 L247.91,388.475 C247.91,389.4375 247.52,390.375 246.8375,391.0625 C246.15625,391.7375 245.2125,392.1375 244.2475,392.1375 L174.6625,392.1375 C173.6975,392.1375 172.75375,391.7375 172.0725,391.0625 C171.39,390.375 171,389.4375 171,388.475 L171,364.6625 C171,363.7 171.39,362.75 172.0725,362.075 C172.75375,361.3875 173.6975,361 174.6625,361 L244.2475,361 C245.2125,361 246.15625,361.3875 246.8375,362.075 C247.52,362.75 247.91,363.7 247.91,364.6625 L244.2475,364.6625" id="path334" fill="#231F20" transform="translate(209.455000, 376.568750) scale(-1, 1) rotate(-180.000000) translate(-209.455000, -376.568750) "></path>
                <polygon id="path336" fill="#A7A9AC" transform="translate(270.734375, 376.906250) scale(-1, 1) rotate(-180.000000) translate(-270.734375, -376.906250) " points="257 365 284.46875 365 284.46875 388.8125 257 388.8125"></polygon>
                <path d="M284.13125,364.6625 L284.13125,368.325 L260.325,368.325 L260.325,384.8125 L280.46875,384.8125 L280.46875,364.6625 L284.13125,364.6625 L284.13125,368.325 L284.13125,364.6625 L287.79375,364.6625 L287.79375,388.475 C287.79375,389.4375 287.4025,390.375 286.72125,391.0625 C286.03875,391.7375 285.095,392.1375 284.13125,392.1375 L256.6625,392.1375 C255.69875,392.1375 254.755,391.7375 254.0725,391.0625 C253.39125,390.375 253,389.4375 253,388.475 L253,364.6625 C253,363.7 253.39125,362.75 254.0725,362.075 C254.755,361.3875 255.69875,361 256.6625,361 L284.13125,361 C285.095,361 286.03875,361.3875 286.72125,362.075 C287.4025,362.75 287.79375,363.7 287.79375,364.6625 L284.13125,364.6625" id="path338" fill="#231F20" transform="translate(270.396875, 376.568750) scale(-1, 1) rotate(-180.000000) translate(-270.396875, -376.568750) "></path>
                <polygon id="path340" fill="#2364AF" transform="translate(195.695813, 172.662356) scale(-1, 1) rotate(-180.000000) translate(-195.695813, -172.662356) " points="149 169 242.391625 169 242.391625 176.324713 149 176.324713 149 169"></polygon>
                <polygon id="path342" fill="#2364AF" transform="translate(259.578125, 172.662356) scale(-1, 1) rotate(-180.000000) translate(-259.578125, -172.662356) " points="255 169 264.15625 169 264.15625 176.324713 255 176.324713"></polygon>
                <polygon id="path344" fill="#2364AF" transform="translate(201.636937, 187.662356) scale(-1, 1) rotate(-180.000000) translate(-201.636937, -187.662356) " points="176 184 227.273875 184 227.273875 191.324713 176 191.324713"></polygon>
            </g>
        </g>
    </g>
</svg>