<?xml version="1.0" encoding="UTF-8"?>
<svg width="440px" height="405px" viewBox="0 0 440 405" version="1.1" xmlns="http://www.w3.org/2000/svg" xmlns:xlink="http://www.w3.org/1999/xlink">
    <!-- Generator: Sketch 47.1 (45422) - http://www.bohemiancoding.com/sketch -->
    <title>Group 10</title>
    <desc>Created with Sketch.</desc>
    <defs>
        <linearGradient x1="0%" y1="0%" x2="101.999998%" y2="100.999999%" id="linearGradient-1">
            <stop stop-color="#677AEE" offset="0%"></stop>
            <stop stop-color="#20A9F5" offset="100%"></stop>
        </linearGradient>
    </defs>
    <g id="Page-1" stroke="none" stroke-width="1" fill="none" fill-rule="evenodd">
        <g id="Group-10" fill-rule="nonzero">
            <g id="Group">
                <path d="M152.58625,57.77375 C151.2675,53.88875 149.6375,50.1475 147.725,46.58 L154.18125,43.12 C156.2825,47.03875 158.0725,51.15 159.5225,55.41875 L152.58625,57.77375 M141.1,36.32875 C138.61375,33.09625 135.87,30.0725 132.8975,27.28875 L137.90375,21.9425 C141.16625,24.99625 144.1775,28.315 146.90625,31.86375 L141.1,36.32875 M123.34,19.7 C119.97,17.44625 116.4075,15.46 112.6825,13.77125 L115.70625,7.1 C119.8,8.955 123.7125,11.1375 127.4125,13.6125 L123.34,19.7 M101.19625,9.66625 C97.31125,8.63 93.30125,7.89875 89.19125,7.50125 L89.8975,0.21 C94.40875,0.6475 98.815,1.45 103.085,2.58875 L101.19625,9.66625 M76.985,7.31 C72.86,7.5775 68.8275,8.18125 64.915,9.0925 L63.255,1.9575 C67.55375,0.9575 71.9825,0.295 76.51,0 L76.985,7.31 M53.2975,12.83 C49.515,14.40125 45.88875,16.275 42.45,18.42125 L38.57125,12.2075 C42.34875,9.85 46.33125,7.79125 50.4875,6.065 L53.2975,12.83 M32.6575,25.7075 C29.5975,28.3975 26.76,31.33375 24.175,34.485 L18.51125,29.84 C21.34875,26.38125 24.4625,23.15875 27.82,20.20625 L32.6575,25.7075 M17.2325,44.51875 C15.20875,48.02375 13.4625,51.7075 12.0225,55.54125 L5.16625,52.9675 C6.7475,48.75375 8.66625,44.70625 10.88875,40.85625 L17.2325,44.51875 M8.69,67.27375 C7.915,71.2125 7.45,75.2625 7.32125,79.4 L0,79.17125 C0.14125,74.63375 0.6525,70.18625 1.50375,65.86 L8.69,67.27375 M7.92375,91.5925 C8.46125,95.68125 9.32875,99.665 10.5,103.51625 L3.4925,105.64625 C2.205,101.415 1.25125,97.0375 0.66125,92.5475 L7.92375,91.5925 M15.00125,114.85875 C16.8175,118.52375 18.92625,122.02 21.2975,125.315 L15.3525,129.59375 C12.74875,125.97625 10.4325,122.1375 8.4375,118.11125 L15.00125,114.85875 M29.21125,134.605 C32.0925,137.48 35.2075,140.1175 38.525,142.4925 L34.26125,148.455 C30.62,145.8425 27.20125,142.955 24.03875,139.7925 L29.21125,134.605 M48.99,148.7675 C52.6175,150.5425 56.41,152.0425 60.33875,153.23 L58.225,160.2425 C53.9075,158.9425 49.73875,157.2925 45.755,155.33 L48.99,148.7675 M72.2675,155.78 C75.42125,156.18 78.6375,156.3925 81.905,156.3925 C82.76125,156.3925 83.61375,156.38 84.4625,156.355 L84.70875,163.6675 C83.77875,163.705 82.84375,163.7175 81.905,163.7175 C78.32375,163.7175 74.795,163.4925 71.33125,163.0425 L72.2675,155.78 M96.585,154.955 C100.6225,154.1425 104.5425,153.0175 108.31625,151.5925 L110.90875,158.4425 C106.7625,160.005 102.45375,161.255 98.01625,162.13 L96.585,154.955 M119.33625,146.3425 C122.86875,144.2925 126.21875,141.955 129.35375,139.3675 L134.015,145.0175 C130.57375,147.855 126.89625,150.4175 123.015,152.68 L119.33625,146.3425 M138.10875,130.8625 C140.78375,127.8025 143.2125,124.52125 145.365,121.0525 L151.58875,124.91375 C149.22625,128.72375 146.55875,132.325 143.6225,135.68 L138.10875,130.8625 M150.9225,110.19875 C152.46125,106.4675 153.70625,102.585 154.62875,98.57875 L161.76625,100.22125 C160.7525,104.62375 159.385,108.89125 157.695,112.99125 L150.9225,110.19875 M156.38,86.505 C156.4775,84.94 156.5275,83.3625 156.5275,81.77125 C156.5275,77.62625 156.19,73.56375 155.54125,69.60625 L162.77,68.4225 C163.4825,72.76875 163.8525,77.22875 163.8525,81.77125 C163.8525,83.515 163.7975,85.245 163.69125,86.96125 L156.38,86.505" id="path24" fill="#231F20" transform="translate(81.926250, 81.858750) scale(-1, 1) rotate(-180.000000) translate(-81.926250, -81.858750) "></path>
                <path d="M429.472505,235.36 C428.482505,231.32375 427.253755,227.38125 425.801255,223.54875 L432.651255,220.9525 C434.207505,225.0625 435.525005,229.28875 436.586255,233.61625 L429.472505,235.36 M420.726255,212.26875 C418.801255,208.605 416.662505,205.07125 414.323755,201.685 L420.352505,197.52375 C422.857505,201.15125 425.148755,204.9375 427.211255,208.86375 L420.726255,212.26875 M406.698755,191.945 C403.963755,188.855 401.045005,185.93125 397.961255,183.19 L402.827505,177.715 C406.130005,180.65 409.255005,183.78125 412.183755,187.09125 L406.698755,191.945 M388.241255,175.54625 C384.862505,173.20125 381.336255,171.05625 377.678755,169.12625 L381.098755,162.6475 C385.017505,164.7175 388.796255,167.01625 392.416255,169.52625 L388.241255,175.54625 M366.416255,164.02625 C362.588755,162.565 358.651255,161.32875 354.620005,160.32875 L356.381255,153.22 C360.702505,154.29 364.923755,155.61625 369.027505,157.1825 L366.416255,164.02625 M342.461255,158.08875 C338.415005,157.59375 334.296255,157.33375 330.116255,157.32375 L330.133755,150 C334.605005,150.01 339.016255,150.2875 343.351255,150.8175 L342.461255,158.08875 M317.767505,158.03 C313.630005,158.51625 309.568755,159.24875 305.597505,160.2125 L303.870005,153.095 C308.126255,152.06125 312.480005,151.2775 316.912505,150.75625 L317.767505,158.03 M293.776255,163.85625 C289.896255,165.315 286.126255,167.00375 282.485005,168.905 L279.095005,162.41125 C282.997505,160.37375 287.037505,158.565 291.198755,157 L293.776255,163.85625 M271.886255,175.28 C268.480005,177.62 265.221255,180.16 262.128755,182.88375 L257.287505,177.38625 C260.600005,174.47 264.090005,171.74875 267.738755,169.2425 L271.886255,175.28 M253.352505,191.6 C250.608755,194.67375 248.047505,197.9125 245.685005,201.30125 L239.676255,197.1125 C242.206255,193.4825 244.950005,190.0125 247.888755,186.72125 L253.352505,191.6 M239.240005,211.84875 C237.313755,215.475 235.600005,219.23125 234.113755,223.1 L227.276255,220.4725 C228.868755,216.32625 230.706255,212.3 232.770005,208.41375 L239.240005,211.84875 M230.388755,234.8875 C229.396255,238.85125 228.635005,242.9075 228.118755,247.04 L220.850005,246.13375 C221.402505,241.705 222.218755,237.3575 223.282505,233.10875 L230.388755,234.8875 M227.325005,259.3825 C227.325005,259.54625 227.323755,259.70875 227.323755,259.87125 C227.323755,263.885 227.553755,267.8425 228.002505,271.73375 L220.726255,272.57125 C220.246255,268.40375 219.998755,264.165 220.000005,259.87125 C220.000005,259.6975 220.000005,259.5225 220.000005,259.34875 L227.325005,259.3825 M230.156255,283.90875 C231.126255,287.95 232.336255,291.89875 233.770005,295.7375 L226.907505,298.3 C225.371255,294.18375 224.073755,289.95125 223.033755,285.61875 L230.156255,283.90875 M238.792505,307.04125 C240.698755,310.715 242.821255,314.25875 245.142505,317.65625 L239.095005,321.78875 C236.608755,318.15 234.333755,314.3525 232.291255,310.41625 L238.792505,307.04125 M252.722505,327.43125 C255.442505,330.535 258.347505,333.4725 261.418755,336.2275 L256.526255,341.68 C253.237505,338.72875 250.127505,335.5825 247.215005,332.25875 L252.722505,327.43125 M271.101255,343.91875 C274.470005,346.27875 277.986255,348.44125 281.633755,350.38875 L278.182505,356.85 C274.275005,354.7625 270.507505,352.445 266.898755,349.9175 L271.101255,343.91875 M292.872505,355.5425 C296.692505,357.02125 300.625005,358.2775 304.651255,359.295 L302.855005,366.39625 C298.538755,365.305 294.323755,363.95875 290.228755,362.37375 L292.872505,355.5425 M316.798755,361.595 C320.841255,362.10875 324.958755,362.3875 329.138755,362.41625 L329.087505,369.74125 C324.615005,369.71 320.206255,369.41125 315.873755,368.86 L316.798755,361.595 M341.491255,361.76875 C345.631255,361.3025 349.696255,360.58875 353.670005,359.645 L355.363755,366.77125 C351.103755,367.78375 346.747505,368.5475 342.311255,369.0475 L341.491255,361.76875 M365.508755,356.05875 C369.397505,354.6175 373.175005,352.94625 376.825005,351.06375 L380.183755,357.5725 C376.271255,359.59125 372.223755,361.3825 368.055005,362.92625 L365.508755,356.05875 M387.455005,344.73875 C390.872505,342.415 394.142505,339.89 397.247505,337.18125 L402.062505,342.70125 C398.736255,345.6025 395.233755,348.30625 391.572505,350.79625 L387.455005,344.73875 L387.455005,344.73875 M406.065005,328.50625 C408.823755,325.44625 411.400005,322.21875 413.778755,318.8425 L419.767505,323.05875 C417.220005,326.6775 414.460005,330.13375 411.505005,333.41125 L406.065005,328.50625 M420.273755,308.325 C422.216255,304.71 423.946255,300.965 425.451255,297.1075 L432.275005,299.7675 C430.663755,303.90375 428.807505,307.91625 426.726255,311.79125 L420.273755,308.325 M429.233755,285.3375 C430.245005,281.37875 431.026255,277.32625 431.562505,273.19625 L438.826255,274.13875 C438.252505,278.56375 437.415005,282.90625 436.330005,287.15125 L429.233755,285.3375 M432.415005,260.85875 C432.417505,260.53 432.420005,260.20125 432.420005,259.87125 C432.420005,255.69125 432.170005,251.57125 431.683755,247.525 L438.957505,246.6525 C439.477505,250.9875 439.745005,255.39875 439.745005,259.87125 C439.745005,260.22375 439.742505,260.57625 439.740005,260.9275 L432.415005,260.85875" id="path26" fill="#231F20" transform="translate(329.872502, 259.870625) scale(-1, 1) rotate(-180.000000) translate(-329.872502, -259.870625) "></path>
                <path d="M342.04125,173.64375 L342.04125,195.59375 C347.535,196.86 350.845,198.51375 354.6125,200.52375 L370.47625,185 C371.94625,183.5225 374.5125,183.5225 375.97625,185 L398.3,207.2425 C399.77375,208.715 399.8175,211.10125 398.34125,212.565 L382.84125,227.89625 C384.84875,231.65625 386.52875,235.92375 387.785,239.58625 L409.7425,239.58625 C411.82,239.58625 413.45875,241.66875 413.45875,243.75625 L413.45875,275.20625 C413.45875,277.28875 411.82,279.8725 409.7425,279.8725 L387.785,279.8725 C386.52875,283.535 384.87,287.54625 382.8625,291.305 L398.38625,306.61125 C399.86,308.085 399.86,310.34875 398.38625,311.82875 L376.13875,334.0075 C374.66875,335.48875 372.29,335.46 370.82,333.97875 L354.6125,318.4475 C350.845,320.45 347.535,322.0925 342.04125,323.37125 L342.04125,345.31875 C342.04125,347.395 341.7225,349.45875 339.6375,349.45875 L308.18,349.45875 C306.10375,349.45875 303.585,347.395 303.585,345.31875 L303.585,323.37125 C299.9225,322.0925 295.87375,320.43625 292.12625,318.43375 L276.8,333.95 C275.3375,335.43125 273.045,335.43125 271.5775,333.95 L249.375,311.715 C247.905,310.23625 247.9325,307.8575 249.4025,306.38625 L264.955,291.305 C262.945,287.54625 261.28875,283.535 260.02875,279.8725 L238.08375,279.8725 C235.99875,279.8725 234,277.28875 234,275.20625 L234,243.75625 C234,241.66875 235.99875,239.58625 238.08375,239.58625 L260.02875,239.58625 C261.28875,235.92375 262.9575,231.65625 264.96875,227.89625 L249.42875,212.465 C247.9575,211.00125 247.9575,208.665 249.42875,207.19125 L271.68125,184.975 C273.14875,183.4975 275.54375,183.50875 277.00625,184.98625 L292.12625,200.51875 C295.87375,198.5075 299.9225,196.86 303.585,195.59375 L303.585,173.64375 C303.585,171.565 306.10375,170 308.18,170 L339.6375,170 C341.7225,170 342.04125,171.565 342.04125,173.64375" id="path28" fill="#FFFFFF" transform="translate(323.729375, 259.729375) scale(-1, 1) rotate(-180.000000) translate(-323.729375, -259.729375) "></path>
                <path d="M323.21625,233 C307.6325,233 295,245.64375 295,261.2225 C295,276.81 307.6325,289.44875 323.21625,289.44875 C338.81,289.44875 351.44125,276.81 351.44125,261.2225 C351.44125,245.64375 338.81,233 323.21625,233" id="path30" fill="#6BCB93" transform="translate(323.220625, 261.224375) scale(-1, 1) rotate(-180.000000) translate(-323.220625, -261.224375) "></path>
                <path d="M322.87875,232.6625 L322.87875,236.325 C316.0875,236.32625 309.9725,239.07 305.5175,243.52125 C301.0675,247.9775 298.3275,254.09625 298.325,260.885 C298.3275,267.67875 301.06875,273.7975 305.5175,278.255 C309.9725,282.70625 316.0875,285.4475 322.87875,285.45 C329.67625,285.4475 335.7925,282.705 340.24875,278.25375 C344.69875,273.7975 347.43875,267.68 347.44125,260.885 C347.43875,254.095 344.69875,247.9775 340.24875,243.52125 C335.7925,239.07 329.67625,236.3275 322.87875,236.325 L322.87875,229 C331.675,228.99875 339.67125,232.5775 345.42875,238.3425 C351.1925,244.10125 354.7675,252.09625 354.76625,260.885 C354.7675,269.6775 351.1925,277.67375 345.42875,283.4325 C339.67125,289.19875 331.675,292.77625 322.87875,292.77375 C314.08625,292.77625 306.09375,289.19875 300.33625,283.4325 C294.57375,277.67375 290.99875,269.67875 291,260.885 C290.99875,252.09625 294.57375,244.1025 300.33625,238.3425 C306.09375,232.5775 314.08625,228.99875 322.87875,229 L322.87875,232.6625" id="path32" fill="#231F20" transform="translate(322.883125, 260.886876) scale(-1, 1) rotate(-180.000000) translate(-322.883125, -260.886876) "></path>
                <path d="M319.7325,95.655 C319.7325,104.935 311.37625,112.92375 302.09625,112.92375 L106.035,112.92375 C96.75625,112.92375 89,104.935 89,95.655 L89,47 L319.7325,47 L319.7325,95.655" id="path368" fill="#6D6E71" transform="translate(204.366250, 79.961875) scale(-1, 1) rotate(-180.000000) translate(-204.366250, -79.961875) "></path>
                <path d="M320.395,96.3175 L324.0575,96.3175 C324.0575,99.18875 323.40875,101.94625 322.28125,104.43875 C320.58625,108.18125 317.83375,111.34625 314.455,113.6125 C311.07625,115.87375 307.0325,117.24625 302.75875,117.24875 L106.6975,117.24875 C100.99125,117.24625 95.81,114.79375 92.0875,110.9975 C88.36125,107.20125 86.00375,101.99 86,96.3175 L86,47.6625 C86,46.6975 86.39125,45.755 87.0725,45.0725 C87.755,44.39 88.69875,44 89.6625,44 L320.395,44 C321.36,44 322.3025,44.39 322.985,45.0725 C323.6675,45.755 324.0575,46.6975 324.0575,47.6625 L324.0575,96.3175 L316.7325,96.3175 L316.7325,51.325 L93.325,51.325 L93.325,96.3175 C93.32125,99.925 94.8425,103.34875 97.31375,105.86625 C99.79,108.38375 103.125,109.925 106.6975,109.92375 L302.75875,109.92375 C306.33375,109.93125 309.88375,108.3575 312.505,105.805 C313.8125,104.53375 314.87875,103.035 315.6075,101.4225 C316.33625,99.8075 316.7325,98.08625 316.7325,96.3175 L320.395,96.3175" id="path370" fill="#231F20" transform="translate(205.028750, 80.624375) scale(-1, 1) rotate(-180.000000) translate(-205.028750, -80.624375) "></path>
                <polygon id="path372" fill="#939598" transform="translate(204.366250, 256.750000) scale(-1, 1) rotate(-180.000000) translate(-204.366250, -256.750000) " points="89 113 319.7325 113 319.7325 400.5 89 400.5 89 113"></polygon>
                <path d="M324.0575,110 L324.0575,397.5 C324.0575,398.46375 323.6675,399.4075 322.985,400.09 C322.3025,400.77125 321.36,401.1625 320.395,401.1625 L89.6625,401.1625 C88.69875,401.1625 87.755,400.77125 87.0725,400.09 C86.39125,399.4075 86,398.46375 86,397.5 L86,110 L93.325,110 L93.325,393.8375 L316.7325,393.8375 L316.7325,110 L324.0575,110" id="path374" fill="#231F20" transform="translate(205.028750, 255.581250) scale(-1, 1) rotate(-180.000000) translate(-205.028750, -255.581250) "></path>
                <path d="M305.60125,374.845 C305.60125,377.16375 303.72,379.045 301.40125,379.045 L110.2,379.045 C107.88125,379.045 106,377.16375 106,374.845 L106,134.20125 C106,131.88125 107.88125,130 110.2,130 L301.40125,130 C303.72,130 305.60125,131.88125 305.60125,134.20125 L305.60125,374.845" id="path376" fill="#F1F2F2" transform="translate(205.800625, 254.522500) scale(-1, 1) rotate(-180.000000) translate(-205.800625, -254.522500) "></path>
                <polygon id="path378" fill="#DEDFE0" transform="translate(129.155500, 280.721188) scale(-1, 1) rotate(-180.000000) translate(-129.155500, -280.721188) " points="120 256 138.311 256 138.311 305.442375 120 305.442375 120 256"></polygon>
                <polygon id="path380" fill="#DEDFE0" transform="translate(217.586250, 280.721188) scale(-1, 1) rotate(-180.000000) translate(-217.586250, -280.721188) " points="148 256 287.1725 256 287.1725 305.442375 148 305.442375 148 256"></polygon>
                <polygon id="path382" fill="#DEDFE0" transform="translate(268.228000, 214.721188) scale(-1, 1) rotate(-180.000000) translate(-268.228000, -214.721188) " points="249 190 287.456 190 287.456 239.442375 249 239.442375"></polygon>
                <polygon id="path384" fill="#DEDFE0" transform="translate(179.852062, 214.721188) scale(-1, 1) rotate(-180.000000) translate(-179.852062, -214.721188) " points="124 190 235.704125 190 235.704125 239.442375 124 239.442375 124 190"></polygon>
                <polygon id="path386" fill="#DEDFE0" transform="translate(205.488750, 160.818125) scale(-1, 1) rotate(-180.000000) translate(-205.488750, -160.818125) " points="124 148 286.9775 148 286.9775 173.63625 124 173.63625 124 148"></polygon>
                <polygon id="path388" fill="#DEDFE0" transform="translate(204.235625, 338.058812) scale(-1, 1) rotate(-180.000000) translate(-204.235625, -338.058812) " points="120 317 288.47125 317 288.47125 359.117625 120 359.117625"></polygon>
                <polygon id="path390" fill="#231F20" transform="translate(205.075000, 400.662356) scale(-1, 1) rotate(-180.000000) translate(-205.075000, -400.662356) " points="54 397 356.15 397 356.15 404.324713 54 404.324713"></polygon>
                <path d="M151,79.57875 C151,76.87125 153.1925,75 155.90125,75 L218.92125,75 C221.62875,75 223.8225,76.87125 223.8225,79.57875 C223.8225,82.28625 221.62875,84.15625 218.92125,84.15625 L155.90125,84.15625 C153.1925,84.15625 151,82.28625 151,79.57875 C151,79.57875 151,82.28625 151,79.57875" id="path392" fill="#58595B" transform="translate(187.411250, 79.578125) scale(-1, 1) rotate(-180.000000) translate(-187.411250, -79.578125) "></path>
                <path d="M238,79.57875 C238,76.855 240.2075,75 242.93,75 L252.7875,75 C255.50875,75 257.7175,76.855 257.7175,79.57875 C257.7175,82.30125 255.50875,84.15625 252.7875,84.15625 L242.93,84.15625 C240.2075,84.15625 238,82.30125 238,79.57875 C238,79.57875 238,82.30125 238,79.57875" id="path394" fill="#58595B" transform="translate(247.858750, 79.578125) scale(-1, 1) rotate(-180.000000) translate(-247.858750, -79.578125) "></path>
                <polygon id="path484" fill="url(#linearGradient-1)" transform="translate(98.405000, 274.105688) scale(-1, 1) rotate(-180.000000) translate(-98.405000, -274.105688) " points="16 221 180.81 221 180.81 327.211375 16 327.211375"></polygon>
                <polygon id="path486" fill="#F1F2F2" transform="translate(98.405000, 266.649438) scale(-1, 1) rotate(-180.000000) translate(-98.405000, -266.649438) " points="16 252 180.81 252 180.81 281.298875 16 281.298875 16 252"></polygon>
                <polygon id="path488" fill="#231F20" transform="translate(98.405000, 252.662600) scale(-1, 1) rotate(-180.000000) translate(-98.405000, -252.662600) " points="16 249 180.81 249 180.81 256.3252 16 256.3252"></polygon>
                <polygon id="path490" fill="#231F20" transform="translate(98.405000, 279.662356) scale(-1, 1) rotate(-180.000000) translate(-98.405000, -279.662356) " points="16 276 180.81 276 180.81 283.324713 16 283.324713"></polygon>
                <polygon id="path492" fill="#231F20" transform="translate(149.987562, 296.662600) scale(-1, 1) rotate(-180.000000) translate(-149.987562, -296.662600) " points="139 293 160.975125 293 160.975125 300.3252 139 300.3252"></polygon>
                <polygon id="path494" fill="#231F20" transform="translate(123.071313, 296.662600) scale(-1, 1) rotate(-180.000000) translate(-123.071313, -296.662600) " points="113 293 133.142625 293 133.142625 300.3252 113 300.3252"></polygon>
                <polygon id="path496" fill="#231F20" transform="translate(98.156250, 296.662600) scale(-1, 1) rotate(-180.000000) translate(-98.156250, -296.662600) " points="89 293 107.3125 293 107.3125 300.3252 89 300.3252"></polygon>
                <polygon id="path498" fill="#231F20" transform="translate(124.708750, 310.662600) scale(-1, 1) rotate(-180.000000) translate(-124.708750, -310.662600) " points="89 307 160.4175 307 160.4175 314.3252 89 314.3252"></polygon>
                <polygon id="path500" fill="#231F20" transform="translate(180.662600, 276.429937) scale(-1, 1) rotate(-180.000000) translate(-180.662600, -276.429937) " points="177 216 184.3252 216 184.3252 336.859875 177 336.859875"></polygon>
                <path d="M136.84125,57.975 C143.51875,68.0475 147.41625,80.12375 147.41625,93.11375 C147.41625,128.2975 118.88875,156.82 83.70625,156.82 C48.52375,156.82 20,128.2975 20,93.11375 C20,57.93 48.52375,29.40625 83.70625,29.40625 C95.63375,29.40625 106.79,32.6925 116.335,38.3975 L136.84125,17 L136.84125,57.975" id="path524" fill="#FFFFFF" transform="translate(83.708125, 86.910000) scale(-1, 1) rotate(-180.000000) translate(-83.708125, -86.910000) "></path>
                <path d="M66.0000705,64.9962506 C65.9988205,60.0350006 68.0213205,55.5112506 71.2738205,52.2675006 C74.5213205,49.0162506 79.0463205,46.9987506 84.0050705,47.0000006 C88.9638205,46.9987506 93.4875705,49.0175006 96.7325705,52.2687506 C99.9838205,55.5137506 102.00257,60.0362506 102.00007,64.9962506 C102.01507,70.2025006 100.01882,74.8262506 96.7050705,78.0187506 C93.4025705,81.2237506 88.8613205,82.9950006 84.0050705,82.9900006 C80.9025705,82.9950006 78.2738205,84.0887506 76.3975705,85.9012506 C74.5313205,87.7275006 73.3400705,90.2725006 73.3250705,93.6662506 C73.3275705,96.6275006 74.5138205,99.2712506 76.4513205,101.212501 C78.3938205,103.147501 81.0413205,104.335001 84.0050705,104.336251 C86.9688205,104.335001 89.6125705,103.148751 91.5525705,101.213751 C93.4875705,99.2725006 94.6738205,96.6300006 94.6750705,93.6662506 L102.00007,93.6662506 C102.00257,98.6250006 99.9838205,103.147501 96.7325705,106.392501 C93.4875705,109.643751 88.9650705,111.663751 84.0050705,111.661251 C79.0450705,111.663751 74.5213205,109.645001 71.2738205,106.393751 C68.0213205,103.150001 65.9988205,98.6262506 66.0000705,93.6662506 C65.9863205,88.4575006 67.9850705,83.8337506 71.3013205,80.6400006 C74.6063205,77.4337506 79.1475705,75.6600006 84.0050705,75.6650006 C87.1100705,75.6600006 89.7363205,74.5675006 91.6088205,72.7575006 C93.4713205,70.9350006 94.6613205,68.3925006 94.6750705,64.9962506 C94.6738205,62.0312506 93.4875705,59.3887506 91.5538205,57.4475006 C89.6125705,55.5137506 86.9700705,54.3275006 84.0050705,54.3250006 C81.0400705,54.3275006 78.3938205,55.5137506 76.4513205,57.4487506 C74.5138205,59.3900006 73.3275705,62.0325006 73.3250705,64.9962506 L66.0000705,64.9962506" id="path526" fill="#231F20" transform="translate(84.000077, 79.330626) scale(-1, 1) rotate(-180.000000) translate(-84.000077, -79.330626) "></path>
                <polygon id="path528" fill="#231F20" transform="translate(83.662356, 47.662600) scale(-1, 1) rotate(-180.000000) translate(-83.662356, -47.662600) " points="80 44 87.3247125 44 87.3247125 51.3252 80 51.3252"></polygon>
                <polygon id="path530" fill="#231F20" transform="translate(83.662356, 112.578125) scale(-1, 1) rotate(-180.000000) translate(-83.662356, -112.578125) " points="80 108 87.3247125 108 87.3247125 117.15625 80 117.15625"></polygon>
                <polyline id="path532" fill="#F1F2F2" transform="translate(205.011875, 216.413125) scale(-1, 1) rotate(-180.000000) translate(-205.011875, -216.413125) " points="148 202.00875 212.0925 202.00875 212.0925 179 262.02375 216.415 212.0925 253.82625 212.0925 234.97 148 234.97"></polyline>
                <path d="M148,198.00966 L208.43,198.00966 L208.43,178.66341 C208.43,177.27341 209.21125,176.00966 210.45375,175.38841 C211.6975,174.76591 213.17625,174.89966 214.28875,175.73216 L264.22,213.14716 C265.14,213.83716 265.68625,214.92841 265.68625,216.07841 C265.68625,217.22841 265.14,218.31966 264.22,219.00966 L214.28875,256.42091 C213.17625,257.25341 211.6975,257.38716 210.45375,256.76466 C209.21125,256.14341 208.43,254.87966 208.43,253.48966 L208.43,238.29591 L148,238.29591 L148,230.97091 L212.0925,230.97091 C213.0575,230.97091 214,231.36216 214.6825,232.04341 C215.36375,232.72591 215.755,233.66966 215.755,234.63341 L215.755,246.16841 L255.91625,216.07841 L215.755,185.98466 L215.755,201.67216 C215.755,202.63591 215.36375,203.57966 214.6825,204.26216 C214,204.94341 213.0575,205.33466 212.0925,205.33466 L148,205.33466 L148,198.00966" id="path534" fill="#231F20" transform="translate(206.843125, 216.076535) scale(-1, 1) rotate(-180.000000) translate(-206.843125, -216.076535) "></path>
                <polyline id="path536" fill="#939598" transform="translate(212.011875, 327.413125) scale(-1, 1) rotate(-180.000000) translate(-212.011875, -327.413125) " points="269.02375 342.3075 204.93125 342.3075 204.93125 364.82625 155 327.41125 204.93125 290 204.93125 309.34625 269.02375 309.34625"></polyline>
                <path d="M268.685,346.63341 L208.255,346.63341 L208.255,365.48966 C208.255,366.87966 207.475,368.14341 206.23125,368.76466 C204.98875,369.38716 203.50875,369.25341 202.39625,368.41966 L152.46625,331.00591 C151.545,330.31591 151,329.22466 151,328.07466 C151,326.92466 151.545,325.83341 152.46625,325.14341 L202.39625,287.73216 C203.50875,286.89966 204.98875,286.76591 206.23125,287.38841 C207.475,288.00966 208.255,289.27341 208.255,290.66341 L208.255,306.34716 L268.685,306.34716 L268.685,313.67216 L204.5925,313.67216 C203.62875,313.67216 202.685,313.28091 202.0025,312.59966 C201.32125,311.91716 200.93,310.97341 200.93,310.00966 L200.93,297.98466 L160.77,328.07466 L200.93,358.16841 L200.93,342.97091 C200.93,342.00716 201.32125,341.06341 202.0025,340.38091 C202.685,339.69966 203.62875,339.30841 204.5925,339.30841 L268.685,339.30841 L268.685,346.63341" id="path538" fill="#231F20" transform="translate(209.842500, 328.076489) scale(-1, 1) rotate(-180.000000) translate(-209.842500, -328.076489) "></path>
                <polygon id="path540" fill="#231F20" transform="translate(266.662600, 328.552500) scale(-1, 1) rotate(-180.000000) translate(-266.662600, -328.552500) " points="263 302 270.3252 302 270.3252 355.105 263 355.105"></polygon>
                <polygon id="path542" fill="#231F20" transform="translate(147.662600, 212.552500) scale(-1, 1) rotate(-180.000000) translate(-147.662600, -212.552500) " points="144 186 151.3252 186 151.3252 239.105 144 239.105"></polygon>
            </g>
        </g>
    </g>
</svg>